<svg width="411" height="326" viewBox="0 0 411 326" fill="none" xmlns="http://www.w3.org/2000/svg">
<path d="M49.0233 257.338C49.0233 257.338 73.1309 297.988 121.094 302.345C169.056 306.702 219.873 305.042 252.378 264.866C284.883 224.691 372.173 192.903 363.775 137.24C355.378 81.5782 348.526 43.0918 296.981 25.5158C245.437 7.93978 221.017 -2.09305 187.471 9.62921C153.926 21.3515 113.647 47.3005 100.211 76.584C86.7751 105.867 91.1002 136.248 72.6256 166.124C54.151 196 29.7015 220.526 49.0084 257.338H49.0233Z" fill="#3D50FF" fill-opacity="0.04"/>
<path d="M287.902 77.237C290.473 77.237 292.558 75.1563 292.558 72.5896C292.558 70.023 290.473 67.9423 287.902 67.9423C285.33 67.9423 283.245 70.023 283.245 72.5896C283.245 75.1563 285.33 77.237 287.902 77.237Z" fill="#F45E3D"/>
<path d="M130.331 207.308C132.903 207.308 134.988 205.227 134.988 202.661C134.988 200.094 132.903 198.013 130.331 198.013C127.76 198.013 125.675 200.094 125.675 202.661C125.675 205.227 127.76 207.308 130.331 207.308Z" stroke="#4B4065" stroke-width="1.39693" stroke-miterlimit="10"/>
<path d="M234.847 33.0167V39.9455" stroke="black" stroke-width="1.41104" stroke-miterlimit="10" stroke-linecap="round"/>
<path d="M234.847 53.9719V47.0431" stroke="black" stroke-width="1.41104" stroke-miterlimit="10" stroke-linecap="round"/>
<path d="M224.419 43.8046H231.376" stroke="black" stroke-width="1.41104" stroke-miterlimit="10" stroke-linecap="round"/>
<path d="M245.43 43.8046H238.473" stroke="black" stroke-width="1.41104" stroke-miterlimit="10" stroke-linecap="round"/>
<path d="M114.188 168.241C131.021 168.241 144.667 154.622 144.667 137.822C144.667 121.022 131.021 107.403 114.188 107.403C97.3556 107.403 83.7099 121.022 83.7099 137.822C83.7099 154.622 97.3556 168.241 114.188 168.241Z" fill="#8137FA"/>
<path d="M121.59 142.275C120.777 141.633 119.714 140.907 118.626 141.198C117.79 141.428 117.132 142.626 116.547 143.195C116.248 143.485 115.925 143.497 115.543 143.291C112.711 141.718 110.679 139.431 109.376 136.465C109.149 136.006 109.245 135.667 109.627 135.316C110.189 134.783 110.894 134.19 111.133 133.416C111.36 132.641 111.109 131.661 110.87 130.91C110.559 129.954 110.261 128.599 109.424 127.982C108.659 127.413 107.536 127.534 106.735 128.054C105.337 128.938 104.536 130.499 104.357 132.133C104.309 132.593 104.309 133.065 104.357 133.525C104.488 134.626 104.847 135.691 105.289 136.708C105.612 137.47 105.982 138.22 106.389 138.959C107.715 141.343 109.46 143.485 111.575 145.191C112.639 146.039 113.786 146.813 115.017 147.406C116.391 148.06 117.61 148.713 119.188 148.617C120.849 148.508 122.558 147.685 123.395 146.196C123.646 145.748 123.801 145.24 123.753 144.732C123.658 143.679 122.367 142.904 121.614 142.311L121.59 142.275Z" fill="#E4CEFF"/>
<path d="M178.391 37.0164H39.9257C34.4706 37.0164 30.0484 41.43 30.0484 46.8744V75.4488C30.0484 80.8932 34.4706 85.3068 39.9257 85.3068H178.391C183.846 85.3068 188.268 80.8932 188.268 75.4488V46.8744C188.268 41.43 183.846 37.0164 178.391 37.0164Z" fill="#DDEEFF"/>
<path d="M55.8993 61.3519C58.619 61.3519 60.8238 59.1514 60.8238 56.4369C60.8238 53.7225 58.619 51.522 55.8993 51.522C53.1795 51.522 50.9747 53.7225 50.9747 56.4369C50.9747 59.1514 53.1795 61.3519 55.8993 61.3519Z" fill="#3D50FF"/>
<path d="M47.4186 70.7871C47.4186 66.1116 51.2143 62.3232 55.8989 62.3232C60.5836 62.3232 64.3793 66.1116 64.3793 70.7871H47.4327H47.4186Z" fill="#3D50FF"/>
<path d="M205.455 75.5895H170.997C164.093 75.5895 158.495 81.1758 158.495 88.067V122.458C158.495 129.349 164.093 134.935 170.997 134.935H205.455C212.359 134.935 217.957 129.349 217.957 122.458V88.067C217.957 81.1758 212.359 75.5895 205.455 75.5895Z" fill="white" stroke="#FFA409" stroke-width="0.70552" stroke-miterlimit="10"/>
<path d="M188.226 106.332L175.724 97.9531V113.642H200.728V97.9531L188.226 106.332Z" fill="#FFA409"/>
<path d="M199.134 96.869H177.319L188.226 104.192L199.134 96.869Z" fill="#FFA409"/>
<path d="M138.656 254.964C138.656 254.964 109.772 269.526 103.832 238.347C97.8912 207.167 121.046 223.193 116.376 238.614C111.705 254.035 96.8047 252.908 88.2256 231.375C79.6465 209.843 65.8465 175.015 43.6932 182.86C30.0766 187.676 23.3177 199.548 23.3177 199.548" stroke="#FFA409" stroke-width="0.691409" stroke-miterlimit="10" stroke-dasharray="1.38 1.38"/>
<path d="M84.8201 64.4532C84.8201 64.2159 84.7832 64.005 84.7094 63.8204C84.6408 63.6358 84.5169 63.4671 84.3376 63.3141C84.1583 63.1612 83.9052 63.0135 83.5782 62.8712C83.2565 62.7235 82.8452 62.5732 82.3442 62.4203C81.7957 62.2515 81.2894 62.0643 80.8254 61.8586C80.3665 61.6477 79.9657 61.4051 79.623 61.1308C79.2802 60.8513 79.0139 60.5323 78.824 60.1737C78.6341 59.8098 78.5392 59.3905 78.5392 58.9159C78.5392 58.4466 78.6368 58.0194 78.8319 57.6344C79.0323 57.2494 79.3144 56.9172 79.6783 56.6377C80.0475 56.3529 80.4826 56.1341 80.9836 55.9811C81.4846 55.8229 82.0383 55.7438 82.6448 55.7438C83.4991 55.7438 84.2348 55.902 84.8518 56.2184C85.4741 56.5349 85.9513 56.9594 86.2836 57.492C86.6211 58.0247 86.7898 58.6127 86.7898 59.2561H84.8201C84.8201 58.8764 84.7384 58.5415 84.5749 58.2514C84.4167 57.9561 84.1741 57.7241 83.8472 57.5553C83.5255 57.3866 83.1168 57.3022 82.621 57.3022C82.1517 57.3022 81.7614 57.3734 81.4503 57.5158C81.1391 57.6582 80.9071 57.8506 80.7542 58.0932C80.6012 58.3358 80.5248 58.61 80.5248 58.9159C80.5248 59.1321 80.5749 59.3299 80.6751 59.5092C80.7753 59.6832 80.9282 59.8467 81.1339 59.9997C81.3395 60.1473 81.5979 60.2871 81.9091 60.4189C82.2202 60.5507 82.5867 60.6773 83.0086 60.7986C83.6468 60.9885 84.2031 61.1994 84.6778 61.4314C85.1524 61.6582 85.5479 61.9166 85.8643 62.2067C86.1807 62.4967 86.4181 62.8263 86.5763 63.1955C86.7345 63.5594 86.8136 63.9733 86.8136 64.4374C86.8136 64.9226 86.716 65.3603 86.5209 65.7506C86.3258 66.1355 86.0463 66.4651 85.6824 66.7394C85.3238 67.0083 84.8913 67.2166 84.3851 67.3643C83.8841 67.5067 83.3251 67.5779 82.708 67.5779C82.1543 67.5779 81.6085 67.5041 81.0706 67.3564C80.5379 67.2087 80.0528 66.9846 79.615 66.684C79.1773 66.3781 78.8293 65.9984 78.5709 65.5449C78.3125 65.0861 78.1833 64.5508 78.1833 63.9391H80.1688C80.1688 64.3135 80.2321 64.6326 80.3586 64.8962C80.4905 65.1599 80.6724 65.3761 80.9045 65.5449C81.1365 65.7084 81.4055 65.8297 81.7113 65.9088C82.0225 65.9879 82.3547 66.0274 82.708 66.0274C83.1721 66.0274 83.5597 65.9615 83.8709 65.8297C84.1873 65.6978 84.4246 65.5133 84.5828 65.2759C84.741 65.0386 84.8201 64.7644 84.8201 64.4532ZM93.2052 65.7031V61.6213C93.2052 61.3154 93.1499 61.0517 93.0391 60.8303C92.9284 60.6088 92.7596 60.4374 92.5329 60.3161C92.3114 60.1948 92.0319 60.1341 91.6943 60.1341C91.3832 60.1341 91.1142 60.1869 90.8875 60.2923C90.6607 60.3978 90.484 60.5402 90.3575 60.7195C90.2309 60.8988 90.1676 61.1018 90.1676 61.3286H88.2691C88.2691 60.9911 88.3509 60.6641 88.5143 60.3477C88.6778 60.0313 88.9151 59.7492 89.2263 59.5013C89.5374 59.2534 89.9092 59.0583 90.3417 58.9159C90.7741 58.7735 91.2593 58.7023 91.7972 58.7023C92.4406 58.7023 93.0101 58.8104 93.5058 59.0267C94.0068 59.2429 94.3997 59.5698 94.6845 60.0076C94.9746 60.44 95.1196 60.9832 95.1196 61.6371V65.4421C95.1196 65.8323 95.1459 66.183 95.1987 66.4942C95.2567 66.8 95.3384 67.0663 95.4439 67.2931V67.4197H93.49C93.4004 67.214 93.3292 66.953 93.2764 66.6365C93.229 66.3148 93.2052 66.0037 93.2052 65.7031ZM93.4821 62.2146L93.4979 63.3932H92.1294C91.7761 63.3932 91.4649 63.4275 91.196 63.4961C90.927 63.5594 90.7029 63.6543 90.5236 63.7809C90.3443 63.9074 90.2098 64.0604 90.1202 64.2397C90.0305 64.419 89.9857 64.622 89.9857 64.8488C89.9857 65.0755 90.0384 65.2838 90.1439 65.4737C90.2494 65.6583 90.4023 65.8033 90.6027 65.9088C90.8084 66.0142 91.0562 66.067 91.3463 66.067C91.7365 66.067 92.0767 65.9879 92.3667 65.8297C92.6621 65.6662 92.8941 65.4684 93.0629 65.2364C93.2316 64.9991 93.3213 64.7749 93.3318 64.564L93.9488 65.4104C93.8855 65.6266 93.7774 65.8587 93.6245 66.1065C93.4716 66.3544 93.2712 66.5917 93.0233 66.8185C92.7807 67.04 92.488 67.2219 92.1452 67.3643C91.8077 67.5067 91.4175 67.5779 90.9745 67.5779C90.4155 67.5779 89.9171 67.4671 89.4794 67.2456C89.0417 67.0189 88.6989 66.7156 88.451 66.3359C88.2032 65.951 88.0793 65.5159 88.0793 65.0307C88.0793 64.5772 88.1636 64.1764 88.3324 63.8283C88.5064 63.475 88.7596 63.1797 89.0918 62.9423C89.4293 62.705 89.8407 62.5257 90.3258 62.4044C90.811 62.2779 91.3647 62.2146 91.987 62.2146H93.4821ZM97.1209 55.2692H99.0274V65.5924L98.8454 67.4197H97.1209V55.2692ZM104.612 63.061V63.2271C104.612 63.86 104.541 64.4427 104.399 64.9753C104.261 65.5027 104.051 65.9615 103.766 66.3518C103.486 66.742 103.138 67.0452 102.722 67.2615C102.31 67.4724 101.833 67.5779 101.29 67.5779C100.757 67.5779 100.293 67.4777 99.8975 67.2773C99.502 67.0769 99.1697 66.7921 98.9008 66.423C98.6371 66.0538 98.4235 65.6135 98.26 65.1019C98.0966 64.5904 97.9805 64.0261 97.912 63.4091V62.8791C97.9805 62.2568 98.0966 61.6925 98.26 61.1862C98.4235 60.6747 98.6371 60.2343 98.9008 59.8652C99.1697 59.4907 99.4993 59.2033 99.8896 59.0029C100.285 58.8025 100.747 58.7023 101.274 58.7023C101.822 58.7023 102.305 58.8078 102.722 59.0188C103.143 59.2297 103.494 59.5303 103.774 59.9205C104.053 60.3055 104.261 60.7643 104.399 61.297C104.541 61.8296 104.612 62.4176 104.612 63.061ZM102.706 63.2271V63.061C102.706 62.676 102.674 62.3148 102.611 61.9773C102.548 61.6345 102.442 61.3339 102.294 61.0755C102.152 60.8171 101.957 60.614 101.709 60.4664C101.466 60.3134 101.163 60.237 100.799 60.237C100.462 60.237 100.172 60.295 99.9292 60.411C99.6866 60.527 99.4835 60.6852 99.32 60.8856C99.1566 61.086 99.0274 61.3181 98.9324 61.5817C98.8428 61.8454 98.7821 62.1302 98.7505 62.4361V63.8679C98.798 64.2634 98.8982 64.6273 99.0511 64.9595C99.2093 65.2865 99.4308 65.5502 99.7156 65.7506C100 65.9457 100.367 66.0433 100.815 66.0433C101.168 66.0433 101.466 65.9721 101.709 65.8297C101.952 65.6873 102.144 65.4895 102.286 65.2364C102.434 64.978 102.54 64.6774 102.603 64.3346C102.671 63.9918 102.706 63.6226 102.706 63.2271ZM108.14 60.4901V67.4197H106.234V58.8605H108.053L108.14 60.4901ZM110.759 58.8052L110.743 60.5771C110.627 60.556 110.5 60.5402 110.363 60.5297C110.231 60.5191 110.099 60.5138 109.968 60.5138C109.641 60.5138 109.353 60.5613 109.105 60.6562C108.857 60.7459 108.649 60.8777 108.48 61.0517C108.317 61.2205 108.19 61.4262 108.101 61.6688C108.011 61.9113 107.958 62.1829 107.942 62.4835L107.507 62.5152C107.507 61.9773 107.56 61.4789 107.666 61.0201C107.771 60.5613 107.929 60.1579 108.14 59.8098C108.356 59.4617 108.625 59.1901 108.947 58.995C109.274 58.7999 109.651 58.7023 110.078 58.7023C110.194 58.7023 110.318 58.7129 110.45 58.734C110.587 58.7551 110.69 58.7788 110.759 58.8052ZM113.994 58.8605V67.4197H112.08V58.8605H113.994ZM111.953 56.614C111.953 56.3239 112.048 56.084 112.238 55.8941C112.433 55.699 112.702 55.6014 113.045 55.6014C113.382 55.6014 113.649 55.699 113.844 55.8941C114.039 56.084 114.136 56.3239 114.136 56.614C114.136 56.8987 114.039 57.1361 113.844 57.3259C113.649 57.5158 113.382 57.6107 113.045 57.6107C112.702 57.6107 112.433 57.5158 112.238 57.3259C112.048 57.1361 111.953 56.8987 111.953 56.614ZM117.973 60.6879V67.4197H116.067V58.8605H117.862L117.973 60.6879ZM117.633 62.8237L117.016 62.8158C117.021 62.2093 117.105 61.6529 117.269 61.1467C117.438 60.6404 117.67 60.2053 117.965 59.8414C118.266 59.4776 118.624 59.1981 119.041 59.0029C119.457 58.8025 119.922 58.7023 120.433 58.7023C120.844 58.7023 121.216 58.7603 121.548 58.8764C121.886 58.9871 122.173 59.1691 122.411 59.4222C122.653 59.6753 122.838 60.0049 122.964 60.411C123.091 60.8118 123.154 61.3049 123.154 61.8903V67.4197H121.24V61.8823C121.24 61.471 121.179 61.1467 121.058 60.9094C120.942 60.6668 120.771 60.4954 120.544 60.3952C120.322 60.2897 120.045 60.237 119.713 60.237C119.386 60.237 119.094 60.3055 118.835 60.4426C118.577 60.5798 118.358 60.767 118.179 61.0043C118.005 61.2416 117.87 61.5158 117.775 61.827C117.68 62.1381 117.633 62.4704 117.633 62.8237ZM129.926 65.7031V61.6213C129.926 61.3154 129.87 61.0517 129.76 60.8303C129.649 60.6088 129.48 60.4374 129.253 60.3161C129.032 60.1948 128.752 60.1341 128.415 60.1341C128.104 60.1341 127.835 60.1869 127.608 60.2923C127.381 60.3978 127.204 60.5402 127.078 60.7195C126.951 60.8988 126.888 61.1018 126.888 61.3286H124.99C124.99 60.9911 125.071 60.6641 125.235 60.3477C125.398 60.0313 125.636 59.7492 125.947 59.5013C126.258 59.2534 126.63 59.0583 127.062 58.9159C127.495 58.7735 127.98 58.7023 128.518 58.7023C129.161 58.7023 129.731 58.8104 130.226 59.0267C130.727 59.2429 131.12 59.5698 131.405 60.0076C131.695 60.44 131.84 60.9832 131.84 61.6371V65.4421C131.84 65.8323 131.866 66.183 131.919 66.4942C131.977 66.8 132.059 67.0663 132.164 67.2931V67.4197H130.21C130.121 67.214 130.05 66.953 129.997 66.6365C129.949 66.3148 129.926 66.0037 129.926 65.7031ZM130.203 62.2146L130.218 63.3932H128.85C128.497 63.3932 128.185 63.4275 127.916 63.4961C127.647 63.5594 127.423 63.6543 127.244 63.7809C127.065 63.9074 126.93 64.0604 126.841 64.2397C126.751 64.419 126.706 64.622 126.706 64.8488C126.706 65.0755 126.759 65.2838 126.864 65.4737C126.97 65.6583 127.123 65.8033 127.323 65.9088C127.529 66.0142 127.777 66.067 128.067 66.067C128.457 66.067 128.797 65.9879 129.087 65.8297C129.382 65.6662 129.615 65.4684 129.783 65.2364C129.952 64.9991 130.042 64.7749 130.052 64.564L130.669 65.4104C130.606 65.6266 130.498 65.8587 130.345 66.1065C130.192 66.3544 129.992 66.5917 129.744 66.8185C129.501 67.04 129.208 67.2219 128.866 67.3643C128.528 67.5067 128.138 67.5779 127.695 67.5779C127.136 67.5779 126.638 67.4671 126.2 67.2456C125.762 67.0189 125.419 66.7156 125.171 66.3359C124.924 65.951 124.8 65.5159 124.8 65.0307C124.8 64.5772 124.884 64.1764 125.053 63.8283C125.227 63.475 125.48 63.1797 125.812 62.9423C126.15 62.705 126.561 62.5257 127.046 62.4044C127.531 62.2779 128.085 62.2146 128.707 62.2146H130.203ZM140.043 55.902V67.4197H138.058V55.902H140.043ZM146.965 55.902L142.298 61.4473L139.64 64.2634L139.292 62.2937L141.19 59.9522L144.544 55.902H146.965ZM144.829 67.4197L141.04 61.9614L142.408 60.6088L147.186 67.4197H144.829ZM152.929 65.7031V61.6213C152.929 61.3154 152.874 61.0517 152.763 60.8303C152.652 60.6088 152.484 60.4374 152.257 60.3161C152.035 60.1948 151.756 60.1341 151.418 60.1341C151.107 60.1341 150.838 60.1869 150.612 60.2923C150.385 60.3978 150.208 60.5402 150.082 60.7195C149.955 60.8988 149.892 61.1018 149.892 61.3286H147.993C147.993 60.9911 148.075 60.6641 148.238 60.3477C148.402 60.0313 148.639 59.7492 148.95 59.5013C149.262 59.2534 149.633 59.0583 150.066 58.9159C150.498 58.7735 150.983 58.7023 151.521 58.7023C152.165 58.7023 152.734 58.8104 153.23 59.0267C153.731 59.2429 154.124 59.5698 154.409 60.0076C154.699 60.44 154.844 60.9832 154.844 61.6371V65.4421C154.844 65.8323 154.87 66.183 154.923 66.4942C154.981 66.8 155.063 67.0663 155.168 67.2931V67.4197H153.214C153.124 67.214 153.053 66.953 153.001 66.6365C152.953 66.3148 152.929 66.0037 152.929 65.7031ZM153.206 62.2146L153.222 63.3932H151.854C151.5 63.3932 151.189 63.4275 150.92 63.4961C150.651 63.5594 150.427 63.6543 150.248 63.7809C150.068 63.9074 149.934 64.0604 149.844 64.2397C149.755 64.419 149.71 64.622 149.71 64.8488C149.71 65.0755 149.763 65.2838 149.868 65.4737C149.973 65.6583 150.126 65.8033 150.327 65.9088C150.532 66.0142 150.78 66.067 151.07 66.067C151.461 66.067 151.801 65.9879 152.091 65.8297C152.386 65.6662 152.618 65.4684 152.787 65.2364C152.956 64.9991 153.045 64.7749 153.056 64.564L153.673 65.4104C153.61 65.6266 153.502 65.8587 153.349 66.1065C153.196 66.3544 152.995 66.5917 152.747 66.8185C152.505 67.04 152.212 67.2219 151.869 67.3643C151.532 67.5067 151.142 67.5779 150.699 67.5779C150.14 67.5779 149.641 67.4671 149.204 67.2456C148.766 67.0189 148.423 66.7156 148.175 66.3359C147.927 65.951 147.803 65.5159 147.803 65.0307C147.803 64.5772 147.888 64.1764 148.056 63.8283C148.231 63.475 148.484 63.1797 148.816 62.9423C149.153 62.705 149.565 62.5257 150.05 62.4044C150.535 62.2779 151.089 62.2146 151.711 62.2146H153.206ZM159.194 66.4862L161.52 58.8605H163.561L160.128 68.7249C160.049 68.9359 159.946 69.1653 159.819 69.4131C159.693 69.661 159.527 69.8957 159.321 70.1172C159.121 70.3439 158.87 70.5259 158.57 70.663C158.269 70.8054 157.905 70.8766 157.478 70.8766C157.309 70.8766 157.146 70.8607 156.987 70.8291C156.834 70.8027 156.689 70.7737 156.552 70.7421L156.544 69.2866C156.597 69.2918 156.66 69.2971 156.734 69.3024C156.813 69.3076 156.877 69.3103 156.924 69.3103C157.241 69.3103 157.504 69.2707 157.715 69.1916C157.926 69.1178 158.098 68.9965 158.229 68.8277C158.366 68.659 158.482 68.4322 158.577 68.1474L159.194 66.4862ZM157.881 58.8605L159.914 65.268L160.254 67.2773L158.933 67.6174L155.825 58.8605H157.881Z" fill="#3D50FF"/>
<path d="M296.778 191.182C268.825 192.07 248.478 188.394 241.649 175.015C232.039 156.172 251.314 167.016 258.482 126.302C258.793 109.107 271.069 103.713 283.02 102.164C298.076 100.319 317.04 104.671 322.868 121.035C324.265 125.162 326.48 131.837 328.442 135.78C331.856 142.568 336.104 148.032 341.056 153.046C352.98 164.749 369.432 160.749 374.131 181.831C375.514 194.295 373.538 200.097 364.367 204.956C357.142 208.772 346.63 210.913 337.19 210.518C322.529 210.561 304.835 190.985 296.792 191.211L296.778 191.182Z" fill="#4B4065"/>
<path d="M315.714 149.539C313.498 150.426 310.69 152.187 308.263 152.412C306.203 152.708 304.425 152.116 302.436 152.553C298.16 153.511 294.393 155.862 291.585 159.116C287.521 163.608 285.306 169.284 283.542 174.959C281.623 181.001 280.438 187.774 283.542 193.154C285.899 197.055 290.118 199.491 294.464 200.52C306.867 203.533 331.447 210.026 335.948 196.097C341.635 181.367 326.057 173.339 321.259 167.213C317.859 162.946 310.634 154.468 315.869 149.229" fill="#352D47"/>
<path d="M257.325 183.775C257.325 183.775 252.245 183.451 249.606 183.395C231.616 183.043 214.923 195.07 212.807 217.321C212.807 217.321 207.967 267.681 210.704 277.821C213.441 287.961 292.601 291.439 317.294 289.566C338.544 287.947 354.884 286.722 359.583 278.779C365.044 269.54 360.853 250.528 358.454 237.459C354.009 213.152 333.958 193.028 314.923 189.662C295.889 186.296 257.325 183.761 257.325 183.761V183.775Z" fill="#F45E3D"/>
<path d="M274.977 111.36C278.082 110.177 281.694 110.262 284.798 111.501C287.38 112.529 289.596 114.515 290.852 117.106C292.404 120.416 291.882 124.105 291.077 127.57C290.118 131.26 288.791 135.456 290.71 139.132C292.333 142.23 295.734 144.146 299.275 143.92C300.094 143.92 299.939 145.019 299.275 145.019C295.508 145.244 291.825 143.244 289.906 140.005C285.842 133.006 292.855 125.274 290.047 118.05C287.832 112.234 280.678 110.093 275.203 112.234C274.54 112.6 274.244 111.417 274.977 111.346V111.36Z" fill="#F55E3D"/>
<path d="M272.352 184.958L273.439 170.79C266.539 171.874 258.058 167.509 256.718 159.031C255.758 151.891 255.829 144.666 257.085 137.512C258.185 131.837 259.893 126.02 263.138 121.232C266.242 116.374 271.252 112.909 277.093 111.656C319.989 103.924 303.296 162.199 303.381 162.129L305.272 188.225" fill="#FBD7AD"/>
<path d="M300.884 151.159C303.325 153.145 306.5 154.032 309.59 153.807C312.694 153.582 315.502 151.666 316.829 148.793C318.085 145.92 317.266 142.456 314.839 140.47C312.483 138.851 309.604 138.625 307.008 139.654C304.567 140.682 302.21 142.09 300.221 144.005" fill="#FBD7AD"/>
<path d="M280.945 141.948C284.05 141.723 287.366 140.174 288.621 137.385C286.477 134.512 283.006 133.034 279.464 133.484C276.063 134.005 273.34 135.836 272.31 139.16C274.751 141.145 277.771 142.103 280.945 141.962V141.948Z" fill="white"/>
<path d="M276.078 134.653C277.771 133.695 279.986 132.738 281.905 133.329C282.343 134.653 281.242 138.554 279.549 139.807C277.108 141.582 273.425 139.666 272.973 138.779C272.973 138.709 272.832 138.709 272.832 138.554C272.395 137.3 275.344 135.089 276.078 134.653Z" fill="#B9C6E4"/>
<path d="M272.014 138.991C272.677 137.076 273.863 135.457 275.556 134.203C277.912 132.584 280.946 132.358 283.599 133.386C285.588 134.048 287.959 135.161 289.059 137.076C289.285 137.513 288.467 137.963 288.241 137.513C287.719 136.625 286.844 135.893 285.8 135.302C284.474 134.569 282.992 133.978 281.44 133.752C279.888 133.386 278.124 133.612 276.642 134.414C274.723 135.513 273.397 137.217 272.734 139.203C272.508 139.794 271.704 139.569 272 138.977L272.014 138.991Z" fill="#4B4065"/>
<path d="M277.178 127.288C279.097 126.035 281.313 125.598 283.457 126.035C285.602 126.471 287.366 127.725 288.622 129.499C284.558 128.767 281.242 128.105 277.178 127.288Z" fill="#4B4065"/>
<path d="M282.794 128.907C284.572 129.203 286.491 129.639 288.48 130.005C288.621 130.005 288.706 130.005 288.847 129.865C289.143 129.639 289.143 129.428 288.988 129.203C287.662 127.287 285.743 125.964 283.527 125.513C281.312 125.076 278.871 125.513 276.952 126.766C276.881 126.907 276.726 126.992 276.726 127.132C276.656 127.358 276.867 127.569 277.093 127.724C279.083 128.09 281.086 128.611 282.78 128.907H282.794ZM287.295 128.836L282.794 127.949L278.434 127.062C279.986 126.33 281.679 126.104 283.231 126.471L283.598 126.611C285.15 126.977 286.476 127.71 287.295 128.822V128.836Z" fill="#4B4065"/>
<path d="M266.553 144.004C265.89 143.779 265.156 143.342 264.564 142.751C263.901 142.23 263.534 141.357 263.745 140.54C263.816 140.103 264.183 139.582 264.634 139.216L266.412 137.301" stroke="#4B4065" stroke-width="0.832513" stroke-linecap="round" stroke-linejoin="round"/>
<path d="M265.071 124.486V124.852C265.071 125.077 264.845 125.373 264.634 125.218L261.318 124.19C261.685 123.303 262.136 122.416 262.574 121.613C263.688 122.43 264.563 123.387 265.085 124.486H265.071Z" fill="#4B4065"/>
<path d="M265.297 125.443C265.819 125.217 265.89 124.781 265.664 124.33C265.001 123.147 263.971 122.049 262.856 121.232C262.715 121.091 262.63 121.091 262.489 121.091C262.264 121.091 262.264 121.162 262.122 121.317C261.685 122.204 261.233 123.091 260.867 123.894V124.26C261.008 124.33 261.092 124.485 261.233 124.485C262.193 124.851 263.294 125.147 264.549 125.513C264.775 125.654 264.987 125.654 265.283 125.443H265.297ZM262.856 122.274C263.59 122.936 264.253 123.753 264.846 124.626L262.038 123.809C262.264 123.288 262.475 122.852 262.856 122.26V122.274Z" fill="#4B4065"/>
<path d="M262.122 135.09C260.796 135.907 259.089 136.343 257.551 136.118V135.893C257.988 133.456 258.651 131.105 259.328 128.753C261.022 130.443 262.066 132.654 262.136 135.09H262.122Z" fill="white"/>
<path d="M257.325 136.048C257.692 133.612 258.355 131.19 259.244 128.824C259.314 128.824 259.54 129.049 259.681 129.049C260.274 130.162 260.345 131.485 260.119 132.739C260.119 133.992 259.597 135.091 258.792 135.978C258.355 136.119 257.903 136.203 257.311 136.048H257.325Z" fill="#B9C6E4"/>
<path d="M259.244 128.456C259.385 128.316 259.681 128.316 259.837 128.456C261.615 130.005 262.645 132.216 262.489 134.568C262.489 134.709 262.348 134.934 262.123 134.934C261.897 134.934 261.685 134.794 261.685 134.568C261.685 132.428 260.796 130.301 259.244 128.963C259.103 128.822 259.103 128.527 259.244 128.442V128.456Z" fill="#4B4065"/>
<path opacity="0.3" d="M272.634 181.367C286.434 180.705 291.584 163.721 291.584 163.721C291.584 163.721 282.003 170.143 273.565 170.805L272.634 181.367Z" fill="#F27932"/>
<path d="M301.984 109.966C298.88 108.121 296.453 106.22 292.756 106.22C276.854 102.84 267.541 110.952 266.426 115.98C269.742 114.29 273.778 115.262 277.474 116.078C281.171 116.966 286.11 118.712 290.273 127.556C294.252 138.386 302.732 140.653 304.425 140.54C305.089 140.54 305.907 140.315 306.57 140.104C312.031 138.189 314.317 133.541 313.95 127.725C313.583 121.317 310.182 115.121 301.984 109.966Z" fill="#4B4065"/>
<path d="M276.769 149.244C276.769 149.244 272.79 156.891 263.915 153.933" stroke="#F55E3D" stroke-width="0.747851" stroke-linecap="round" stroke-linejoin="round"/>
<path d="M314.232 189.549C311.283 195.126 303.127 206.308 285.729 204.675C266.68 202.9 262.559 190.31 261.699 184.071C272.183 184.832 298.993 186.93 314.232 189.549Z" fill="#FBD7AD"/>
<path d="M226.38 240.332C230.472 254.232 232.984 282.271 222.712 285.454C204.721 291.017 196.96 257.006 192.586 225.052L188.607 193.52C188.607 193.52 188.127 195.661 185.136 194.098C182.582 192.76 179.675 183.381 179.534 180.325C179.393 177.269 183.936 176.748 183.936 176.748C184.388 174.424 188.353 174.001 188.353 174.001C188.353 174.001 184.585 165.791 183.626 163.58C182.666 161.369 183.428 156.637 189.552 163.256C197.341 171.678 204.467 180.085 206.203 184.381C213.864 203.435 218.606 213.856 226.38 240.346V240.332Z" fill="#FBD7AD"/>
<path d="M202.323 183.226C202.323 183.226 195.662 182.69 193.419 185.282C191.175 187.873 200.954 188.845 200.954 188.845C200.954 188.845 200.531 192.21 201.899 195.097" stroke="#F27932" stroke-width="0.747851" stroke-linecap="round" stroke-linejoin="round"/>
<path d="M188.339 173.987L194.435 184.479" stroke="#F27932" stroke-width="0.747851" stroke-linecap="round" stroke-linejoin="round"/>
<path d="M183.923 176.733C183.923 176.733 187.253 187.886 189.228 190.14C191.204 192.393 194.985 193.562 195.154 187.661" stroke="#F27932" stroke-width="0.747851" stroke-linecap="round" stroke-linejoin="round"/>
<path d="M188.608 193.506C188.608 193.506 189.426 192.182 189.553 190.464" stroke="#F27932" stroke-width="0.747851" stroke-linecap="round" stroke-linejoin="round"/>
<path d="M324.25 266.92C324.25 266.92 324.504 282.383 323.996 290.41" stroke="white" stroke-width="1.05828" stroke-miterlimit="10"/>
<path d="M307.366 151.384C308.391 148.813 310.432 147.768 311.944 149.009C313.456 150.25 314.465 153.365 314.295 156.5C314.125 159.635 312.802 162.378 311.116 163.35C309.429 164.322 307.557 163.487 306.354 161.408" stroke="white" stroke-width="0.810033" stroke-miterlimit="10"/>
</svg>
