<svg width="411" height="326" viewBox="0 0 411 326" fill="none" xmlns="http://www.w3.org/2000/svg">
<path d="M26.1012 146.424C26.1012 146.424 12.444 111.705 30.4715 85.2043C47.5392 60.1223 59.9267 56.0134 72.5651 45.9777C85.2035 35.942 102.832 24.4135 122.248 24.4135C141.663 24.4135 200.057 29.2909 195.465 91.8997C190.873 154.508 248.957 140.792 272.432 155.159C295.908 169.525 301.755 233.937 248.396 266.409C195.037 298.881 189.219 313.972 139.596 319.751C89.9724 325.53 56.8852 312.834 39.9503 284.485C23.0154 256.137 44.734 216.822 26.0864 146.424H26.1012Z" fill="#3D50FF" fill-opacity="0.04"/>
<path d="M67.1613 171.704C69.733 171.704 71.8177 169.623 71.8177 167.057C71.8177 164.49 69.733 162.409 67.1613 162.409C64.5896 162.409 62.5049 164.49 62.5049 167.057C62.5049 169.623 64.5896 171.704 67.1613 171.704Z" fill="#F45E3D"/>
<path d="M248.255 236.416C250.826 236.416 252.911 234.336 252.911 231.769C252.911 229.202 250.826 227.122 248.255 227.122C245.683 227.122 243.598 229.202 243.598 231.769C243.598 234.336 245.683 236.416 248.255 236.416Z" stroke="#4B4065" stroke-width="1.39466" stroke-miterlimit="10"/>
<path d="M374.148 40.8597H140.225V183.534H374.148V40.8597Z" fill="white" stroke="#8E33FF" stroke-width="0.704375" stroke-miterlimit="10"/>
<path d="M183.946 63.6508C183.946 63.4739 183.919 63.316 183.864 63.177C183.813 63.0337 183.719 62.9053 183.58 62.7916C183.445 62.6736 183.253 62.5599 183.005 62.4504C182.76 62.3366 182.444 62.2187 182.057 62.0966C181.627 61.9618 181.227 61.8101 180.856 61.6417C180.486 61.4732 180.159 61.2773 179.877 61.0541C179.599 60.8308 179.382 60.5739 179.226 60.2833C179.071 59.9884 178.993 59.6472 178.993 59.2597C178.993 58.8806 179.073 58.5352 179.233 58.2236C179.397 57.9119 179.629 57.6444 179.928 57.4212C180.227 57.1937 180.578 57.0189 180.983 56.8968C181.391 56.7746 181.842 56.7135 182.335 56.7135C183.017 56.7135 183.607 56.8378 184.104 57.0863C184.605 57.3348 184.993 57.6718 185.267 58.0972C185.54 58.5226 185.677 59.0007 185.677 59.5314H183.946C183.946 59.245 183.885 58.9923 183.763 58.7732C183.645 58.5542 183.464 58.3815 183.219 58.2551C182.979 58.1288 182.676 58.0656 182.31 58.0656C181.956 58.0656 181.661 58.1183 181.425 58.2236C181.193 58.3289 181.019 58.4721 180.901 58.6532C180.787 58.8343 180.73 59.0365 180.73 59.2597C180.73 59.4282 180.77 59.5798 180.85 59.7146C180.93 59.8452 181.05 59.9695 181.21 60.0874C181.37 60.2011 181.568 60.3085 181.804 60.4096C182.044 60.5065 182.322 60.6034 182.638 60.7003C183.144 60.8519 183.586 61.0204 183.965 61.2057C184.348 61.391 184.666 61.6016 184.919 61.8375C185.176 62.0734 185.368 62.3388 185.494 62.6336C185.625 62.9284 185.69 63.2633 185.69 63.6382C185.69 64.0341 185.612 64.3879 185.456 64.6996C185.3 65.0113 185.077 65.2767 184.786 65.4957C184.496 65.7147 184.146 65.8811 183.738 65.9948C183.333 66.1086 182.88 66.1654 182.379 66.1654C181.933 66.1654 181.49 66.1065 181.052 65.9885C180.618 65.8664 180.225 65.6852 179.871 65.4452C179.517 65.2009 179.235 64.8934 179.024 64.5227C178.814 64.1478 178.708 63.7098 178.708 63.2085H180.452C180.452 63.4992 180.498 63.7477 180.591 63.9541C180.688 64.1563 180.823 64.3226 180.995 64.4532C181.172 64.5796 181.379 64.6722 181.615 64.7312C181.851 64.7902 182.105 64.8197 182.379 64.8197C182.733 64.8197 183.024 64.7712 183.251 64.6743C183.483 64.5733 183.655 64.4343 183.769 64.2574C183.887 64.0804 183.946 63.8783 183.946 63.6508ZM190.669 64.5859V61.4332C190.669 61.2015 190.628 61.0014 190.548 60.8329C190.468 60.6645 190.346 60.5339 190.182 60.4412C190.018 60.3485 189.809 60.3022 189.557 60.3022C189.333 60.3022 189.137 60.3401 188.969 60.4159C188.805 60.4918 188.678 60.5992 188.59 60.7382C188.501 60.873 188.457 61.0288 188.457 61.2057H186.783C186.783 60.9235 186.85 60.656 186.985 60.4033C187.12 60.1464 187.311 59.9189 187.56 59.7209C187.813 59.5188 188.114 59.3608 188.463 59.2471C188.817 59.1334 189.213 59.0765 189.651 59.0765C190.169 59.0765 190.631 59.165 191.035 59.3419C191.444 59.5146 191.764 59.7757 191.995 60.1253C192.231 60.4749 192.349 60.9151 192.349 61.4458V64.4279C192.349 64.7691 192.37 65.0619 192.412 65.3062C192.459 65.5462 192.526 65.7547 192.614 65.9317V66.0391H190.915C190.835 65.8664 190.774 65.6473 190.732 65.382C190.69 65.1124 190.669 64.847 190.669 64.5859ZM190.902 61.8754L190.915 62.8674H189.86C189.599 62.8674 189.369 62.8947 189.171 62.9495C188.973 63 188.811 63.0759 188.685 63.177C188.558 63.2738 188.463 63.3918 188.4 63.5308C188.337 63.6656 188.306 63.8193 188.306 63.992C188.306 64.1605 188.343 64.3121 188.419 64.4469C188.499 64.5817 188.613 64.6891 188.76 64.7691C188.912 64.8449 189.089 64.8828 189.291 64.8828C189.586 64.8828 189.843 64.8239 190.062 64.7059C190.281 64.5838 190.452 64.4364 190.574 64.2637C190.696 64.091 190.761 63.9267 190.77 63.7709L191.25 64.4911C191.191 64.6638 191.102 64.847 190.984 65.0408C190.866 65.2346 190.715 65.4157 190.53 65.5842C190.344 65.7526 190.121 65.8916 189.86 66.0012C189.599 66.1107 189.295 66.1654 188.95 66.1654C188.508 66.1654 188.112 66.077 187.762 65.9001C187.413 65.7232 187.137 65.481 186.935 65.1735C186.732 64.866 186.631 64.5164 186.631 64.1247C186.631 63.7624 186.699 63.4423 186.833 63.1643C186.968 62.8863 187.168 62.6526 187.434 62.463C187.699 62.2693 188.028 62.1239 188.419 62.0271C188.815 61.926 189.268 61.8754 189.778 61.8754H190.902ZM195.622 56.3344V66.0391H193.948V56.3344H195.622ZM200.285 66.1654C199.767 66.1654 199.301 66.0812 198.888 65.9127C198.476 65.7442 198.124 65.5104 197.833 65.2114C197.547 64.9081 197.326 64.5564 197.17 64.1563C197.018 63.7519 196.942 63.3181 196.942 62.8547V62.602C196.942 62.0755 197.018 61.5974 197.17 61.1678C197.321 60.734 197.536 60.3612 197.814 60.0495C198.092 59.7378 198.425 59.4977 198.813 59.3292C199.2 59.1607 199.628 59.0765 200.095 59.0765C200.58 59.0765 201.007 59.1586 201.378 59.3229C201.748 59.483 202.058 59.7104 202.306 60.0053C202.555 60.3001 202.742 60.6539 202.869 61.0667C202.995 61.4753 203.058 61.9281 203.058 62.4251V63.1264H197.701V61.9765H201.416V61.8502C201.407 61.5848 201.357 61.3426 201.264 61.1236C201.171 60.9003 201.028 60.7234 200.834 60.5928C200.641 60.4581 200.39 60.3907 200.083 60.3907C199.834 60.3907 199.617 60.4454 199.432 60.5549C199.251 60.6602 199.099 60.8119 198.977 61.0098C198.859 61.2036 198.77 61.4353 198.711 61.7048C198.653 61.9744 198.623 62.2735 198.623 62.602V62.8547C198.623 63.1412 198.661 63.4065 198.737 63.6508C198.817 63.8951 198.933 64.1078 199.084 64.2889C199.24 64.4659 199.425 64.6049 199.64 64.7059C199.859 64.8028 200.108 64.8513 200.386 64.8513C200.735 64.8513 201.051 64.7839 201.333 64.6491C201.62 64.5101 201.868 64.3058 202.079 64.0362L202.919 64.9081C202.776 65.1187 202.582 65.3209 202.338 65.5147C202.098 65.7084 201.807 65.8664 201.466 65.9885C201.125 66.1065 200.731 66.1654 200.285 66.1654ZM207.936 64.1689C207.936 64.0257 207.898 63.8972 207.822 63.7835C207.746 63.6698 207.603 63.5666 207.393 63.4739C207.186 63.377 206.883 63.2865 206.483 63.2022C206.129 63.1264 205.803 63.0316 205.503 62.9179C205.204 62.8042 204.947 62.6673 204.733 62.5072C204.518 62.343 204.349 62.1513 204.227 61.9323C204.109 61.709 204.05 61.4521 204.05 61.1615C204.05 60.8793 204.111 60.6139 204.234 60.3654C204.356 60.1127 204.533 59.8915 204.764 59.702C204.996 59.5082 205.278 59.3566 205.611 59.2471C205.944 59.1334 206.318 59.0765 206.735 59.0765C207.317 59.0765 207.816 59.1713 208.233 59.3608C208.654 59.5504 208.976 59.8115 209.2 60.1443C209.423 60.4728 209.534 60.8435 209.534 61.2563H207.866C207.866 61.0751 207.824 60.9109 207.74 60.7634C207.66 60.616 207.536 60.4981 207.367 60.4096C207.199 60.317 206.986 60.2706 206.729 60.2706C206.497 60.2706 206.302 60.3085 206.142 60.3844C205.986 60.4602 205.868 60.5592 205.788 60.6813C205.708 60.8035 205.668 60.9382 205.668 61.0857C205.668 61.1952 205.689 61.2942 205.731 61.3826C205.777 61.4669 205.851 61.5448 205.952 61.6164C206.053 61.688 206.19 61.7533 206.363 61.8122C206.54 61.8712 206.757 61.9281 207.013 61.9828C207.523 62.0839 207.968 62.2187 208.347 62.3872C208.73 62.5515 209.029 62.7705 209.244 63.0443C209.459 63.3181 209.566 63.6677 209.566 64.0931C209.566 64.3964 209.501 64.6743 209.37 64.9271C209.24 65.1756 209.05 65.3925 208.801 65.5778C208.553 65.7632 208.256 65.9085 207.911 66.0138C207.565 66.1149 207.176 66.1654 206.742 66.1654C206.114 66.1654 205.583 66.0538 205.15 65.8306C204.716 65.6031 204.387 65.3167 204.164 64.9713C203.941 64.6217 203.829 64.2595 203.829 63.8846H205.428C205.44 64.1499 205.512 64.3627 205.642 64.5227C205.773 64.6828 205.937 64.7986 206.135 64.8702C206.337 64.9376 206.55 64.9713 206.773 64.9713C207.026 64.9713 207.239 64.9376 207.412 64.8702C207.584 64.7986 207.715 64.7038 207.803 64.5859C207.892 64.4637 207.936 64.3247 207.936 64.1689ZM220.282 64.6743V66.0391H215.391V64.6743H220.282ZM215.922 56.8399V66.0391H214.185V56.8399H215.922ZM219.643 60.6371V61.9702H215.391V60.6371H219.643ZM220.263 56.8399V58.2109H215.391V56.8399H220.263ZM222.67 59.2029L223.889 61.3763L225.128 59.2029H226.941L224.932 62.5515L227.023 66.0391H225.21L223.902 63.7582L222.588 66.0391H220.774L222.859 62.5515L220.863 59.2029H222.67ZM230.852 66.1654C230.334 66.1654 229.868 66.0812 229.455 65.9127C229.043 65.7442 228.691 65.5104 228.4 65.2114C228.114 64.9081 227.893 64.5564 227.737 64.1563C227.585 63.7519 227.509 63.3181 227.509 62.8547V62.602C227.509 62.0755 227.585 61.5974 227.737 61.1678C227.889 60.734 228.103 60.3612 228.381 60.0495C228.659 59.7378 228.992 59.4977 229.38 59.3292C229.767 59.1607 230.195 59.0765 230.662 59.0765C231.147 59.0765 231.574 59.1586 231.945 59.3229C232.315 59.483 232.625 59.7104 232.874 60.0053C233.122 60.3001 233.309 60.6539 233.436 61.0667C233.562 61.4753 233.625 61.9281 233.625 62.4251V63.1264H228.268V61.9765H231.983V61.8502C231.974 61.5848 231.924 61.3426 231.831 61.1236C231.738 60.9003 231.595 60.7234 231.401 60.5928C231.208 60.4581 230.957 60.3907 230.65 60.3907C230.401 60.3907 230.184 60.4454 229.999 60.5549C229.818 60.6602 229.666 60.8119 229.544 61.0098C229.426 61.2036 229.337 61.4353 229.279 61.7048C229.22 61.9744 229.19 62.2735 229.19 62.602V62.8547C229.19 63.1412 229.228 63.4065 229.304 63.6508C229.384 63.8951 229.5 64.1078 229.651 64.2889C229.807 64.4659 229.992 64.6049 230.207 64.7059C230.426 64.8028 230.675 64.8513 230.953 64.8513C231.302 64.8513 231.618 64.7839 231.901 64.6491C232.187 64.5101 232.435 64.3058 232.646 64.0362L233.486 64.9081C233.343 65.1187 233.149 65.3209 232.905 65.5147C232.665 65.7084 232.374 65.8664 232.033 65.9885C231.692 66.1065 231.298 66.1654 230.852 66.1654ZM237.549 64.8513C237.785 64.8513 237.995 64.8049 238.181 64.7123C238.366 64.6196 238.513 64.489 238.623 64.3205C238.737 64.1521 238.798 63.9562 238.806 63.733H240.379C240.371 64.1963 240.24 64.6112 239.988 64.9776C239.735 65.3441 239.398 65.6347 238.977 65.8495C238.56 66.0601 238.092 66.1654 237.574 66.1654C237.048 66.1654 236.589 66.077 236.197 65.9001C235.805 65.7232 235.479 65.4768 235.218 65.1608C234.961 64.8449 234.767 64.4785 234.636 64.0615C234.51 63.6445 234.447 63.198 234.447 62.7221V62.5199C234.447 62.0439 234.51 61.5974 234.636 61.1804C234.767 60.7634 234.961 60.397 235.218 60.0811C235.479 59.7652 235.805 59.5188 236.197 59.3419C236.589 59.165 237.046 59.0765 237.568 59.0765C238.12 59.0765 238.604 59.1839 239.021 59.3987C239.442 59.6135 239.771 59.9168 240.007 60.3085C240.247 60.7003 240.371 61.1615 240.379 61.6922H238.806C238.798 61.4479 238.743 61.2289 238.642 61.0351C238.541 60.8414 238.398 60.6855 238.212 60.5676C238.027 60.4496 237.802 60.3907 237.536 60.3907C237.254 60.3907 237.018 60.4496 236.829 60.5676C236.643 60.6855 236.498 60.8477 236.393 61.0541C236.292 61.2563 236.22 61.4837 236.178 61.7364C236.14 61.9849 236.121 62.2461 236.121 62.5199V62.7221C236.121 63 236.14 63.2654 236.178 63.5181C236.22 63.7709 236.292 63.9983 236.393 64.2005C236.498 64.3985 236.643 64.5564 236.829 64.6743C237.018 64.7923 237.258 64.8513 237.549 64.8513ZM245.56 64.4153V59.2029H247.241V66.0391H245.661L245.56 64.4153ZM245.775 63L246.293 62.9874C246.293 63.4465 246.243 63.8698 246.142 64.2574C246.04 64.6449 245.883 64.9818 245.668 65.2683C245.457 65.5505 245.19 65.7716 244.865 65.9317C244.541 66.0875 244.158 66.1654 243.715 66.1654C243.378 66.1654 243.071 66.1191 242.793 66.0264C242.515 65.9295 242.275 65.78 242.073 65.5778C241.875 65.3714 241.721 65.1082 241.611 64.7881C241.502 64.4637 241.447 64.0741 241.447 63.6192V59.2029H243.115V63.6319C243.115 63.8593 243.14 64.0489 243.191 64.2005C243.246 64.3521 243.319 64.4764 243.412 64.5733C243.509 64.6659 243.621 64.7333 243.747 64.7754C243.878 64.8133 244.017 64.8323 244.164 64.8323C244.568 64.8323 244.886 64.7523 245.118 64.5922C245.354 64.4279 245.522 64.2089 245.623 63.9351C245.725 63.6571 245.775 63.3454 245.775 63ZM251.954 59.2029V60.4033H248.037V59.2029H251.954ZM249.086 57.5222H250.76V64.0678C250.76 64.27 250.787 64.4258 250.842 64.5354C250.897 64.6449 250.979 64.7186 251.089 64.7565C251.198 64.7944 251.329 64.8133 251.48 64.8133C251.59 64.8133 251.691 64.807 251.784 64.7944C251.876 64.7818 251.954 64.7691 252.017 64.7565L252.024 66.0075C251.885 66.0538 251.727 66.0917 251.55 66.1212C251.377 66.1507 251.181 66.1654 250.962 66.1654C250.587 66.1654 250.259 66.1022 249.977 65.9759C249.694 65.8453 249.475 65.6368 249.32 65.3504C249.164 65.0598 249.086 64.6765 249.086 64.2005V57.5222ZM254.835 59.2029V66.0391H253.161V59.2029H254.835ZM253.047 57.4148C253.047 57.1663 253.131 56.9599 253.3 56.7957C253.473 56.6314 253.704 56.5493 253.995 56.5493C254.286 56.5493 254.515 56.6314 254.684 56.7957C254.856 56.9599 254.943 57.1663 254.943 57.4148C254.943 57.6591 254.856 57.8634 254.684 58.0277C254.515 58.192 254.286 58.2741 253.995 58.2741C253.704 58.2741 253.473 58.192 253.3 58.0277C253.131 57.8634 253.047 57.6591 253.047 57.4148ZM258.696 64.7754L260.288 59.2029H262.032L259.688 66.0391H258.626L258.696 64.7754ZM257.533 59.2029L259.144 64.7881L259.201 66.0391H258.133L255.783 59.2029H257.533ZM265.892 66.1654C265.374 66.1654 264.908 66.0812 264.496 65.9127C264.083 65.7442 263.731 65.5104 263.441 65.2114C263.154 64.9081 262.933 64.5564 262.777 64.1563C262.626 63.7519 262.55 63.3181 262.55 62.8547V62.602C262.55 62.0755 262.626 61.5974 262.777 61.1678C262.929 60.734 263.144 60.3612 263.422 60.0495C263.7 59.7378 264.032 59.4977 264.42 59.3292C264.807 59.1607 265.235 59.0765 265.702 59.0765C266.187 59.0765 266.614 59.1586 266.985 59.3229C267.356 59.483 267.665 59.7104 267.914 60.0053C268.162 60.3001 268.35 60.6539 268.476 61.0667C268.602 61.4753 268.666 61.9281 268.666 62.4251V63.1264H263.308V61.9765H267.023V61.8502C267.014 61.5848 266.964 61.3426 266.871 61.1236C266.779 60.9003 266.635 60.7234 266.442 60.5928C266.248 60.4581 265.997 60.3907 265.69 60.3907C265.441 60.3907 265.224 60.4454 265.039 60.5549C264.858 60.6602 264.706 60.8119 264.584 61.0098C264.466 61.2036 264.378 61.4353 264.319 61.7048C264.26 61.9744 264.23 62.2735 264.23 62.602V62.8547C264.23 63.1412 264.268 63.4065 264.344 63.6508C264.424 63.8951 264.54 64.1078 264.692 64.2889C264.847 64.4659 265.033 64.6049 265.248 64.7059C265.467 64.8028 265.715 64.8513 265.993 64.8513C266.343 64.8513 266.659 64.7839 266.941 64.6491C267.227 64.5101 267.476 64.3058 267.686 64.0362L268.527 64.9081C268.383 65.1187 268.19 65.3209 267.945 65.5147C267.705 65.7084 267.415 65.8664 267.073 65.9885C266.732 66.1065 266.338 66.1654 265.892 66.1654ZM271.357 64.5354L271.345 65.6916C271.345 66.1423 271.233 66.5993 271.01 67.0626C270.786 67.5259 270.498 67.9092 270.144 68.2125L269.26 67.726C269.373 67.5365 269.479 67.3448 269.575 67.1511C269.677 66.9573 269.757 66.7467 269.816 66.5192C269.879 66.296 269.91 66.0454 269.91 65.7674V64.5354H271.357ZM281.561 63.0127H283.298C283.252 63.6276 283.081 64.1731 282.787 64.6491C282.492 65.1208 282.081 65.4915 281.555 65.7611C281.028 66.0306 280.39 66.1654 279.64 66.1654C279.063 66.1654 278.543 66.0643 278.08 65.8622C277.62 65.6558 277.227 65.363 276.898 64.9839C276.574 64.6006 276.325 64.1415 276.153 63.6066C275.98 63.0674 275.894 62.463 275.894 61.7933V61.092C275.894 60.4223 275.982 59.8178 276.159 59.2787C276.336 58.7395 276.589 58.2804 276.917 57.9013C277.25 57.518 277.648 57.2232 278.111 57.0168C278.579 56.8104 279.101 56.7072 279.678 56.7072C280.428 56.7072 281.062 56.8462 281.58 57.1242C282.098 57.398 282.5 57.775 282.787 58.2551C283.073 58.7353 283.246 59.2871 283.305 59.9105H281.567C281.534 59.523 281.449 59.1944 281.314 58.9249C281.184 58.6553 280.986 58.451 280.721 58.312C280.459 58.1688 280.112 58.0972 279.678 58.0972C279.341 58.0972 279.044 58.1604 278.787 58.2867C278.535 58.4131 278.324 58.6026 278.155 58.8554C277.987 59.1039 277.861 59.4156 277.776 59.7904C277.692 60.1611 277.65 60.5907 277.65 61.0793V61.7933C277.65 62.2608 277.688 62.6799 277.764 63.0506C277.84 63.4213 277.957 63.7351 278.118 63.992C278.278 64.2489 278.484 64.4448 278.737 64.5796C278.989 64.7144 279.291 64.7818 279.64 64.7818C280.066 64.7818 280.411 64.7144 280.676 64.5796C280.946 64.4448 281.15 64.2468 281.289 63.9857C281.432 63.7245 281.523 63.4002 281.561 63.0127ZM284.221 62.6905V62.5578C284.221 62.0565 284.292 61.5953 284.436 61.1741C284.579 60.7487 284.787 60.3801 285.061 60.0684C285.335 59.7568 285.67 59.5146 286.066 59.3419C286.462 59.165 286.912 59.0765 287.418 59.0765C287.932 59.0765 288.387 59.165 288.782 59.3419C289.183 59.5146 289.52 59.7568 289.793 60.0684C290.067 60.3801 290.276 60.7487 290.419 61.1741C290.562 61.5953 290.634 62.0565 290.634 62.5578V62.6905C290.634 63.1875 290.562 63.6487 290.419 64.0741C290.276 64.4953 290.067 64.8639 289.793 65.1798C289.52 65.4915 289.185 65.7337 288.789 65.9064C288.393 66.0791 287.94 66.1654 287.43 66.1654C286.925 66.1654 286.472 66.0791 286.072 65.9064C285.672 65.7337 285.335 65.4915 285.061 65.1798C284.787 64.8639 284.579 64.4953 284.436 64.0741C284.292 63.6487 284.221 63.1875 284.221 62.6905ZM285.889 62.5578V62.6905C285.889 62.9895 285.918 63.2696 285.977 63.5308C286.036 63.7919 286.127 64.0215 286.249 64.2194C286.371 64.4174 286.529 64.5733 286.723 64.687C286.921 64.7965 287.157 64.8513 287.43 64.8513C287.7 64.8513 287.932 64.7965 288.125 64.687C288.319 64.5733 288.477 64.4174 288.599 64.2194C288.726 64.0215 288.818 63.7919 288.877 63.5308C288.936 63.2696 288.966 62.9895 288.966 62.6905V62.5578C288.966 62.2629 288.936 61.987 288.877 61.7301C288.818 61.469 288.726 61.2394 288.599 61.0414C288.477 60.8393 288.317 60.6813 288.119 60.5676C287.925 60.4496 287.692 60.3907 287.418 60.3907C287.148 60.3907 286.917 60.4496 286.723 60.5676C286.529 60.6813 286.371 60.8393 286.249 61.0414C286.127 61.2394 286.036 61.469 285.977 61.7301C285.918 61.987 285.889 62.2629 285.889 62.5578ZM293.508 60.6055V66.0391H291.84V59.2029H293.414L293.508 60.6055ZM293.262 62.3746H292.75C292.75 61.8986 292.807 61.4605 292.921 61.0604C293.039 60.6602 293.212 60.3127 293.439 60.0179C293.666 59.7188 293.947 59.4872 294.279 59.3229C294.616 59.1586 295.006 59.0765 295.448 59.0765C295.756 59.0765 296.038 59.1228 296.295 59.2155C296.552 59.304 296.773 59.4451 296.958 59.6388C297.148 59.8284 297.293 60.0769 297.394 60.3844C297.495 60.6876 297.546 61.052 297.546 61.4774V66.0391H295.878V61.648C295.878 61.3279 295.831 61.0772 295.739 60.8961C295.65 60.715 295.522 60.5886 295.353 60.517C295.185 60.4412 294.983 60.4033 294.747 60.4033C294.486 60.4033 294.26 60.456 294.071 60.5613C293.885 60.6623 293.732 60.8035 293.61 60.9846C293.492 61.1657 293.403 61.3742 293.344 61.6101C293.289 61.8459 293.262 62.1008 293.262 62.3746ZM297.419 62.065L296.731 62.1913C296.735 61.7617 296.794 61.3594 296.908 60.9846C297.021 60.6055 297.188 60.2748 297.407 59.9926C297.63 59.7062 297.906 59.483 298.234 59.3229C298.567 59.1586 298.95 59.0765 299.384 59.0765C299.721 59.0765 300.025 59.1249 300.294 59.2218C300.568 59.3145 300.802 59.464 300.995 59.6704C301.189 59.8726 301.337 60.1358 301.438 60.4602C301.543 60.7845 301.596 61.1804 301.596 61.648V66.0391H299.915V61.6417C299.915 61.3089 299.869 61.0541 299.776 60.8772C299.688 60.7003 299.559 60.5781 299.391 60.5107C299.222 60.4391 299.024 60.4033 298.797 60.4033C298.565 60.4033 298.363 60.4475 298.19 60.536C298.022 60.6202 297.878 60.7382 297.761 60.8898C297.647 61.0414 297.56 61.2183 297.501 61.4205C297.447 61.6185 297.419 61.8333 297.419 62.065ZM304.761 60.517V68.6674H303.087V59.2029H304.635L304.761 60.517ZM309.152 62.5515V62.6841C309.152 63.1812 309.093 63.6424 308.975 64.0678C308.861 64.489 308.693 64.8576 308.47 65.1735C308.247 65.4852 307.969 65.7295 307.636 65.9064C307.307 66.0791 306.928 66.1654 306.498 66.1654C306.077 66.1654 305.711 66.0854 305.399 65.9253C305.087 65.7611 304.824 65.5294 304.609 65.2303C304.395 64.9313 304.222 64.5838 304.091 64.1879C303.965 63.7877 303.87 63.3518 303.807 62.88V62.4567C303.87 61.9555 303.965 61.5006 304.091 61.092C304.222 60.6792 304.395 60.3233 304.609 60.0242C304.824 59.7209 305.085 59.4872 305.393 59.3229C305.705 59.1586 306.069 59.0765 306.486 59.0765C306.92 59.0765 307.301 59.1586 307.629 59.3229C307.962 59.4872 308.242 59.7231 308.47 60.0305C308.697 60.338 308.868 60.7045 308.982 61.1299C309.095 61.5553 309.152 62.0292 309.152 62.5515ZM307.478 62.6841V62.5515C307.478 62.2482 307.45 61.9681 307.396 61.7112C307.341 61.45 307.257 61.2226 307.143 61.0288C307.029 60.8308 306.882 60.6771 306.701 60.5676C306.52 60.4581 306.301 60.4033 306.044 60.4033C305.787 60.4033 305.566 60.4454 305.38 60.5297C305.195 60.6139 305.043 60.734 304.925 60.8898C304.807 61.0456 304.715 61.231 304.647 61.4458C304.584 61.6564 304.542 61.8902 304.521 62.1471V63.1959C304.559 63.5076 304.633 63.7877 304.742 64.0362C304.852 64.2847 305.012 64.4827 305.222 64.6301C305.437 64.7775 305.715 64.8513 306.056 64.8513C306.313 64.8513 306.532 64.7944 306.713 64.6807C306.894 64.5669 307.042 64.4111 307.156 64.2131C307.269 64.0109 307.351 63.7793 307.402 63.5181C307.453 63.257 307.478 62.979 307.478 62.6841ZM314.137 64.5859V61.4332C314.137 61.2015 314.097 61.0014 314.017 60.8329C313.937 60.6645 313.815 60.5339 313.651 60.4412C313.486 60.3485 313.278 60.3022 313.025 60.3022C312.802 60.3022 312.606 60.3401 312.438 60.4159C312.273 60.4918 312.147 60.5992 312.058 60.7382C311.97 60.873 311.926 61.0288 311.926 61.2057H310.251C310.251 60.9235 310.319 60.656 310.454 60.4033C310.588 60.1464 310.78 59.9189 311.029 59.7209C311.281 59.5188 311.582 59.3608 311.932 59.2471C312.286 59.1334 312.682 59.0765 313.12 59.0765C313.638 59.0765 314.099 59.165 314.504 59.3419C314.912 59.5146 315.232 59.7757 315.464 60.1253C315.7 60.4749 315.818 60.9151 315.818 61.4458V64.4279C315.818 64.7691 315.839 65.0619 315.881 65.3062C315.927 65.5462 315.995 65.7547 316.083 65.9317V66.0391H314.384C314.303 65.8664 314.242 65.6473 314.2 65.382C314.158 65.1124 314.137 64.847 314.137 64.5859ZM314.371 61.8754L314.384 62.8674H313.328C313.067 62.8674 312.838 62.8947 312.64 62.9495C312.442 63 312.28 63.0759 312.153 63.177C312.027 63.2738 311.932 63.3918 311.869 63.5308C311.806 63.6656 311.774 63.8193 311.774 63.992C311.774 64.1605 311.812 64.3121 311.888 64.4469C311.968 64.5817 312.082 64.6891 312.229 64.7691C312.381 64.8449 312.558 64.8828 312.76 64.8828C313.055 64.8828 313.312 64.8239 313.531 64.7059C313.75 64.5838 313.92 64.4364 314.042 64.2637C314.164 64.091 314.23 63.9267 314.238 63.7709L314.718 64.4911C314.659 64.6638 314.571 64.847 314.453 65.0408C314.335 65.2346 314.183 65.4157 313.998 65.5842C313.813 65.7526 313.59 65.8916 313.328 66.0012C313.067 66.1107 312.764 66.1654 312.419 66.1654C311.976 66.1654 311.58 66.077 311.231 65.9001C310.881 65.7232 310.605 65.481 310.403 65.1735C310.201 64.866 310.1 64.5164 310.1 64.1247C310.1 63.7624 310.167 63.4423 310.302 63.1643C310.437 62.8863 310.637 62.6526 310.902 62.463C311.168 62.2693 311.496 62.1239 311.888 62.0271C312.284 61.926 312.737 61.8754 313.246 61.8754H314.371ZM318.958 60.6623V66.0391H317.29V59.2029H318.857L318.958 60.6623ZM318.692 62.3746H318.2C318.204 61.8775 318.271 61.4268 318.402 61.0225C318.532 60.6181 318.716 60.2706 318.951 59.98C319.192 59.6894 319.476 59.4661 319.804 59.3103C320.133 59.1544 320.499 59.0765 320.904 59.0765C321.232 59.0765 321.529 59.1228 321.795 59.2155C322.06 59.3082 322.287 59.4556 322.477 59.6578C322.671 59.8599 322.818 60.1253 322.919 60.4538C323.025 60.7782 323.077 61.1783 323.077 61.6543V66.0391H321.397V61.6417C321.397 61.33 321.35 61.0836 321.258 60.9024C321.169 60.7213 321.039 60.5928 320.866 60.517C320.697 60.4412 320.489 60.4033 320.24 60.4033C319.983 60.4033 319.758 60.456 319.564 60.5613C319.375 60.6623 319.215 60.8035 319.084 60.9846C318.958 61.1657 318.861 61.3742 318.794 61.6101C318.726 61.8459 318.692 62.1008 318.692 62.3746ZM326.552 65.2809L328.384 59.2029H330.172L327.43 67.0752C327.367 67.2437 327.285 67.4269 327.184 67.6249C327.087 67.8229 326.957 68.0103 326.792 68.1872C326.628 68.3683 326.422 68.5158 326.173 68.6295C325.929 68.7432 325.632 68.8001 325.282 68.8001C325.131 68.8001 324.996 68.7895 324.878 68.7685C324.76 68.7474 324.636 68.72 324.505 68.6864V67.4354C324.547 67.4396 324.596 67.4417 324.65 67.4417C324.709 67.4459 324.76 67.448 324.802 67.448C325.046 67.448 325.249 67.4185 325.409 67.3595C325.569 67.3048 325.697 67.2142 325.794 67.0879C325.895 66.9657 325.979 66.8057 326.047 66.6077L326.552 65.2809ZM325.649 59.2029L327.197 64.2384L327.468 66.0012L326.318 66.2097L323.848 59.2029H325.649ZM339.713 63.0127H341.45C341.404 63.6276 341.233 64.1731 340.939 64.6491C340.644 65.1208 340.233 65.4915 339.707 65.7611C339.18 66.0306 338.542 66.1654 337.792 66.1654C337.215 66.1654 336.695 66.0643 336.232 65.8622C335.772 65.6558 335.379 65.363 335.05 64.9839C334.726 64.6006 334.477 64.1415 334.305 63.6066C334.132 63.0674 334.045 62.463 334.045 61.7933V61.092C334.045 60.4223 334.134 59.8178 334.311 59.2787C334.488 58.7395 334.74 58.2804 335.069 57.9013C335.402 57.518 335.8 57.2232 336.263 57.0168C336.731 56.8104 337.253 56.7072 337.83 56.7072C338.58 56.7072 339.214 56.8462 339.732 57.1242C340.25 57.398 340.652 57.775 340.939 58.2551C341.225 58.7353 341.398 59.2871 341.457 59.9105H339.719C339.685 59.523 339.601 59.1944 339.466 58.9249C339.336 58.6553 339.138 58.451 338.873 58.312C338.611 58.1688 338.264 58.0972 337.83 58.0972C337.493 58.0972 337.196 58.1604 336.939 58.2867C336.686 58.4131 336.476 58.6026 336.307 58.8554C336.139 59.1039 336.013 59.4156 335.928 59.7904C335.844 60.1611 335.802 60.5907 335.802 61.0793V61.7933C335.802 62.2608 335.84 62.6799 335.916 63.0506C335.991 63.4213 336.109 63.7351 336.269 63.992C336.43 64.2489 336.636 64.4448 336.889 64.5796C337.141 64.7144 337.443 64.7818 337.792 64.7818C338.218 64.7818 338.563 64.7144 338.828 64.5796C339.098 64.4448 339.302 64.2468 339.441 63.9857C339.584 63.7245 339.675 63.4002 339.713 63.0127Z" fill="#5C01CD"/>
<path d="M182.566 80.2271V74.5274H183.627V80.2271C183.627 80.7578 183.518 81.2056 183.301 81.5705C183.083 81.9354 182.783 82.2136 182.4 82.4053C182.02 82.5932 181.583 82.6872 181.089 82.6872C180.596 82.6872 180.157 82.6025 179.774 82.4329C179.39 82.2634 179.09 82.0054 178.873 81.659C178.655 81.3125 178.546 80.8758 178.546 80.3487H179.613C179.613 80.6878 179.676 80.9661 179.801 81.1835C179.927 81.401 180.1 81.5613 180.321 81.6645C180.546 81.7677 180.802 81.8193 181.089 81.8193C181.37 81.8193 181.62 81.7603 181.841 81.6424C182.066 81.5207 182.243 81.342 182.372 81.1061C182.501 80.8666 182.566 80.5736 182.566 80.2271ZM188.94 81.1946V76.595H189.968V82.5767H188.989L188.94 81.1946ZM189.133 79.9341L189.559 79.9231C189.559 80.3211 189.517 80.6897 189.432 81.0287C189.351 81.3641 189.218 81.6553 189.034 81.9022C188.849 82.1491 188.608 82.3426 188.309 82.4827C188.011 82.619 187.648 82.6872 187.22 82.6872C186.929 82.6872 186.662 82.6448 186.419 82.5601C186.179 82.4753 185.973 82.3445 185.8 82.1676C185.626 81.9907 185.492 81.7603 185.396 81.4765C185.304 81.1927 185.258 80.8518 185.258 80.4538V76.595H186.281V80.4648C186.281 80.7339 186.31 80.9569 186.369 81.1338C186.432 81.307 186.515 81.4452 186.618 81.5484C186.725 81.6479 186.843 81.7179 186.972 81.7585C187.104 81.799 187.241 81.8193 187.381 81.8193C187.816 81.8193 188.16 81.7364 188.415 81.5705C188.669 81.401 188.851 81.1743 188.962 80.8905C189.076 80.603 189.133 80.2842 189.133 79.9341ZM192.638 74.0851V82.5767H191.61V74.0851H192.638ZM202.252 81.7364V82.5767H196.983V81.8414L199.62 78.9058C199.945 78.5447 200.195 78.2387 200.372 77.9881C200.553 77.7338 200.678 77.5072 200.748 77.3081C200.822 77.1054 200.859 76.899 200.859 76.689C200.859 76.4236 200.804 76.184 200.693 75.9703C200.586 75.7528 200.428 75.5796 200.218 75.4506C200.007 75.3216 199.753 75.2571 199.455 75.2571C199.097 75.2571 198.799 75.3272 198.559 75.4672C198.323 75.6036 198.146 75.7952 198.028 76.0422C197.91 76.2891 197.851 76.5729 197.851 76.8935H196.829C196.829 76.4402 196.928 76.0256 197.127 75.6496C197.326 75.2737 197.621 74.9752 198.012 74.754C198.402 74.5292 198.883 74.4168 199.455 74.4168C199.963 74.4168 200.398 74.5071 200.759 74.6877C201.121 74.8646 201.397 75.1152 201.589 75.4396C201.784 75.7602 201.882 76.1361 201.882 76.5673C201.882 76.8032 201.841 77.0428 201.76 77.286C201.683 77.5256 201.574 77.7652 201.434 78.0047C201.297 78.2443 201.137 78.4802 200.953 78.7123C200.772 78.9445 200.579 79.173 200.372 79.3979L198.216 81.7364H202.252ZM208.4 77.9107V79.138C208.4 79.7977 208.341 80.3543 208.223 80.8076C208.105 81.2609 207.935 81.6258 207.714 81.9022C207.493 82.1786 207.226 82.3795 206.912 82.5048C206.603 82.6264 206.253 82.6872 205.862 82.6872C205.552 82.6872 205.267 82.6485 205.005 82.5711C204.743 82.4937 204.508 82.3703 204.297 82.2007C204.091 82.0275 203.914 81.8027 203.767 81.5263C203.619 81.2499 203.507 80.9145 203.43 80.5201C203.352 80.1258 203.313 79.6651 203.313 79.138V77.9107C203.313 77.251 203.372 76.6982 203.49 76.2522C203.612 75.8063 203.783 75.4488 204.004 75.1797C204.226 74.907 204.491 74.7117 204.801 74.5937C205.114 74.4758 205.464 74.4168 205.851 74.4168C206.164 74.4168 206.452 74.4555 206.713 74.5329C206.979 74.6066 207.215 74.7264 207.421 74.8923C207.627 75.0544 207.802 75.2719 207.946 75.5446C208.094 75.8136 208.206 76.1435 208.283 76.5342C208.361 76.9248 208.4 77.3837 208.4 77.9107ZM207.371 79.3039V77.7394C207.371 77.3782 207.349 77.0612 207.305 76.7885C207.264 76.5121 207.204 76.2762 207.122 76.0808C207.041 75.8855 206.938 75.727 206.813 75.6054C206.691 75.4838 206.549 75.3953 206.387 75.3401C206.229 75.2811 206.05 75.2516 205.851 75.2516C205.608 75.2516 205.392 75.2977 205.204 75.3898C205.016 75.4783 204.858 75.6202 204.729 75.8155C204.603 76.0108 204.508 76.267 204.441 76.5839C204.375 76.9009 204.342 77.286 204.342 77.7394V79.3039C204.342 79.6651 204.362 79.9839 204.403 80.2603C204.447 80.5367 204.511 80.7763 204.596 80.979C204.681 81.178 204.784 81.342 204.906 81.471C205.027 81.6 205.167 81.6958 205.326 81.7585C205.488 81.8174 205.667 81.8469 205.862 81.8469C206.113 81.8469 206.332 81.799 206.52 81.7032C206.708 81.6074 206.864 81.4581 206.99 81.2554C207.119 81.049 207.215 80.7855 207.277 80.4648C207.34 80.1405 207.371 79.7535 207.371 79.3039ZM214.989 81.7364V82.5767H209.721V81.8414L212.358 78.9058C212.682 78.5447 212.933 78.2387 213.11 77.9881C213.29 77.7338 213.416 77.5072 213.486 77.3081C213.559 77.1054 213.596 76.899 213.596 76.689C213.596 76.4236 213.541 76.184 213.43 75.9703C213.323 75.7528 213.165 75.5796 212.955 75.4506C212.745 75.3216 212.49 75.2571 212.192 75.2571C211.834 75.2571 211.536 75.3272 211.296 75.4672C211.06 75.6036 210.884 75.7952 210.766 76.0422C210.648 76.2891 210.589 76.5729 210.589 76.8935H209.566C209.566 76.4402 209.666 76.0256 209.865 75.6496C210.064 75.2737 210.358 74.9752 210.749 74.754C211.14 74.5292 211.621 74.4168 212.192 74.4168C212.701 74.4168 213.135 74.5071 213.497 74.6877C213.858 74.8646 214.134 75.1152 214.326 75.4396C214.521 75.7602 214.619 76.1361 214.619 76.5673C214.619 76.8032 214.578 77.0428 214.497 77.286C214.42 77.5256 214.311 77.7652 214.171 78.0047C214.035 78.2443 213.874 78.4802 213.69 78.7123C213.51 78.9445 213.316 79.173 213.11 79.3979L210.954 81.7364H214.989ZM219.445 74.4832V82.5767H218.422V75.7602L216.36 76.5121V75.5888L219.285 74.4832H219.445ZM227.5 78.7345V79.5748H224.802V78.7345H227.5ZM236.323 80.017H237.385C237.329 80.5256 237.184 80.9808 236.948 81.3825C236.712 81.7843 236.378 82.1031 235.947 82.3389C235.516 82.5711 234.978 82.6872 234.333 82.6872C233.861 82.6872 233.432 82.5988 233.045 82.4219C232.662 82.245 232.332 81.9943 232.055 81.67C231.779 81.342 231.565 80.9495 231.414 80.4925C231.267 80.0318 231.193 79.5195 231.193 78.9556V78.154C231.193 77.5901 231.267 77.0796 231.414 76.6226C231.565 76.1619 231.781 75.7676 232.061 75.4396C232.345 75.1115 232.686 74.8591 233.084 74.6822C233.482 74.5053 233.929 74.4168 234.427 74.4168C235.035 74.4168 235.549 74.5311 235.969 74.7596C236.39 74.9881 236.716 75.305 236.948 75.7105C237.184 76.1122 237.329 76.5784 237.385 77.1091H236.323C236.272 76.7332 236.176 76.4107 236.036 76.1417C235.896 75.8689 235.697 75.6589 235.439 75.5114C235.181 75.364 234.843 75.2903 234.427 75.2903C234.069 75.2903 233.754 75.3585 233.482 75.4948C233.213 75.6312 232.986 75.8247 232.802 76.0753C232.621 76.3259 232.485 76.6263 232.393 76.9764C232.3 77.3266 232.254 77.7154 232.254 78.1429V78.9556C232.254 79.3499 232.295 79.7203 232.376 80.0668C232.461 80.4132 232.588 80.7173 232.757 80.979C232.927 81.2406 233.143 81.447 233.404 81.5981C233.666 81.7456 233.975 81.8193 234.333 81.8193C234.786 81.8193 235.148 81.7474 235.417 81.6037C235.686 81.4599 235.888 81.2535 236.025 80.9845C236.165 80.7154 236.264 80.393 236.323 80.017ZM242.344 81.1946V76.595H243.372V82.5767H242.393L242.344 81.1946ZM242.537 79.9341L242.963 79.9231C242.963 80.3211 242.92 80.6897 242.836 81.0287C242.755 81.3641 242.622 81.6553 242.438 81.9022C242.253 82.1491 242.012 82.3426 241.713 82.4827C241.415 82.619 241.052 82.6872 240.624 82.6872C240.333 82.6872 240.066 82.6448 239.823 82.5601C239.583 82.4753 239.377 82.3445 239.203 82.1676C239.03 81.9907 238.896 81.7603 238.8 81.4765C238.708 81.1927 238.662 80.8518 238.662 80.4538V76.595H239.684V80.4648C239.684 80.7339 239.714 80.9569 239.773 81.1338C239.836 81.307 239.918 81.4452 240.022 81.5484C240.129 81.6479 240.246 81.7179 240.375 81.7585C240.508 81.799 240.645 81.8193 240.785 81.8193C241.219 81.8193 241.564 81.7364 241.818 81.5705C242.073 81.401 242.255 81.1743 242.366 80.8905C242.48 80.603 242.537 80.2842 242.537 79.9341ZM245.954 77.5348V82.5767H244.931V76.595H245.926L245.954 77.5348ZM247.822 76.5618L247.817 77.5127C247.732 77.4943 247.651 77.4832 247.573 77.4795C247.5 77.4722 247.415 77.4685 247.319 77.4685C247.083 77.4685 246.875 77.5053 246.694 77.579C246.514 77.6527 246.361 77.7559 246.236 77.8886C246.11 78.0213 246.011 78.1798 245.937 78.3641C245.867 78.5447 245.821 78.7437 245.799 78.9611L245.511 79.127C245.511 78.7658 245.546 78.4267 245.616 78.1098C245.69 77.7928 245.802 77.5127 245.954 77.2694C246.105 77.0225 246.296 76.8309 246.529 76.6945C246.764 76.5544 247.045 76.4844 247.369 76.4844C247.443 76.4844 247.527 76.4936 247.623 76.5121C247.719 76.5268 247.785 76.5434 247.822 76.5618ZM249.79 77.5348V82.5767H248.768V76.595H249.763L249.79 77.5348ZM251.659 76.5618L251.653 77.5127C251.569 77.4943 251.487 77.4832 251.41 77.4795C251.336 77.4722 251.252 77.4685 251.156 77.4685C250.92 77.4685 250.712 77.5053 250.531 77.579C250.35 77.6527 250.198 77.7559 250.072 77.8886C249.947 78.0213 249.847 78.1798 249.774 78.3641C249.704 78.5447 249.658 78.7437 249.635 78.9611L249.348 79.127C249.348 78.7658 249.383 78.4267 249.453 78.1098C249.527 77.7928 249.639 77.5127 249.79 77.2694C249.941 77.0225 250.133 76.8309 250.365 76.6945C250.601 76.5544 250.881 76.4844 251.206 76.4844C251.279 76.4844 251.364 76.4936 251.46 76.5121C251.556 76.5268 251.622 76.5434 251.659 76.5618ZM254.976 82.6872C254.559 82.6872 254.182 82.6172 253.843 82.4771C253.507 82.3334 253.218 82.1325 252.975 81.8746C252.735 81.6166 252.551 81.3107 252.422 80.9569C252.293 80.603 252.228 80.2161 252.228 79.7959V79.5637C252.228 79.0772 252.3 78.6442 252.444 78.2645C252.588 77.8812 252.783 77.5569 253.03 77.2916C253.277 77.0262 253.557 76.8253 253.87 76.689C254.183 76.5526 254.508 76.4844 254.843 76.4844C255.271 76.4844 255.639 76.5581 255.949 76.7056C256.262 76.853 256.518 77.0594 256.717 77.3247C256.916 77.5864 257.064 77.896 257.16 78.2535C257.255 78.6073 257.303 78.9943 257.303 79.4144V79.8733H252.836V79.0385H256.281V78.9611C256.266 78.6958 256.211 78.4378 256.115 78.1872C256.023 77.9365 255.875 77.7301 255.672 77.568C255.47 77.4058 255.193 77.3247 254.843 77.3247C254.611 77.3247 254.397 77.3745 254.202 77.474C254.007 77.5698 253.839 77.7136 253.699 77.9052C253.559 78.0969 253.45 78.3309 253.373 78.6073C253.295 78.8837 253.257 79.2025 253.257 79.5637V79.7959C253.257 80.0797 253.295 80.3469 253.373 80.5975C253.454 80.8444 253.57 81.0619 253.721 81.2499C253.876 81.4378 254.062 81.5852 254.279 81.6921C254.5 81.799 254.751 81.8524 255.031 81.8524C255.392 81.8524 255.698 81.7787 255.949 81.6313C256.199 81.4839 256.419 81.2867 256.607 81.0398L257.226 81.5318C257.097 81.7271 256.933 81.9133 256.734 82.0902C256.535 82.2671 256.29 82.4108 255.999 82.5214C255.711 82.6319 255.37 82.6872 254.976 82.6872ZM259.52 77.872V82.5767H258.497V76.595H259.465L259.52 77.872ZM259.277 79.3592L258.851 79.3426C258.855 78.9335 258.916 78.5557 259.034 78.2093C259.152 77.8591 259.317 77.5551 259.531 77.2971C259.745 77.0391 259.999 76.8401 260.294 76.7C260.593 76.5563 260.923 76.4844 261.284 76.4844C261.579 76.4844 261.844 76.525 262.08 76.606C262.316 76.6834 262.517 76.8087 262.682 76.982C262.852 77.1552 262.981 77.38 263.069 77.6564C263.158 77.9292 263.202 78.2627 263.202 78.6571V82.5767H262.174V78.646C262.174 78.3327 262.128 78.0821 262.036 77.8941C261.943 77.7025 261.809 77.5643 261.632 77.4795C261.455 77.3911 261.238 77.3468 260.98 77.3468C260.725 77.3468 260.493 77.4003 260.283 77.5072C260.077 77.614 259.898 77.7615 259.747 77.9494C259.599 78.1374 259.483 78.353 259.399 78.5962C259.317 78.8358 259.277 79.0901 259.277 79.3592ZM267.26 76.595V77.38H264.026V76.595H267.26ZM265.12 75.141H266.143V81.0951C266.143 81.2978 266.174 81.4507 266.237 81.5539C266.3 81.6571 266.381 81.7253 266.48 81.7585C266.58 81.7916 266.687 81.8082 266.801 81.8082C266.886 81.8082 266.974 81.8008 267.066 81.7861C267.162 81.7677 267.234 81.7529 267.282 81.7419L267.287 82.5767C267.206 82.6025 267.1 82.6264 266.967 82.6485C266.838 82.6743 266.681 82.6872 266.497 82.6872C266.246 82.6872 266.016 82.6375 265.806 82.538C265.596 82.4385 265.428 82.2726 265.303 82.0404C265.181 81.8045 265.12 81.4876 265.12 81.0895V75.141Z" fill="#5C01CD"/>
<path d="M165.37 106.219C167.31 106.219 168.884 104.649 168.884 102.712C168.884 100.775 167.31 99.2053 165.37 99.2053C163.43 99.2053 161.857 100.775 161.857 102.712C161.857 104.649 163.43 106.219 165.37 106.219Z" fill="#8E33FF"/>
<path d="M180.694 102.712H335.951" stroke="#8E33FF" stroke-width="1.40875" stroke-miterlimit="10"/>
<path d="M180.694 119.246H315.801" stroke="#8E33FF" stroke-width="1.40875" stroke-miterlimit="10"/>
<path d="M165.37 147.129C167.31 147.129 168.884 145.559 168.884 143.623C168.884 141.686 167.31 140.116 165.37 140.116C163.43 140.116 161.857 141.686 161.857 143.623C161.857 145.559 163.43 147.129 165.37 147.129Z" fill="#8E33FF"/>
<path d="M180.694 143.623H335.951" stroke="#8E33FF" stroke-width="1.40875" stroke-miterlimit="10"/>
<path d="M180.694 160.171H315.801" stroke="#8E33FF" stroke-width="1.40875" stroke-miterlimit="10"/>
<path d="M106.191 71.3069C112.88 67.1102 131.943 80.0243 114.742 98.4448C97.5417 116.865 82.3166 97.5435 82.3166 97.5435C82.3166 97.5435 77.0534 90.0654 84.2638 88.6994C91.4742 87.3333 95.2135 100.177 88.1159 109.373C81.0043 118.569 58.7945 125.667 58.5829 138.595" stroke="#4B4065" stroke-width="1.39466" stroke-miterlimit="10"/>
<path d="M174.81 4.20203V11.1449" stroke="black" stroke-width="1.40875" stroke-miterlimit="10" stroke-linecap="round"/>
<path d="M174.81 25.1713V18.2284" stroke="black" stroke-width="1.40875" stroke-miterlimit="10" stroke-linecap="round"/>
<path d="M164.397 14.9899H171.339" stroke="black" stroke-width="1.40875" stroke-miterlimit="10" stroke-linecap="round"/>
<path d="M185.393 14.9899H178.451" stroke="black" stroke-width="1.40875" stroke-miterlimit="10" stroke-linecap="round"/>
<path d="M330.504 172.535H293.281C284.763 172.535 277.858 179.426 277.858 187.928V225.078C277.858 233.58 284.763 240.471 293.281 240.471H330.504C339.022 240.471 345.927 233.58 345.927 225.078V187.928C345.927 179.426 339.022 172.535 330.504 172.535Z" fill="#DDEEFF"/>
<path d="M319.597 195.66V190.59H304.16V195.66H295.92V204.166H306.672V201.688H317.071V204.166H327.823V195.66H319.583H319.597ZM305.825 192.238H317.946V195.66H305.825V192.238Z" fill="#3D50FF"/>
<path d="M317.085 207.94H306.686V205.546H295.934V218.826H327.837V205.546H317.085V207.94Z" fill="#3D50FF"/>
<path d="M339.845 251.034C347.537 251.034 353.772 244.811 353.772 237.134C353.772 229.457 347.537 223.234 339.845 223.234C332.154 223.234 325.918 229.457 325.918 237.134C325.918 244.811 332.154 251.034 339.845 251.034Z" fill="#3D50FF"/>
<path d="M339.845 230.698V243.57" stroke="white" stroke-width="1.40875" stroke-miterlimit="10"/>
<path d="M333.396 237.134H346.293" stroke="white" stroke-width="1.40875" stroke-miterlimit="10"/>
<path d="M67.162 274.652C67.162 274.652 73.5822 228.023 83.8122 212.799C94.0423 197.576 134.581 199.646 147.591 199.646C160.601 199.646 183.7 197.702 203.257 210.926C215.702 219.334 219.145 264.287 219.836 273.638C219.836 273.638 216.746 282.271 197.344 281.581C177.929 280.891 164.072 276.525 152.276 279.848C140.494 283.172 66.2871 288.481 67.162 274.652Z" fill="#AEB0F9"/>
<path d="M135.004 180.422L137.728 158.241C137.728 158.241 140.606 157.889 140.126 151.157C140.126 151.157 137.008 144.904 143.188 141.975C149.355 139.046 152.628 134.553 152.628 134.553C152.628 134.553 166.061 144.609 175.304 134.258C184.546 123.907 181.583 111.964 177.35 110.584C172.623 109.021 159.923 109.528 152.967 116.584C152.967 116.584 136.627 112.162 124.45 131.68L122.375 135.018C122.375 135.018 116.11 135.919 112.823 142.384C109.535 148.848 111.92 162.691 117.62 170.493C123.321 178.295 135.018 180.436 135.018 180.436L135.004 180.422Z" fill="#F55E3D"/>
<path d="M161.293 199.448L160.164 187.407C177.407 187.013 177.506 176.887 177.407 169.606C177.308 162.326 176.885 160.326 175.699 153.58C175.022 150.116 174.119 146.581 172.708 143.3C172.341 142.384 171.918 141.497 171.452 140.638C171.001 139.807 170.521 139.004 169.985 138.216C167.064 133.625 162.323 130.357 156.82 129.174C116.323 121.865 132.084 176.887 132.014 176.817L130.349 199.8C130.349 199.8 134.624 207.335 147.888 206.335C161.152 205.335 161.307 199.434 161.307 199.434" fill="#FBD7AD"/>
<path d="M135.004 159.706C133.128 157.903 130.898 156.579 128.598 155.607C126.157 154.636 123.434 154.847 121.204 156.368C118.904 158.241 118.142 161.508 119.328 164.226C120.584 166.944 123.236 168.747 126.157 168.958C129.078 169.169 132.084 168.338 134.384 166.451" fill="#FBD7AD"/>
<path d="M161.349 155.115C160.375 151.988 157.793 150.242 154.59 149.763C151.246 149.341 147.972 150.735 145.954 153.453C147.139 156.101 150.272 157.551 153.207 157.762C156.198 157.903 159.063 157.002 161.363 155.115H161.349Z" fill="white"/>
<path d="M160.869 154.566C160.869 154.707 160.728 154.707 160.728 154.777C160.305 155.608 156.819 157.425 154.519 155.749C152.911 154.566 151.867 150.876 152.29 149.623C154.096 149.06 156.198 149.975 157.793 150.876C158.484 151.299 161.278 153.383 160.855 154.566H160.869Z" fill="#B9C6E4"/>
<path d="M160.925 155.186C160.304 153.312 159.048 151.707 157.228 150.665C155.831 149.904 154.166 149.693 152.699 150.045C151.231 150.256 149.834 150.806 148.592 151.51C147.619 152.073 146.786 152.763 146.292 153.594C146.081 154.017 145.319 153.594 145.53 153.172C146.575 151.369 148.804 150.313 150.695 149.693C153.206 148.721 156.057 148.933 158.286 150.454C159.895 151.637 161.01 153.172 161.63 154.974C161.913 155.538 161.137 155.735 160.939 155.186H160.925Z" fill="#4B4065"/>
<path d="M167.021 154.679C168.502 157.552 169.18 158.523 169.18 158.523L171.099 160.593C171.579 160.988 171.974 161.551 172.058 162.03C172.298 162.903 171.903 163.861 171.183 164.424C170.548 165.058 169.744 165.537 169.025 165.776" stroke="#4B4065" stroke-width="0.9016" stroke-linecap="round" stroke-linejoin="round"/>
<path d="M159.246 169.677C160.502 171.353 162.11 172.733 163.987 173.648C165.793 174.409 168.333 175.268 171.155 174.141" stroke="#F55E3D" stroke-width="1.05656" stroke-linecap="round" stroke-linejoin="round"/>
<path d="M173.611 145.314C174.232 147.539 174.867 149.764 175.29 152.06V152.271C173.822 152.482 172.228 152.06 170.972 151.299C171.043 149.004 172.016 146.92 173.625 145.314H173.611Z" fill="white"/>
<path d="M174.105 152.129C173.343 151.299 172.849 150.256 172.849 149.073C172.637 147.89 172.708 146.637 173.272 145.595C173.413 145.595 173.625 145.384 173.695 145.384C174.528 147.609 175.163 149.904 175.502 152.2C174.937 152.341 174.528 152.27 174.105 152.129Z" fill="#B9C6E4"/>
<path d="M173.681 145.524C172.213 146.778 171.381 148.792 171.381 150.805C171.381 151.017 171.169 151.157 170.958 151.157C170.746 151.157 170.605 150.946 170.605 150.805C170.464 148.58 171.437 146.496 173.116 145.031C173.258 144.891 173.54 144.891 173.681 145.031C173.822 145.102 173.822 145.383 173.681 145.524Z" fill="#4B4065"/>
<path d="M160.911 121.697C155.958 118.219 149.298 124.725 143.23 124.866C139.745 124.866 136.26 125.837 133.339 127.584C125.607 132.456 122.404 138.301 122.051 144.342C121.698 149.835 123.857 154.215 129.021 156.031C129.642 156.243 130.418 156.454 131.039 156.454C135.921 156.806 132.464 147.596 133.861 142.934C133.861 142.934 145.502 143.554 154.237 135.611C154.237 135.611 161.659 139.991 169.998 138.23C169.998 138.23 170.845 127.809 168.502 125.978C166.16 124.147 160.911 121.711 160.911 121.711V121.697Z" fill="#F55E3D"/>
<path d="M158.386 143.623C158.386 143.623 154.999 142.679 150.357 142.961C145.715 143.243 143.5 146.566 143.5 146.566C143.5 146.566 147.45 145.735 150.287 145.707C153.123 145.679 157.977 146.51 158.598 146.2C159.218 145.89 159.839 144.158 158.386 143.637V143.623Z" fill="#F55E3D"/>
<path d="M172.707 143.299C170.605 144.116 168.615 144.975 168.164 144.89C167.486 144.764 166.4 143.271 167.67 142.369C167.67 142.369 169.081 141.51 171.452 140.637C171.917 141.496 172.34 142.383 172.707 143.299Z" fill="#F55E3D"/>
<path opacity="0.3" d="M160.163 187.406C160.163 187.406 153.729 187.519 144.374 183.97C144.374 183.97 146.49 197.8 161.306 199.447L160.177 187.406H160.163Z" fill="#F27932"/>
<path d="M125.367 202.208C125.367 202.208 131.435 211.756 147.323 211.784C164.115 211.827 167.092 200.138 167.092 200.138" stroke="#4B4065" stroke-width="1.05656" stroke-miterlimit="10"/>
<path d="M106.008 269.496L104.893 283.678" stroke="#4B4065" stroke-width="1.05656" stroke-miterlimit="10"/>
<path d="M378.564 110.374C378.973 109.895 378.917 109.121 378.437 108.712C378.296 108.557 378.084 108.459 377.859 108.459L364.891 106.529L351.571 104.572C350.95 104.487 350.329 104.924 350.301 105.543C350.259 105.712 350.301 105.825 350.301 106.008L353.998 118.936L357.596 131.555C357.737 132.174 358.4 132.555 359.035 132.357C359.275 132.301 359.43 132.16 359.586 132.019L363.932 127.119L379.778 141.089L390.163 129.301L374.218 115.303L378.578 110.346L378.564 110.374Z" fill="white" stroke="#8E33FF" stroke-width="0.859338" stroke-miterlimit="10"/>
</svg>
