<svg width="412" height="326" viewBox="0 0 412 326" fill="none" xmlns="http://www.w3.org/2000/svg">
<path d="M68.7176 283.76C68.7176 283.76 80.6374 310.133 129.756 310.133C171.692 310.133 184.706 298.57 205.839 275.041C226.972 251.512 239.511 219.996 269.613 209.338C299.715 198.679 329.644 193.091 327.945 155.026C326.246 116.96 286.154 35.9729 222.898 37.3662C148.917 38.9894 153.798 17.4714 97.4951 17.4714C12.3431 17.4714 14.7904 85.6883 22.1036 115.868C29.4167 146.048 58.6836 163.199 61.9371 190.319C65.1906 217.439 47.8435 241.04 68.7176 283.746V283.76Z" fill="#3D50FF" fill-opacity="0.04"/>
<path d="M280.499 49.2852H80.8514V168.019H280.499V49.2852Z" fill="white" stroke="#8E33FF" stroke-width="0.704947" stroke-miterlimit="10"/>
<path d="M107.774 70.6417H105.422L105.409 69.415H107.427C107.772 69.415 108.061 69.3665 108.293 69.2696C108.525 69.1726 108.7 69.0314 108.818 68.8459C108.94 68.6604 109.001 68.4349 109.001 68.1693C109.001 67.8742 108.944 67.6339 108.83 67.4485C108.721 67.263 108.548 67.1281 108.312 67.0438C108.076 66.9552 107.776 66.911 107.414 66.911H105.985V74.7455H104.246V65.5388H107.414C107.937 65.5388 108.402 65.5894 108.811 65.6906C109.224 65.7876 109.574 65.9393 109.861 66.1459C110.148 66.3524 110.365 66.6117 110.512 66.9236C110.664 67.2356 110.74 67.6065 110.74 68.0365C110.74 68.4159 110.651 68.7658 110.474 69.0862C110.302 69.4023 110.034 69.6595 109.671 69.8576C109.313 70.0557 108.858 70.1696 108.306 70.1991L107.774 70.6417ZM107.698 74.7455H104.91L105.637 73.3797H107.698C108.044 73.3797 108.329 73.3228 108.552 73.2089C108.78 73.0951 108.948 72.9391 109.058 72.741C109.172 72.5387 109.229 72.3068 109.229 72.0455C109.229 71.7588 109.178 71.5101 109.077 71.2993C108.98 71.0885 108.824 70.9262 108.609 70.8124C108.398 70.6986 108.12 70.6417 107.774 70.6417H105.966L105.979 69.415H108.28L108.679 69.8892C109.21 69.8934 109.642 69.9988 109.975 70.2054C110.312 70.412 110.561 70.6775 110.721 71.0021C110.881 71.3267 110.961 71.6766 110.961 72.0518C110.961 72.642 110.833 73.1373 110.576 73.5377C110.323 73.9382 109.952 74.2396 109.463 74.442C108.978 74.6443 108.39 74.7455 107.698 74.7455ZM116.108 73.2911V70.1358C116.108 69.904 116.068 69.7037 115.988 69.5351C115.908 69.3665 115.786 69.2358 115.622 69.1431C115.457 69.0503 115.248 69.004 114.996 69.004C114.772 69.004 114.576 69.0419 114.407 69.1178C114.243 69.1937 114.117 69.3012 114.028 69.4403C113.94 69.5752 113.895 69.7311 113.895 69.9082H112.22C112.22 69.6258 112.287 69.3581 112.422 69.1051C112.557 68.848 112.749 68.6204 112.997 68.4222C113.25 68.2199 113.552 68.0618 113.902 67.948C114.256 67.8342 114.652 67.7773 115.09 67.7773C115.609 67.7773 116.07 67.8658 116.475 68.0428C116.884 68.2157 117.204 68.477 117.436 68.8269C117.672 69.1768 117.79 69.6173 117.79 70.1485V73.1331C117.79 73.4745 117.811 73.7675 117.854 74.012C117.9 74.2523 117.967 74.4609 118.056 74.638V74.7455H116.355C116.275 74.5726 116.214 74.3534 116.172 74.0879C116.129 73.8181 116.108 73.5525 116.108 73.2911ZM116.342 70.5785L116.355 71.5712H115.299C115.038 71.5712 114.808 71.5986 114.61 71.6534C114.412 71.704 114.249 71.7799 114.123 71.8811C113.996 71.978 113.902 72.096 113.838 72.2352C113.775 72.3701 113.744 72.5239 113.744 72.6968C113.744 72.8654 113.781 73.0171 113.857 73.152C113.937 73.2869 114.051 73.3944 114.199 73.4745C114.351 73.5504 114.528 73.5883 114.73 73.5883C115.025 73.5883 115.282 73.5293 115.501 73.4113C115.721 73.289 115.891 73.1415 116.014 72.9687C116.136 72.7958 116.201 72.6314 116.21 72.4754L116.69 73.1963C116.631 73.3691 116.543 73.5525 116.425 73.7464C116.307 73.9403 116.155 74.1216 115.969 74.2902C115.784 74.4588 115.56 74.5979 115.299 74.7075C115.038 74.8171 114.734 74.8719 114.388 74.8719C113.946 74.8719 113.55 74.7834 113.2 74.6064C112.85 74.4293 112.574 74.1869 112.371 73.8792C112.169 73.5715 112.068 73.2216 112.068 72.8295C112.068 72.467 112.135 72.1466 112.27 71.8684C112.405 71.5902 112.605 71.3562 112.871 71.1665C113.136 70.9726 113.465 70.8272 113.857 70.7302C114.254 70.6291 114.707 70.5785 115.217 70.5785H116.342ZM122.103 73.5567C122.339 73.5567 122.55 73.5103 122.735 73.4176C122.921 73.3249 123.068 73.1942 123.178 73.0256C123.292 72.8569 123.353 72.6609 123.361 72.4375H124.936C124.927 72.9012 124.797 73.3164 124.544 73.6832C124.291 74.0499 123.953 74.3408 123.532 74.5558C123.115 74.7666 122.647 74.8719 122.128 74.8719C121.601 74.8719 121.142 74.7834 120.75 74.6064C120.358 74.4293 120.031 74.1827 119.77 73.8666C119.512 73.5504 119.319 73.1836 119.188 72.7663C119.061 72.349 118.998 71.9021 118.998 71.4258V71.2234C118.998 70.7471 119.061 70.3002 119.188 69.8829C119.319 69.4656 119.512 69.0988 119.77 68.7827C120.031 68.4665 120.358 68.2199 120.75 68.0428C121.142 67.8658 121.599 67.7773 122.122 67.7773C122.674 67.7773 123.159 67.8848 123.576 68.0998C123.998 68.3147 124.327 68.6183 124.563 69.0103C124.803 69.4023 124.927 69.8639 124.936 70.3951H123.361C123.353 70.1506 123.298 69.9314 123.197 69.7375C123.096 69.5436 122.952 69.3876 122.767 69.2696C122.581 69.1515 122.356 69.0925 122.09 69.0925C121.808 69.0925 121.572 69.1515 121.382 69.2696C121.197 69.3876 121.051 69.5499 120.946 69.7564C120.845 69.9588 120.773 70.1864 120.731 70.4394C120.693 70.6881 120.674 70.9494 120.674 71.2234V71.4258C120.674 71.704 120.693 71.9696 120.731 72.2225C120.773 72.4754 120.845 72.7031 120.946 72.9054C121.051 73.1035 121.197 73.2616 121.382 73.3797C121.572 73.4977 121.812 73.5567 122.103 73.5567ZM127.686 65.033V74.7455H126.011V65.033H127.686ZM127.421 71.078H126.927C126.927 70.6016 126.991 70.1632 127.117 69.7628C127.244 69.3623 127.423 69.0145 127.655 68.7194C127.887 68.4201 128.163 68.1883 128.483 68.0239C128.808 67.8595 129.166 67.7773 129.558 67.7773C129.895 67.7773 130.201 67.8257 130.475 67.9227C130.753 68.0154 130.991 68.1651 131.189 68.3717C131.387 68.5782 131.539 68.848 131.645 69.181C131.754 69.5098 131.809 69.9103 131.809 70.3824V74.7455H130.127V70.3698C130.127 70.0536 130.081 69.8049 129.988 69.6237C129.895 69.4382 129.762 69.3054 129.59 69.2253C129.421 69.1452 129.212 69.1051 128.964 69.1051C128.694 69.1051 128.462 69.1578 128.268 69.2632C128.074 69.3644 127.914 69.5056 127.787 69.6869C127.665 69.8682 127.572 70.0768 127.509 70.3129C127.45 70.549 127.421 70.804 127.421 71.078ZM136.355 74.8719C135.837 74.8719 135.371 74.7876 134.958 74.619C134.545 74.4504 134.193 74.2164 133.902 73.9171C133.615 73.6136 133.394 73.2616 133.238 72.8612C133.086 72.4565 133.01 72.0223 133.01 71.5586V71.3056C133.01 70.7787 133.086 70.3002 133.238 69.8703C133.39 69.4361 133.605 69.063 133.883 68.751C134.161 68.4391 134.494 68.1988 134.882 68.0302C135.27 67.8616 135.698 67.7773 136.166 67.7773C136.651 67.7773 137.078 67.8595 137.449 68.0239C137.82 68.1841 138.13 68.4117 138.379 68.7068C138.628 69.0019 138.815 69.356 138.942 69.7691C139.068 70.178 139.131 70.6312 139.131 71.1286V71.8305H133.769V70.6796H137.487V70.5532C137.479 70.2876 137.428 70.0452 137.336 69.826C137.243 69.6026 137.099 69.4255 136.906 69.2948C136.712 69.1599 136.461 69.0925 136.153 69.0925C135.904 69.0925 135.687 69.1473 135.502 69.2569C135.321 69.3623 135.169 69.5141 135.047 69.7122C134.928 69.9061 134.84 70.1379 134.781 70.4077C134.722 70.6775 134.692 70.9768 134.692 71.3056V71.5586C134.692 71.8452 134.73 72.1108 134.806 72.3553C134.886 72.5998 135.002 72.8127 135.154 72.9939C135.31 73.171 135.495 73.3101 135.71 73.4113C135.93 73.5082 136.178 73.5567 136.457 73.5567C136.806 73.5567 137.123 73.4893 137.405 73.3544C137.692 73.2153 137.94 73.0108 138.151 72.741L138.992 73.6136C138.849 73.8244 138.655 74.0267 138.41 74.2207C138.17 74.4146 137.879 74.5726 137.538 74.6949C137.196 74.8129 136.802 74.8719 136.355 74.8719ZM142.021 65.033V74.7455H140.345V65.033H142.021ZM143.317 71.3942V71.2614C143.317 70.7597 143.389 70.2981 143.532 69.8766C143.676 69.4508 143.884 69.082 144.158 68.77C144.432 68.4581 144.767 68.2157 145.164 68.0428C145.56 67.8658 146.011 67.7773 146.517 67.7773C147.031 67.7773 147.486 67.8658 147.883 68.0428C148.283 68.2157 148.62 68.4581 148.894 68.77C149.168 69.082 149.377 69.4508 149.52 69.8766C149.664 70.2981 149.735 70.7597 149.735 71.2614V71.3942C149.735 71.8916 149.664 72.3532 149.52 72.779C149.377 73.2005 149.168 73.5694 148.894 73.8855C148.62 74.1975 148.285 74.4399 147.889 74.6127C147.493 74.7855 147.04 74.8719 146.53 74.8719C146.024 74.8719 145.571 74.7855 145.17 74.6127C144.77 74.4399 144.432 74.1975 144.158 73.8855C143.884 73.5694 143.676 73.2005 143.532 72.779C143.389 72.3532 143.317 71.8916 143.317 71.3942ZM144.987 71.2614V71.3942C144.987 71.6935 145.016 71.9738 145.075 72.2352C145.134 72.4965 145.225 72.7263 145.347 72.9244C145.469 73.1225 145.627 73.2785 145.821 73.3923C146.019 73.5019 146.256 73.5567 146.53 73.5567C146.799 73.5567 147.031 73.5019 147.225 73.3923C147.419 73.2785 147.577 73.1225 147.699 72.9244C147.826 72.7263 147.919 72.4965 147.978 72.2352C148.037 71.9738 148.066 71.6935 148.066 71.3942V71.2614C148.066 70.9663 148.037 70.6902 147.978 70.433C147.919 70.1717 147.826 69.9419 147.699 69.7438C147.577 69.5415 147.417 69.3834 147.219 69.2696C147.025 69.1515 146.791 69.0925 146.517 69.0925C146.247 69.0925 146.015 69.1515 145.821 69.2696C145.627 69.3834 145.469 69.5415 145.347 69.7438C145.225 69.9419 145.134 70.1717 145.075 70.433C145.016 70.6902 144.987 70.9663 144.987 71.2614ZM152.619 69.3012V74.7455H150.949V67.9037H152.53L152.619 69.3012ZM154.699 67.8595L154.674 69.415C154.581 69.3981 154.476 69.3855 154.358 69.377C154.244 69.3686 154.136 69.3644 154.035 69.3644C153.778 69.3644 153.553 69.4002 153.359 69.4719C153.165 69.5393 153.002 69.6384 152.872 69.7691C152.745 69.8998 152.648 70.06 152.581 70.2497C152.513 70.4351 152.476 70.6459 152.467 70.882L152.107 70.8377C152.107 70.4035 152.151 70.0009 152.239 69.63C152.328 69.259 152.457 68.9344 152.625 68.6562C152.794 68.378 153.005 68.163 153.257 68.0112C153.515 67.8553 153.81 67.7773 154.143 67.7773C154.235 67.7773 154.335 67.7857 154.44 67.8026C154.55 67.8152 154.636 67.8342 154.699 67.8595ZM158.544 71.3942V71.2614C158.544 70.7597 158.615 70.2981 158.759 69.8766C158.902 69.4508 159.111 69.082 159.385 68.77C159.659 68.4581 159.994 68.2157 160.39 68.0428C160.786 67.8658 161.237 67.7773 161.743 67.7773C162.258 67.7773 162.713 67.8658 163.109 68.0428C163.51 68.2157 163.847 68.4581 164.121 68.77C164.395 69.082 164.603 69.4508 164.747 69.8766C164.89 70.2981 164.962 70.7597 164.962 71.2614V71.3942C164.962 71.8916 164.89 72.3532 164.747 72.779C164.603 73.2005 164.395 73.5694 164.121 73.8855C163.847 74.1975 163.512 74.4399 163.115 74.6127C162.719 74.7855 162.266 74.8719 161.756 74.8719C161.25 74.8719 160.797 74.7855 160.396 74.6127C159.996 74.4399 159.659 74.1975 159.385 73.8855C159.111 73.5694 158.902 73.2005 158.759 72.779C158.615 72.3532 158.544 71.8916 158.544 71.3942ZM160.213 71.2614V71.3942C160.213 71.6935 160.243 71.9738 160.302 72.2352C160.361 72.4965 160.451 72.7263 160.573 72.9244C160.696 73.1225 160.854 73.2785 161.048 73.3923C161.246 73.5019 161.482 73.5567 161.756 73.5567C162.026 73.5567 162.258 73.5019 162.451 73.3923C162.645 73.2785 162.803 73.1225 162.926 72.9244C163.052 72.7263 163.145 72.4965 163.204 72.2352C163.263 71.9738 163.292 71.6935 163.292 71.3942V71.2614C163.292 70.9663 163.263 70.6902 163.204 70.433C163.145 70.1717 163.052 69.9419 162.926 69.7438C162.803 69.5415 162.643 69.3834 162.445 69.2696C162.251 69.1515 162.017 69.0925 161.743 69.0925C161.473 69.0925 161.242 69.1515 161.048 69.2696C160.854 69.3834 160.696 69.5415 160.573 69.7438C160.451 69.9419 160.361 70.1717 160.302 70.433C160.243 70.6902 160.213 70.9663 160.213 71.2614ZM168.364 74.7455H166.682V67.2714C166.682 66.7571 166.781 66.325 166.979 65.9751C167.177 65.621 167.459 65.3534 167.826 65.1721C168.193 64.9908 168.625 64.9002 169.122 64.9002C169.287 64.9002 169.443 64.9107 169.59 64.9318C169.742 64.9529 169.892 64.9824 170.039 65.0203L170.008 66.2913C169.928 66.2702 169.839 66.2555 169.742 66.247C169.649 66.2386 169.546 66.2344 169.432 66.2344C169.205 66.2344 169.011 66.2744 168.851 66.3545C168.69 66.4346 168.568 66.5527 168.484 66.7086C168.404 66.8604 168.364 67.048 168.364 67.2714V74.7455ZM169.749 67.9037V69.1051H165.651V67.9037H169.749ZM177.792 66.9363L175.168 74.7455H173.327L176.767 65.5388H177.943L177.792 66.9363ZM179.986 74.7455L177.349 66.9363L177.191 65.5388H178.373L181.832 74.7455H179.986ZM179.866 71.3246V72.6968H174.927V71.3246H179.866ZM184.324 69.3012V74.7455H182.654V67.9037H184.235L184.324 69.3012ZM186.404 67.8595L186.379 69.415C186.286 69.3981 186.181 69.3855 186.062 69.377C185.949 69.3686 185.841 69.3644 185.74 69.3644C185.483 69.3644 185.257 69.4002 185.063 69.4719C184.869 69.5393 184.707 69.6384 184.577 69.7691C184.45 69.8998 184.353 70.06 184.286 70.2497C184.218 70.4351 184.18 70.6459 184.172 70.882L183.811 70.8377C183.811 70.4035 183.856 70.0009 183.944 69.63C184.033 69.259 184.161 68.9344 184.33 68.6562C184.499 68.378 184.709 68.163 184.962 68.0112C185.219 67.8553 185.514 67.7773 185.847 67.7773C185.94 67.7773 186.039 67.7857 186.145 67.8026C186.254 67.8152 186.341 67.8342 186.404 67.8595ZM190.874 67.9037V69.1051H186.954V67.9037H190.874ZM188.004 66.2217H189.679V72.7726C189.679 72.975 189.707 73.1309 189.762 73.2406C189.816 73.3502 189.899 73.4239 190.008 73.4619C190.118 73.4998 190.248 73.5188 190.4 73.5188C190.51 73.5188 190.611 73.5125 190.704 73.4998C190.796 73.4872 190.874 73.4745 190.938 73.4619L190.944 74.7139C190.805 74.7602 190.647 74.7982 190.47 74.8277C190.297 74.8572 190.101 74.8719 189.882 74.8719C189.507 74.8719 189.178 74.8087 188.895 74.6823C188.613 74.5516 188.394 74.3429 188.238 74.0562C188.082 73.7654 188.004 73.3818 188.004 72.9054V66.2217ZM195.75 72.8738C195.75 72.7305 195.712 72.6019 195.636 72.4881C195.56 72.3743 195.417 72.271 195.206 72.1782C194.999 72.0813 194.696 71.9907 194.295 71.9063C193.941 71.8305 193.615 71.7356 193.315 71.6218C193.016 71.508 192.759 71.371 192.544 71.2108C192.329 71.0464 192.16 70.8546 192.038 70.6354C191.92 70.412 191.861 70.1548 191.861 69.8639C191.861 69.5815 191.922 69.3159 192.044 69.0672C192.167 68.8143 192.344 68.593 192.575 68.4033C192.807 68.2094 193.09 68.0576 193.423 67.948C193.756 67.8342 194.131 67.7773 194.548 67.7773C195.13 67.7773 195.63 67.8721 196.047 68.0618C196.468 68.2515 196.791 68.5129 197.014 68.8459C197.238 69.1747 197.349 69.5457 197.349 69.9588H195.68C195.68 69.7775 195.638 69.6131 195.554 69.4656C195.474 69.318 195.349 69.2 195.181 69.1115C195.012 69.0187 194.799 68.9724 194.542 68.9724C194.31 68.9724 194.114 69.0103 193.954 69.0862C193.798 69.1621 193.68 69.2611 193.6 69.3834C193.52 69.5056 193.48 69.6405 193.48 69.7881C193.48 69.8977 193.501 69.9967 193.543 70.0853C193.589 70.1696 193.663 70.2475 193.764 70.3192C193.865 70.3909 194.002 70.4562 194.175 70.5152C194.352 70.5742 194.569 70.6312 194.826 70.686C195.337 70.7871 195.781 70.922 196.161 71.0906C196.544 71.2551 196.844 71.4743 197.059 71.7483C197.274 72.0223 197.381 72.3722 197.381 72.7979C197.381 73.1014 197.316 73.3797 197.185 73.6326C197.054 73.8813 196.865 74.0984 196.616 74.2839C196.367 74.4694 196.07 74.6148 195.724 74.7202C195.379 74.8214 194.989 74.8719 194.555 74.8719C193.926 74.8719 193.395 74.7602 192.961 74.5368C192.527 74.3092 192.198 74.0225 191.975 73.6769C191.751 73.327 191.64 72.9644 191.64 72.5893H193.239C193.252 72.8548 193.324 73.0677 193.454 73.2279C193.585 73.3881 193.749 73.504 193.948 73.5757C194.15 73.6431 194.363 73.6769 194.586 73.6769C194.839 73.6769 195.052 73.6431 195.225 73.5757C195.398 73.504 195.528 73.4092 195.617 73.2911C195.705 73.1689 195.75 73.0298 195.75 72.8738ZM200.227 73.2406L200.214 74.3977C200.214 74.8488 200.102 75.3061 199.879 75.7698C199.655 76.2336 199.367 76.6172 199.012 76.9207L198.127 76.4338C198.241 76.2441 198.346 76.0523 198.443 75.8584C198.545 75.6645 198.625 75.4537 198.684 75.2261C198.747 75.0026 198.779 74.7518 198.779 74.4736V73.2406H200.227ZM207.802 74.7455H205.816L205.829 73.3797H207.802C208.337 73.3797 208.786 73.2616 209.149 73.0256C209.511 72.7853 209.785 72.4417 209.971 71.9949C210.156 71.5438 210.249 71.0042 210.249 70.3761V69.9019C210.249 69.4171 210.196 68.9892 210.091 68.6183C209.985 68.2473 209.829 67.9353 209.623 67.6824C209.421 67.4295 209.17 67.2377 208.87 67.107C208.571 66.9763 208.228 66.911 207.84 66.911H205.778V65.5388H207.84C208.455 65.5388 209.016 65.6421 209.522 65.8487C210.032 66.0552 210.472 66.3524 210.843 66.7403C211.218 67.1239 211.505 67.5834 211.703 68.1187C211.906 68.6541 212.007 69.2527 212.007 69.9145V70.3761C212.007 71.0337 211.906 71.6323 211.703 72.1719C211.505 72.7073 211.218 73.1668 210.843 73.5504C210.472 73.934 210.03 74.2291 209.515 74.4356C209.001 74.6422 208.43 74.7455 207.802 74.7455ZM206.79 65.5388V74.7455H205.051V65.5388H206.79ZM216.433 74.8719C215.915 74.8719 215.449 74.7876 215.036 74.619C214.622 74.4504 214.27 74.2164 213.98 73.9171C213.693 73.6136 213.472 73.2616 213.316 72.8612C213.164 72.4565 213.088 72.0223 213.088 71.5586V71.3056C213.088 70.7787 213.164 70.3002 213.316 69.8703C213.467 69.4361 213.682 69.063 213.961 68.751C214.239 68.4391 214.572 68.1988 214.96 68.0302C215.348 67.8616 215.775 67.7773 216.243 67.7773C216.728 67.7773 217.156 67.8595 217.527 68.0239C217.898 68.1841 218.208 68.4117 218.456 68.7068C218.705 69.0019 218.893 69.356 219.019 69.7691C219.146 70.178 219.209 70.6312 219.209 71.1286V71.8305H213.847V70.6796H217.565V70.5532C217.556 70.2876 217.506 70.0452 217.413 69.826C217.32 69.6026 217.177 69.4255 216.983 69.2948C216.789 69.1599 216.538 69.0925 216.231 69.0925C215.982 69.0925 215.765 69.1473 215.579 69.2569C215.398 69.3623 215.246 69.5141 215.124 69.7122C215.006 69.9061 214.918 70.1379 214.859 70.4077C214.8 70.6775 214.77 70.9768 214.77 71.3056V71.5586C214.77 71.8452 214.808 72.1108 214.884 72.3553C214.964 72.5998 215.08 72.8127 215.232 72.9939C215.388 73.171 215.573 73.3101 215.788 73.4113C216.007 73.5082 216.256 73.5567 216.534 73.5567C216.884 73.5567 217.2 73.4893 217.483 73.3544C217.769 73.2153 218.018 73.0108 218.229 72.741L219.07 73.6136C218.926 73.8244 218.733 74.0267 218.488 74.2207C218.248 74.4146 217.957 74.5726 217.615 74.6949C217.274 74.8129 216.88 74.8719 216.433 74.8719ZM224.09 72.8738C224.09 72.7305 224.053 72.6019 223.977 72.4881C223.901 72.3743 223.757 72.271 223.547 72.1782C223.34 72.0813 223.037 71.9907 222.636 71.9063C222.282 71.8305 221.955 71.7356 221.656 71.6218C221.357 71.508 221.1 71.371 220.885 71.2108C220.67 71.0464 220.501 70.8546 220.379 70.6354C220.261 70.412 220.202 70.1548 220.202 69.8639C220.202 69.5815 220.263 69.3159 220.385 69.0672C220.507 68.8143 220.684 68.593 220.916 68.4033C221.148 68.2094 221.43 68.0576 221.764 67.948C222.097 67.8342 222.472 67.7773 222.889 67.7773C223.471 67.7773 223.97 67.8721 224.388 68.0618C224.809 68.2515 225.132 68.5129 225.355 68.8459C225.579 69.1747 225.69 69.5457 225.69 69.9588H224.021C224.021 69.7775 223.979 69.6131 223.894 69.4656C223.814 69.318 223.69 69.2 223.521 69.1115C223.353 69.0187 223.14 68.9724 222.883 68.9724C222.651 68.9724 222.455 69.0103 222.295 69.0862C222.139 69.1621 222.021 69.2611 221.941 69.3834C221.86 69.5056 221.82 69.6405 221.82 69.7881C221.82 69.8977 221.842 69.9967 221.884 70.0853C221.93 70.1696 222.004 70.2475 222.105 70.3192C222.206 70.3909 222.343 70.4562 222.516 70.5152C222.693 70.5742 222.91 70.6312 223.167 70.686C223.677 70.7871 224.122 70.922 224.501 71.0906C224.885 71.2551 225.184 71.4743 225.399 71.7483C225.614 72.0223 225.722 72.3722 225.722 72.7979C225.722 73.1014 225.657 73.3797 225.526 73.6326C225.395 73.8813 225.205 74.0984 224.957 74.2839C224.708 74.4694 224.411 74.6148 224.065 74.7202C223.72 74.8214 223.33 74.8719 222.895 74.8719C222.267 74.8719 221.736 74.7602 221.302 74.5368C220.868 74.3092 220.539 74.0225 220.315 73.6769C220.092 73.327 219.98 72.9644 219.98 72.5893H221.58C221.593 72.8548 221.664 73.0677 221.795 73.2279C221.926 73.3881 222.09 73.504 222.288 73.5757C222.491 73.6431 222.704 73.6769 222.927 73.6769C223.18 73.6769 223.393 73.6431 223.566 73.5757C223.738 73.504 223.869 73.4092 223.958 73.2911C224.046 73.1689 224.09 73.0298 224.09 72.8738ZM228.763 67.9037V74.7455H227.088V67.9037H228.763ZM226.974 66.1143C226.974 65.8655 227.058 65.659 227.227 65.4946C227.4 65.3302 227.631 65.248 227.922 65.248C228.213 65.248 228.443 65.3302 228.612 65.4946C228.784 65.659 228.871 65.8655 228.871 66.1143C228.871 66.3588 228.784 66.5632 228.612 66.7276C228.443 66.892 228.213 66.9742 227.922 66.9742C227.631 66.9742 227.4 66.892 227.227 66.7276C227.058 66.5632 226.974 66.3588 226.974 66.1143ZM234.707 67.9037H236.225V74.5368C236.225 75.1565 236.09 75.6813 235.82 76.1113C235.555 76.5455 235.181 76.8743 234.701 77.0977C234.22 77.3254 233.662 77.4392 233.025 77.4392C232.751 77.4392 232.454 77.4012 232.134 77.3254C231.817 77.2495 231.512 77.1293 231.217 76.9649C230.926 76.8048 230.684 76.5961 230.49 76.3389L231.242 75.3525C231.47 75.6181 231.727 75.8183 232.014 75.9532C232.3 76.0923 232.61 76.1619 232.943 76.1619C233.28 76.1619 233.567 76.0987 233.803 75.9722C234.043 75.8499 234.227 75.6687 234.353 75.4284C234.484 75.1923 234.549 74.9015 234.549 74.5558V69.4656L234.707 67.9037ZM230.085 71.4068V71.274C230.085 70.7513 230.148 70.2771 230.275 69.8513C230.401 69.4213 230.582 69.0525 230.818 68.7447C231.059 68.437 231.347 68.1988 231.685 68.0302C232.026 67.8616 232.41 67.7773 232.836 67.7773C233.287 67.7773 233.666 67.8595 233.974 68.0239C234.286 68.1883 234.543 68.4222 234.745 68.7258C234.952 69.0293 235.112 69.3897 235.226 69.807C235.344 70.2201 235.434 70.6754 235.498 71.1728V71.5333C235.439 72.0181 235.344 72.4628 235.213 72.8675C235.087 73.2722 234.918 73.6263 234.707 73.9298C234.496 74.2291 234.235 74.4609 233.923 74.6253C233.611 74.7897 233.244 74.8719 232.823 74.8719C232.401 74.8719 232.022 74.7855 231.685 74.6127C231.347 74.4399 231.059 74.1975 230.818 73.8855C230.582 73.5736 230.401 73.2068 230.275 72.7853C230.148 72.3637 230.085 71.9042 230.085 71.4068ZM231.754 71.274V71.4068C231.754 71.7019 231.784 71.978 231.843 72.2352C231.902 72.4923 231.992 72.7199 232.115 72.9181C232.237 73.112 232.391 73.2637 232.576 73.3733C232.762 73.4829 232.983 73.5377 233.24 73.5377C233.586 73.5377 233.868 73.4661 234.088 73.3228C234.311 73.1752 234.48 72.975 234.593 72.722C234.711 72.4649 234.787 72.1761 234.821 71.8558V70.863C234.8 70.6101 234.754 70.3761 234.682 70.1611C234.614 69.9461 234.52 69.7607 234.397 69.6047C234.275 69.4487 234.119 69.3265 233.929 69.2379C233.74 69.1494 233.514 69.1051 233.253 69.1051C233 69.1051 232.779 69.1621 232.589 69.2759C232.399 69.3855 232.243 69.5393 232.121 69.7375C231.999 69.9356 231.906 70.1653 231.843 70.4267C231.784 70.6881 231.754 70.9705 231.754 71.274ZM239.367 69.3644V74.7455H237.698V67.9037H239.266L239.367 69.3644ZM239.102 71.078H238.609C238.613 70.5806 238.68 70.1295 238.811 69.7248C238.942 69.3201 239.125 68.9724 239.361 68.6815C239.601 68.3906 239.886 68.1672 240.215 68.0112C240.544 67.8553 240.91 67.7773 241.315 67.7773C241.644 67.7773 241.941 67.8236 242.207 67.9164C242.472 68.0091 242.7 68.1567 242.889 68.359C243.083 68.5613 243.231 68.8269 243.332 69.1557C243.437 69.4803 243.49 69.8808 243.49 70.3572V74.7455H241.808V70.3445C241.808 70.0326 241.762 69.786 241.669 69.6047C241.581 69.4234 241.45 69.2948 241.277 69.219C241.108 69.1431 240.9 69.1051 240.651 69.1051C240.394 69.1051 240.168 69.1578 239.974 69.2632C239.785 69.3644 239.625 69.5056 239.494 69.6869C239.367 69.8682 239.27 70.0768 239.203 70.3129C239.136 70.549 239.102 70.804 239.102 71.078Z" fill="#5C01CD"/>
<path d="M107.284 83.1895L104.617 90.5316H103.528L106.598 82.4758H107.301L107.284 83.1895ZM109.52 90.5316L106.847 83.1895L106.831 82.4758H107.533L110.615 90.5316H109.52ZM109.381 87.5494V88.4236H104.855V87.5494H109.381ZM112.563 85.6959V92.8333H111.534V84.5451H112.474L112.563 85.6959ZM116.596 87.4886V87.6047C116.596 88.04 116.544 88.4439 116.441 88.8164C116.338 89.1853 116.187 89.5062 115.987 89.7791C115.792 90.0521 115.55 90.2642 115.263 90.4154C114.975 90.5667 114.645 90.6423 114.272 90.6423C113.892 90.6423 113.557 90.5796 113.265 90.4542C112.974 90.3287 112.727 90.1462 112.524 89.9064C112.321 89.6666 112.159 89.3789 112.037 89.0433C111.919 88.7076 111.838 88.3295 111.794 87.909V87.2894C111.838 86.8467 111.921 86.4502 112.043 86.0998C112.164 85.7494 112.325 85.4506 112.524 85.2035C112.727 84.9527 112.972 84.7627 113.26 84.6336C113.547 84.5008 113.879 84.4344 114.256 84.4344C114.632 84.4344 114.966 84.5082 115.257 84.6557C115.549 84.7996 115.794 85.0062 115.993 85.2754C116.192 85.5447 116.342 85.8674 116.441 86.2437C116.544 86.6162 116.596 87.0312 116.596 87.4886ZM115.567 87.6047V87.4886C115.567 87.1898 115.536 86.9095 115.473 86.6476C115.41 86.382 115.312 86.1496 115.18 85.9504C115.051 85.7476 114.885 85.5889 114.682 85.4746C114.479 85.3566 114.237 85.2975 113.957 85.2975C113.699 85.2975 113.474 85.3418 113.282 85.4303C113.094 85.5189 112.933 85.6387 112.801 85.79C112.668 85.9375 112.559 86.1072 112.474 86.299C112.393 86.4871 112.332 86.6826 112.292 86.8855V88.3185C112.365 88.5767 112.469 88.8201 112.601 89.0488C112.734 89.2738 112.911 89.4564 113.133 89.5966C113.354 89.733 113.632 89.8013 113.968 89.8013C114.245 89.8013 114.483 89.7441 114.682 89.6298C114.885 89.5117 115.051 89.3513 115.18 89.1484C115.312 88.9455 115.41 88.7132 115.473 88.4513C115.536 88.1857 115.567 87.9035 115.567 87.6047ZM118.925 85.4857V90.5316H117.902V84.5451H118.898L118.925 85.4857ZM120.796 84.5119L120.79 85.4635C120.705 85.4451 120.624 85.434 120.547 85.4303C120.473 85.423 120.388 85.4193 120.292 85.4193C120.056 85.4193 119.848 85.4562 119.667 85.5299C119.486 85.6037 119.333 85.707 119.208 85.8398C119.082 85.9726 118.983 86.1312 118.909 86.3156C118.839 86.4963 118.793 86.6955 118.77 86.9131L118.483 87.0791C118.483 86.7176 118.518 86.3783 118.588 86.0611C118.662 85.7439 118.774 85.4635 118.925 85.2201C119.077 84.973 119.268 84.7812 119.501 84.6447C119.737 84.5045 120.017 84.4344 120.342 84.4344C120.416 84.4344 120.5 84.4436 120.596 84.4621C120.692 84.4768 120.759 84.4934 120.796 84.5119ZM122.854 84.5451V90.5316H121.825V84.5451H122.854ZM121.747 82.9572C121.747 82.7912 121.797 82.651 121.897 82.5367C122 82.4223 122.151 82.3651 122.35 82.3651C122.546 82.3651 122.695 82.4223 122.798 82.5367C122.905 82.651 122.959 82.7912 122.959 82.9572C122.959 83.1158 122.905 83.2522 122.798 83.3666C122.695 83.4772 122.546 83.5326 122.35 83.5326C122.151 83.5326 122 83.4772 121.897 83.3666C121.797 83.2522 121.747 83.1158 121.747 82.9572ZM125.609 82.0332V90.5316H124.58V82.0332H125.609ZM135.231 89.6906V90.5316H129.958V89.7957L132.597 86.8578C132.922 86.4963 133.172 86.1902 133.35 85.9394C133.53 85.6848 133.656 85.458 133.726 85.2588C133.8 85.0559 133.836 84.8494 133.836 84.6391C133.836 84.3736 133.781 84.1338 133.67 83.9199C133.563 83.7022 133.405 83.5289 133.195 83.3998C132.984 83.2707 132.73 83.2061 132.431 83.2061C132.073 83.2061 131.775 83.2762 131.535 83.4164C131.299 83.5529 131.122 83.7447 131.004 83.9918C130.886 84.2389 130.827 84.523 130.827 84.8439H129.803C129.803 84.3902 129.903 83.9752 130.102 83.599C130.301 83.2227 130.596 82.924 130.987 82.7026C131.378 82.4776 131.859 82.3651 132.431 82.3651C132.94 82.3651 133.375 82.4555 133.737 82.6363C134.098 82.8133 134.375 83.0641 134.567 83.3887C134.762 83.7096 134.86 84.0859 134.86 84.5174C134.86 84.7535 134.819 84.9932 134.738 85.2367C134.661 85.4764 134.552 85.7162 134.412 85.956C134.275 86.1957 134.115 86.4318 133.93 86.6642C133.75 86.8965 133.556 87.1252 133.35 87.3502L131.192 89.6906H135.231ZM141.383 85.8619V87.0902C141.383 87.7504 141.324 88.3074 141.206 88.7611C141.088 89.2148 140.918 89.58 140.697 89.8566C140.476 90.1333 140.208 90.3343 139.895 90.4597C139.585 90.5814 139.235 90.6423 138.844 90.6423C138.534 90.6423 138.248 90.6035 137.986 90.5261C137.724 90.4486 137.488 90.3251 137.278 90.1554C137.071 89.982 136.894 89.757 136.747 89.4804C136.599 89.2037 136.487 88.8681 136.409 88.4734C136.332 88.0787 136.293 87.6177 136.293 87.0902V85.8619C136.293 85.2016 136.352 84.6484 136.47 84.202C136.592 83.7557 136.763 83.3979 136.985 83.1287C137.206 82.8557 137.471 82.6602 137.781 82.5422C138.095 82.4242 138.445 82.3651 138.833 82.3651C139.146 82.3651 139.434 82.4039 139.696 82.4813C139.961 82.5551 140.197 82.675 140.404 82.841C140.61 83.0033 140.786 83.2209 140.93 83.4938C141.077 83.7631 141.19 84.0932 141.267 84.4842C141.344 84.8752 141.383 85.3344 141.383 85.8619ZM140.354 87.2562V85.6904C140.354 85.3289 140.332 85.0117 140.288 84.7387C140.247 84.4621 140.186 84.226 140.105 84.0305C140.024 83.835 139.921 83.6764 139.795 83.5547C139.674 83.433 139.532 83.3445 139.369 83.2891C139.211 83.2301 139.032 83.2006 138.833 83.2006C138.589 83.2006 138.373 83.2467 138.185 83.3389C137.997 83.4274 137.839 83.5695 137.709 83.765C137.584 83.9604 137.488 84.2168 137.422 84.534C137.355 84.8512 137.322 85.2367 137.322 85.6904V87.2562C137.322 87.6177 137.342 87.9367 137.383 88.2134C137.427 88.49 137.492 88.7298 137.577 88.9326C137.661 89.1318 137.765 89.2959 137.886 89.425C138.008 89.5541 138.148 89.6501 138.307 89.7128C138.469 89.7718 138.648 89.8013 138.844 89.8013C139.094 89.8013 139.314 89.7533 139.502 89.6574C139.69 89.5615 139.847 89.4121 139.972 89.2093C140.101 89.0027 140.197 88.739 140.26 88.4181C140.323 88.0935 140.354 87.7062 140.354 87.2562ZM146.064 82.4315V90.5316H145.04V83.7096L142.977 84.4621V83.5381L145.904 82.4315H146.064ZM154.28 82.4758V83.0512L150.944 90.5316H149.865L153.196 83.3168H148.836V82.4758H154.28ZM160.499 86.6863V87.5273H157.799V86.6863H160.499ZM169.075 82.4758H170.137V87.9256C170.137 88.5306 170.003 89.0341 169.733 89.4361C169.464 89.8382 169.106 90.1406 168.66 90.3435C168.217 90.5427 167.736 90.6423 167.216 90.6423C166.67 90.6423 166.176 90.5427 165.733 90.3435C165.294 90.1406 164.946 89.8382 164.688 89.4361C164.433 89.0341 164.306 88.5306 164.306 87.9256V82.4758H165.363V87.9256C165.363 88.3461 165.44 88.6929 165.595 88.9658C165.75 89.2388 165.966 89.4416 166.242 89.5744C166.523 89.7072 166.847 89.7736 167.216 89.7736C167.589 89.7736 167.913 89.7072 168.19 89.5744C168.47 89.4416 168.688 89.2388 168.843 88.9658C168.998 88.6929 169.075 88.3461 169.075 87.9256V82.4758ZM172.682 85.8232V90.5316H171.659V84.5451H172.627L172.682 85.8232ZM172.439 87.3115L172.013 87.2949C172.017 86.8855 172.078 86.5074 172.196 86.1607C172.314 85.8103 172.48 85.506 172.694 85.2478C172.907 84.9896 173.162 84.7904 173.457 84.6502C173.756 84.5064 174.086 84.4344 174.447 84.4344C174.743 84.4344 175.008 84.475 175.244 84.5561C175.48 84.6336 175.681 84.759 175.847 84.9324C176.017 85.1057 176.146 85.3307 176.235 85.6074C176.323 85.8803 176.367 86.2142 176.367 86.6088V90.5316H175.338V86.5978C175.338 86.2842 175.292 86.0334 175.2 85.8453C175.108 85.6535 174.973 85.5152 174.796 85.4303C174.619 85.3418 174.401 85.2975 174.143 85.2975C173.889 85.2975 173.656 85.351 173.446 85.458C173.239 85.565 173.061 85.7125 172.909 85.9006C172.762 86.0887 172.646 86.3045 172.561 86.548C172.48 86.7877 172.439 87.0422 172.439 87.3115ZM179.034 84.5451V90.5316H178.005V84.5451H179.034ZM177.928 82.9572C177.928 82.7912 177.977 82.651 178.077 82.5367C178.18 82.4223 178.332 82.3651 178.531 82.3651C178.726 82.3651 178.876 82.4223 178.979 82.5367C179.086 82.651 179.139 82.7912 179.139 82.9572C179.139 83.1158 179.086 83.2522 178.979 83.3666C178.876 83.4772 178.726 83.5326 178.531 83.5326C178.332 83.5326 178.18 83.4772 178.077 83.3666C177.977 83.2522 177.928 83.1158 177.928 82.9572ZM182.498 89.6076L184.135 84.5451H185.181L183.029 90.5316H182.343L182.498 89.6076ZM181.131 84.5451L182.819 89.6353L182.935 90.5316H182.249L180.08 84.5451H181.131ZM188.573 90.6423C188.156 90.6423 187.778 90.5722 187.439 90.432C187.103 90.2882 186.813 90.0871 186.57 89.8289C186.33 89.5707 186.146 89.2646 186.017 88.9105C185.888 88.5564 185.823 88.1691 185.823 87.7486V87.5162C185.823 87.0293 185.895 86.5959 186.039 86.216C186.183 85.8324 186.378 85.5078 186.625 85.2422C186.872 84.9766 187.153 84.7756 187.466 84.6391C187.78 84.5027 188.104 84.4344 188.44 84.4344C188.868 84.4344 189.237 84.5082 189.547 84.6557C189.86 84.8033 190.116 85.0098 190.316 85.2754C190.515 85.5373 190.662 85.8471 190.758 86.2049C190.854 86.559 190.902 86.9463 190.902 87.3668V87.8261H186.432V86.9906H189.879V86.9131C189.864 86.6476 189.808 86.3894 189.713 86.1385C189.62 85.8877 189.473 85.6812 189.27 85.5189C189.067 85.3566 188.79 85.2754 188.44 85.2754C188.208 85.2754 187.994 85.3252 187.798 85.4248C187.603 85.5207 187.435 85.6646 187.295 85.8564C187.155 86.0482 187.046 86.2824 186.968 86.559C186.891 86.8357 186.852 87.1547 186.852 87.5162V87.7486C186.852 88.0326 186.891 88.3 186.968 88.5509C187.049 88.798 187.166 89.0156 187.317 89.2037C187.472 89.3919 187.658 89.5394 187.876 89.6464C188.097 89.7533 188.348 89.8068 188.628 89.8068C188.99 89.8068 189.296 89.733 189.547 89.5855C189.797 89.438 190.017 89.2406 190.205 88.9935L190.825 89.4859C190.696 89.6814 190.531 89.8677 190.332 90.0447C190.133 90.2218 189.888 90.3656 189.596 90.4763C189.309 90.5869 188.967 90.6423 188.573 90.6423ZM193.121 85.4857V90.5316H192.097V84.5451H193.093L193.121 85.4857ZM194.991 84.5119L194.985 85.4635C194.901 85.4451 194.819 85.434 194.742 85.4303C194.668 85.423 194.583 85.4193 194.487 85.4193C194.251 85.4193 194.043 85.4562 193.862 85.5299C193.681 85.6037 193.528 85.707 193.403 85.8398C193.278 85.9726 193.178 86.1312 193.104 86.3156C193.034 86.4963 192.988 86.6955 192.966 86.9131L192.678 87.0791C192.678 86.7176 192.713 86.3783 192.783 86.0611C192.857 85.7439 192.97 85.4635 193.121 85.2201C193.272 84.973 193.464 84.7812 193.696 84.6447C193.932 84.5045 194.213 84.4344 194.537 84.4344C194.611 84.4344 194.696 84.4436 194.792 84.4621C194.888 84.4768 194.954 84.4934 194.991 84.5119ZM199.423 88.9437C199.423 88.7961 199.39 88.6597 199.323 88.5343C199.26 88.4052 199.129 88.289 198.93 88.1857C198.735 88.0787 198.44 87.9865 198.045 87.909C197.713 87.839 197.412 87.756 197.143 87.6601C196.878 87.5642 196.651 87.448 196.463 87.3115C196.278 87.175 196.136 87.0146 196.037 86.8301C195.937 86.6457 195.887 86.4299 195.887 86.1828C195.887 85.9467 195.939 85.7236 196.042 85.5133C196.149 85.3031 196.298 85.1168 196.49 84.9545C196.686 84.7922 196.92 84.665 197.193 84.5727C197.466 84.4805 197.77 84.4344 198.106 84.4344C198.585 84.4344 198.995 84.5193 199.334 84.6889C199.674 84.8586 199.934 85.0855 200.114 85.3695C200.295 85.6498 200.385 85.9615 200.385 86.3045H199.362C199.362 86.1385 199.312 85.9781 199.212 85.8232C199.117 85.6646 198.975 85.5336 198.786 85.4303C198.602 85.3271 198.375 85.2754 198.106 85.2754C197.822 85.2754 197.591 85.3197 197.414 85.4082C197.241 85.493 197.114 85.6019 197.033 85.7346C196.955 85.8674 196.916 86.0076 196.916 86.1551C196.916 86.2658 196.935 86.3654 196.972 86.4539C197.012 86.5387 197.082 86.6181 197.182 86.6918C197.281 86.7619 197.422 86.8283 197.602 86.891C197.783 86.9537 198.014 87.0164 198.294 87.0791C198.785 87.1898 199.188 87.3226 199.506 87.4775C199.823 87.6324 200.059 87.8224 200.214 88.0474C200.369 88.2724 200.446 88.5453 200.446 88.8662C200.446 89.1281 200.391 89.3679 200.28 89.5855C200.173 89.8031 200.017 89.9912 199.81 90.1499C199.607 90.3048 199.364 90.4265 199.08 90.515C198.799 90.5999 198.484 90.6423 198.134 90.6423C197.606 90.6423 197.16 90.5482 196.795 90.3601C196.429 90.172 196.153 89.9285 195.965 89.6298C195.777 89.331 195.683 89.0156 195.683 88.6836H196.712C196.726 88.964 196.808 89.1871 196.955 89.3531C197.103 89.5154 197.283 89.6316 197.497 89.7017C197.711 89.7681 197.923 89.8013 198.134 89.8013C198.414 89.8013 198.648 89.7644 198.836 89.6906C199.028 89.6169 199.174 89.5154 199.273 89.3863C199.373 89.2572 199.423 89.1097 199.423 88.9437ZM202.903 84.5451V90.5316H201.874V84.5451H202.903ZM201.796 82.9572C201.796 82.7912 201.846 82.651 201.946 82.5367C202.049 82.4223 202.2 82.3651 202.399 82.3651C202.595 82.3651 202.744 82.4223 202.848 82.5367C202.954 82.651 203.008 82.7912 203.008 82.9572C203.008 83.1158 202.954 83.2522 202.848 83.3666C202.744 83.4772 202.595 83.5326 202.399 83.5326C202.2 83.5326 202.049 83.4772 201.946 83.3666C201.846 83.2522 201.796 83.1158 201.796 82.9572ZM207.052 84.5451V85.3307H203.816V84.5451H207.052ZM204.911 83.0899H205.935V89.0488C205.935 89.2517 205.966 89.4048 206.029 89.508C206.092 89.6113 206.173 89.6796 206.272 89.7128C206.372 89.746 206.479 89.7626 206.593 89.7626C206.678 89.7626 206.767 89.7552 206.859 89.7404C206.955 89.722 207.027 89.7072 207.075 89.6962L207.08 90.5316C206.999 90.5574 206.892 90.5814 206.759 90.6035C206.63 90.6294 206.473 90.6423 206.289 90.6423C206.038 90.6423 205.808 90.5925 205.597 90.4929C205.387 90.3933 205.219 90.2273 205.094 89.9949C204.972 89.7589 204.911 89.4416 204.911 89.0433V83.0899ZM209.935 89.9119L211.6 84.5451H212.696L210.295 91.4556C210.239 91.6031 210.166 91.7618 210.073 91.9314C209.985 92.1048 209.871 92.2689 209.73 92.4238C209.59 92.5788 209.421 92.7042 209.221 92.8001C209.026 92.8997 208.792 92.9495 208.519 92.9495C208.438 92.9495 208.334 92.9384 208.209 92.9163C208.083 92.8941 207.995 92.8757 207.943 92.8609L207.938 92.031C207.967 92.0347 208.013 92.0384 208.076 92.0421C208.142 92.0495 208.189 92.0531 208.214 92.0531C208.447 92.0531 208.644 92.0218 208.806 91.9591C208.969 91.9001 209.105 91.7986 209.216 91.6548C209.33 91.5146 209.428 91.321 209.509 91.0738L209.935 89.9119ZM208.712 84.5451L210.267 89.1927L210.533 90.2716L209.797 90.6478L207.595 84.5451H208.712ZM219.568 83.1895L216.901 90.5316H215.811L218.882 82.4758H219.584L219.568 83.1895ZM221.803 90.5316L219.131 83.1895L219.114 82.4758H219.817L222.899 90.5316H221.803ZM221.665 87.5494V88.4236H217.139V87.5494H221.665Z" fill="#5C01CD"/>
<path d="M105.996 114.644C107.937 114.644 109.51 113.074 109.51 111.137C109.51 109.201 107.937 107.631 105.996 107.631C104.056 107.631 102.483 109.201 102.483 111.137C102.483 113.074 104.056 114.644 105.996 114.644Z" fill="#8E33FF"/>
<path d="M105.996 131.192C107.937 131.192 109.51 129.622 109.51 127.685C109.51 125.749 107.937 124.179 105.996 124.179C104.056 124.179 102.483 125.749 102.483 127.685C102.483 129.622 104.056 131.192 105.996 131.192Z" fill="#8E33FF"/>
<path d="M121.306 111.138H212.769" stroke="#8E33FF" stroke-width="1.40989" stroke-miterlimit="10"/>
<path d="M105.996 148.429C107.937 148.429 109.51 146.859 109.51 144.922C109.51 142.985 107.937 141.415 105.996 141.415C104.056 141.415 102.483 142.985 102.483 144.922C102.483 146.859 104.056 148.429 105.996 148.429Z" fill="#8E33FF"/>
<path d="M121.306 144.922H212.769" stroke="#8E33FF" stroke-width="1.40989" stroke-miterlimit="10"/>
<path d="M121.306 127.684H184.52" stroke="#8E33FF" stroke-width="1.40989" stroke-miterlimit="10"/>
<path d="M167.659 178.848H130.449C121.927 178.848 115.027 185.749 115.027 194.255V231.392C115.027 239.898 121.927 246.785 130.449 246.785H167.659C171.186 246.785 174.417 245.616 177.014 243.63C177.098 243.574 177.183 243.503 177.254 243.447C180.809 240.616 183.081 236.279 183.081 231.392V194.255C183.081 185.749 176.181 178.848 167.659 178.848Z" fill="#E4CEFF"/>
<path d="M177.013 257.361C184.705 257.361 190.94 251.138 190.94 243.461C190.94 235.784 184.705 229.561 177.013 229.561C169.321 229.561 163.086 235.784 163.086 243.461C163.086 251.138 169.321 257.361 177.013 257.361Z" fill="#8137FA"/>
<path d="M177.014 237.012V249.897" stroke="#F1F1F1" stroke-width="1.40989" stroke-miterlimit="10"/>
<path d="M170.565 243.461H183.462" stroke="#F1F1F1" stroke-width="1.40989" stroke-miterlimit="10"/>
<path d="M150.373 195.354C151.459 194.438 153.124 194.889 153.618 196.227C153.957 197.156 154.916 197.706 155.904 197.537C157.301 197.297 158.529 198.508 158.275 199.903C158.105 200.874 158.656 201.832 159.587 202.184C160.928 202.677 161.365 204.339 160.462 205.423C159.827 206.184 159.827 207.296 160.462 208.057C161.379 209.141 160.928 210.803 159.587 211.296C158.656 211.634 158.105 212.591 158.275 213.577C158.515 214.971 157.301 216.197 155.904 215.943C154.931 215.774 153.971 216.323 153.618 217.253C153.124 218.591 151.459 219.027 150.373 218.126C149.611 217.492 148.496 217.492 147.734 218.126C146.648 219.041 144.983 218.591 144.489 217.253C144.15 216.323 143.191 215.774 142.203 215.943C140.806 216.182 139.578 214.971 139.832 213.577C140.002 212.605 139.451 211.648 138.52 211.296C137.18 210.803 136.742 209.141 137.645 208.057C138.28 207.296 138.28 206.184 137.645 205.423C136.728 204.339 137.18 202.677 138.52 202.184C139.451 201.846 140.002 200.888 139.832 199.903C139.593 198.508 140.806 197.283 142.203 197.537C143.177 197.706 144.136 197.156 144.489 196.227C144.983 194.889 146.648 194.452 147.734 195.354C148.496 195.988 149.611 195.988 150.373 195.354Z" fill="#8137FA"/>
<path d="M147.974 220.224C146.775 223.435 145.59 226.66 144.39 229.871C144.066 230.758 142.669 231.181 142.189 230.153C141.625 229.012 141.088 227.871 140.524 226.731C139.437 227.209 138.337 227.688 137.25 228.167C136.982 228.28 136.728 228.308 136.488 228.252C135.868 228.195 135.303 227.745 135.402 227.055C135.374 226.801 135.444 226.562 135.628 226.35C135.896 225.646 136.15 224.956 136.418 224.252C137.335 221.787 138.238 219.309 139.155 216.844C139.889 217.52 140.849 217.901 141.85 217.901C142.076 217.901 142.302 217.872 142.556 217.844C142.584 217.844 142.641 217.872 142.655 217.915C143.233 219.478 144.743 220.534 146.422 220.534C146.958 220.534 147.48 220.421 147.974 220.21V220.224Z" fill="#8137FA"/>
<path d="M162.692 227.069C162.805 227.759 162.24 228.209 161.605 228.266C161.365 228.308 161.111 228.294 160.843 228.181C159.757 227.688 158.656 227.21 157.57 226.745C157.019 227.885 156.469 229.04 155.905 230.167C155.411 231.195 154.028 230.772 153.703 229.885C153.379 229.04 153.082 228.181 152.758 227.336C151.883 224.956 151.008 222.604 150.133 220.224C150.627 220.436 151.149 220.548 151.686 220.548C153.365 220.548 154.875 219.492 155.439 217.929C155.467 217.872 155.509 217.858 155.552 217.858C155.778 217.887 156.017 217.915 156.243 217.915C157.245 217.915 158.205 217.535 158.938 216.859C160.109 220.027 161.281 223.196 162.452 226.365C162.635 226.576 162.706 226.815 162.678 227.069H162.692Z" fill="#8137FA"/>
<path d="M359.672 103.899C359.672 103.899 344.603 125.798 330.577 105.265C321.306 91.6893 338.747 84.3661 343.304 91.5343C348.779 100.153 330.436 110.997 322.294 102.575C314.152 94.1538 318.512 83.5775 325.991 79.4934" stroke="#FFA409" stroke-width="0.690848" stroke-miterlimit="10" stroke-dasharray="1.38 1.38"/>
<path d="M109.425 18.1761V25.119" stroke="black" stroke-width="1.40989" stroke-miterlimit="10" stroke-linecap="round"/>
<path d="M109.425 39.1454V32.2025" stroke="black" stroke-width="1.40989" stroke-miterlimit="10" stroke-linecap="round"/>
<path d="M98.9969 28.964H105.953" stroke="black" stroke-width="1.40989" stroke-miterlimit="10" stroke-linecap="round"/>
<path d="M120.007 28.964H113.051" stroke="black" stroke-width="1.40989" stroke-miterlimit="10" stroke-linecap="round"/>
<path d="M311.514 71.8887C314.086 71.8887 316.17 69.808 316.17 67.2414C316.17 64.6747 314.086 62.594 311.514 62.594C308.942 62.594 306.857 64.6747 306.857 67.2414C306.857 69.808 308.942 71.8887 311.514 71.8887Z" fill="#F45E3D"/>
<path d="M207.182 199.522C209.753 199.522 211.838 197.442 211.838 194.875C211.838 192.308 209.753 190.228 207.182 190.228C204.61 190.228 202.525 192.308 202.525 194.875C202.525 197.442 204.61 199.522 207.182 199.522Z" stroke="#4B4065" stroke-width="1.3958" stroke-miterlimit="10"/>
<path d="M93.3668 184.144C93.8606 184.552 94.6226 184.496 95.0318 184.003C95.187 183.862 95.2858 183.651 95.2858 183.426L97.1907 170.469L99.1097 157.175C99.1944 156.555 98.7569 155.936 98.122 155.907C97.9527 155.865 97.8398 155.907 97.6563 155.907L84.703 159.639L72.0742 163.273C71.4533 163.414 71.0723 164.09 71.2699 164.709C71.3263 164.949 71.4674 165.104 71.6085 165.244L76.5331 169.568L62.5779 185.411L74.4165 195.734L88.3999 179.778L93.3809 184.116L93.3668 184.144Z" fill="white" stroke="#FFA409" stroke-width="0.860036" stroke-miterlimit="10"/>
<path d="M297.136 195.594L294.384 164.836C294.384 164.836 291.506 164.484 291.985 157.753C291.985 157.753 295.104 151.5 288.923 148.571C282.757 145.641 279.484 141.149 279.484 141.149C279.484 141.149 268.943 147.5 257.655 139.403C250.459 134.248 247.312 130.516 248.695 120.898C248.695 120.898 259.39 121.109 261.733 120.348C266.46 118.785 272.189 116.109 279.145 123.165C279.145 123.165 295.753 115.574 307.93 135.107L310.103 138.853C310.103 138.853 318.696 139.036 320.785 145.979C327.219 167.287 317.864 175.835 312.361 185.186C305.108 197.509 297.136 195.594 297.136 195.594Z" fill="#F55E3D"/>
<path d="M274.432 206.057L271.935 198.678C250.261 197.452 253.224 180.13 253.845 174.075C254.565 167.005 255.214 165.878 256.399 160.189C257.119 156.739 257.979 153.19 259.39 149.908C259.757 148.993 260.181 148.106 260.646 147.247C261.098 146.416 261.578 145.613 262.114 144.824C265.035 140.233 269.776 136.966 275.279 135.783C315.776 128.474 300.014 183.496 300.085 183.426C300.085 183.426 300.649 195.34 306.547 211.521" fill="#FBD7AD"/>
<path d="M298.744 171.751C300.747 173.624 303.358 174.469 305.912 174.258C308.466 174.047 310.78 172.244 311.866 169.526C312.896 166.808 312.233 163.541 310.23 161.668C308.282 160.133 305.912 159.936 303.781 160.907C301.777 161.879 299.83 163.203 298.193 165.006" fill="#FBD7AD"/>
<path d="M254.592 173.469C253.478 173.018 251.234 171.666 250.289 170.596C249.202 169.638 248.666 168.089 249.118 166.723C249.287 165.977 249.978 165.132 250.768 164.54L254.084 160.921C254.084 160.921 255.171 159.963 257.781 155.541" fill="#FBD7AD"/>
<path d="M255.806 178.482C259.009 178.694 261.253 178.764 263.087 177.99C263.087 177.99 262.607 184.792 259.447 184.876C256.286 184.961 256.074 182.116 255.806 178.482Z" stroke="#F55E3D" stroke-width="0.817739" stroke-linecap="round" stroke-linejoin="round"/>
<path d="M263.609 132.558C261.266 134.403 263.792 142.557 263.792 142.557C277.056 148.894 295.414 148.077 295.414 148.077C296.811 152.739 290.249 167.794 295.823 168.85C296.444 168.85 299.971 169.948 306.533 159.527C311.697 157.724 310.399 156.443 310.046 150.936C309.693 144.881 306.49 139.036 298.758 134.178C295.837 132.445 292.352 131.46 288.866 131.46C282.799 131.319 276.139 124.812 271.186 128.291C271.186 128.291 265.951 130.713 263.595 132.558H263.609Z" fill="#F55E3D"/>
<path d="M266.53 160.161C269.141 160.569 272.174 159.907 273.741 157.837C272.513 155.063 269.931 153.19 266.911 152.88C264.004 152.668 261.408 153.668 259.927 156.217C261.563 158.316 263.877 159.682 266.53 160.161Z" fill="white"/>
<path d="M263.891 153.217C265.472 152.738 267.49 152.372 268.957 153.217C269.07 154.4 267.419 157.414 265.782 158.132C263.44 159.132 260.745 156.851 260.547 156.048C260.547 155.992 260.434 155.963 260.463 155.837C260.336 154.724 263.186 153.443 263.891 153.217Z" fill="#B9C6E4"/>
<path d="M259.714 156.048C260.632 154.598 261.902 153.471 263.552 152.753C265.81 151.851 268.35 152.246 270.354 153.598C271.878 154.527 273.613 155.879 274.178 157.668C274.276 158.076 273.529 158.287 273.43 157.879C273.176 157.048 272.583 156.273 271.835 155.598C270.876 154.738 269.775 153.978 268.533 153.499C267.32 152.908 265.81 152.753 264.441 153.147C262.649 153.696 261.224 154.851 260.307 156.372C260.011 156.823 259.39 156.485 259.743 156.048H259.714Z" fill="#4B4065"/>
<path d="M264.823 146.753C264.823 146.753 267.984 146.612 271.977 147.767C275.97 148.922 277.254 152.288 277.254 152.288C277.254 152.288 273.966 150.767 271.497 150.175C269.028 149.584 264.611 149.344 264.131 148.95C263.652 148.556 263.454 146.908 264.823 146.753Z" fill="#F55E3D"/>
<path d="M323.889 131.854C323.889 131.854 322.407 140.023 325.554 147.106" stroke="#352D47" stroke-width="1.40989" stroke-miterlimit="10" stroke-linecap="round"/>
<path d="M326.668 153.513C326.668 153.513 324.989 147.373 325.554 147.105C326.118 146.838 328.997 152.936 328.997 152.936" stroke="#352D47" stroke-width="1.40989" stroke-miterlimit="10" stroke-linecap="round"/>
<path d="M282.207 110.87L308.226 116.151L326.443 133.107L301.552 126.967L282.207 110.87Z" fill="#4B4065"/>
<path d="M290.08 117.432L285.382 125.446C285.382 125.446 294.426 141.585 311.302 139.036L315.902 130.516L301.552 126.981L290.08 117.447V117.432Z" fill="#352D47"/>
<path opacity="0.3" d="M292.789 186.383C292.789 186.383 291.265 201.508 279.314 208.07L274.432 206.042L271.934 198.663C271.934 198.663 276.746 198.705 279.864 197.888C284.125 196.79 290.306 190.115 292.789 186.383Z" fill="#F27932"/>
<path d="M353.478 297.117C361.564 295.3 355.623 216.309 329.688 207.746C305.94 199.902 252.942 202.268 252.942 202.268C252.942 202.268 226.993 201.93 222.04 242.63C217.525 279.851 215.972 297.117 215.972 297.117C215.972 297.117 213.108 306.693 236.433 302.637C259.757 298.581 278.439 309.749 299.633 309.721C320.827 309.693 317.864 305.087 353.464 297.102L353.478 297.117Z" fill="#FFA409"/>
<path d="M264.329 278.415L261.845 303.243" stroke="#4B4065" stroke-width="1.05742" stroke-miterlimit="10"/>
</svg>
