<svg width="120" height="120" viewBox="0 0 120 120" fill="none" xmlns="http://www.w3.org/2000/svg">
<g clip-path="url(#clip0_270_5044)">
<path d="M5.44865 86.2556C5.44865 86.2556 4.95219 96.7387 20.8062 104.82C34.3415 111.719 40.4465 110.123 51.143 105.997C61.8394 101.871 71.0773 93.7499 82.5487 95.2581C94.0201 96.7663 104.601 99.8846 110.322 87.3048C116.043 74.725 116.442 41.9594 95.7952 32.003C71.6494 20.3563 76.7687 14.206 58.5961 4.94326C31.1118 -9.06577 20.6661 13.38 18.0558 24.3352C15.4455 35.2905 22.067 45.6475 18.6503 54.9462C15.2336 64.2449 5.74735 69.0172 5.45102 86.2509L5.44865 86.2556Z" fill="#3D50FF" fill-opacity="0.1"/>
<path d="M1.56592 89.2472H119.886C119.886 92.6063 117.134 95.358 113.775 95.358H7.67668C4.31755 95.358 1.56592 92.6063 1.56592 89.2472Z" fill="white" stroke="#B9C6E4" stroke-width="0.365449" stroke-miterlimit="10"/>
<g clip-path="url(#clip1_270_5044)">
<path d="M16.6731 28.3218H107.012C109.899 28.3218 112.238 30.6607 112.238 33.5477V90.7769H11.4471V33.5477C11.4471 30.6607 13.786 28.3218 16.6731 28.3218Z" fill="#3D50FF"/>
<path d="M86.7464 37.0505H34.6064V102.846H86.7464V37.0505Z" fill="white"/>
<circle opacity="0.5" cx="45.1581" cy="48.0159" r="6.00024" fill="#3D50FF"/>
<rect opacity="0.5" x="54.0554" y="49.8809" width="20.6905" height="1.65524" fill="#3D50FF"/>
<g opacity="0.5">
<rect x="39.1584" y="59.3966" width="17.38" height="1.65524" fill="#3D50FF"/>
<rect x="39.1584" y="63.1207" width="26.8976" height="0.827619" fill="#3D50FF"/>
<rect x="39.1584" y="65.1913" width="28.5529" height="0.827619" fill="#3D50FF"/>
<rect x="39.1584" y="67.2595" width="24.001" height="0.827619" fill="#3D50FF"/>
</g>
<g opacity="0.5">
<rect x="73.5043" y="64.3612" width="9.51762" height="0.827619" fill="#3D50FF"/>
<rect x="73.5039" y="66.4293" width="9.93143" height="0.827619" fill="#3D50FF"/>
<rect x="73.5039" y="68.4988" width="8.27619" height="0.827619" fill="#3D50FF"/>
</g>
<g opacity="0.5">
<rect x="73.5044" y="77.1895" width="9.51762" height="0.827619" fill="#3D50FF"/>
<rect x="73.5046" y="79.2577" width="9.93143" height="0.827619" fill="#3D50FF"/>
<rect x="73.5046" y="81.3271" width="8.27619" height="0.827619" fill="#3D50FF"/>
</g>
<g opacity="0.5">
<rect x="39.1584" y="73.464" width="17.38" height="1.65524" fill="#3D50FF"/>
<rect x="39.1584" y="77.1882" width="26.8976" height="0.827619" fill="#3D50FF"/>
<rect x="39.1584" y="79.2589" width="28.5529" height="0.827619" fill="#3D50FF"/>
<rect x="39.1584" y="81.3271" width="24.001" height="0.827619" fill="#3D50FF"/>
</g>
<g opacity="0.5">
<rect x="39.1582" y="87.1221" width="17.38" height="1.65524" fill="#3D50FF"/>
</g>
<rect opacity="0.5" x="54.0554" y="44.4987" width="26.8976" height="3.72429" fill="#3D50FF"/>
</g>
<path d="M108.116 14.1781V16.5055" stroke="#3D50FF" stroke-width="0.907519" stroke-miterlimit="10" stroke-linecap="round"/>
<path d="M108.116 21.2191V18.8878" stroke="#3D50FF" stroke-width="0.907519" stroke-miterlimit="10" stroke-linecap="round"/>
<path d="M104.621 17.8015H106.952" stroke="#3D50FF" stroke-width="0.907519" stroke-miterlimit="10" stroke-linecap="round"/>
<path d="M111.661 17.8015H109.33" stroke="#3D50FF" stroke-width="0.907519" stroke-miterlimit="10" stroke-linecap="round"/>
<path d="M10.7214 101.011V103.339" stroke="#3D50FF" stroke-width="0.907519" stroke-miterlimit="10" stroke-linecap="round"/>
<path d="M10.7214 108.052V105.721" stroke="#3D50FF" stroke-width="0.907519" stroke-miterlimit="10" stroke-linecap="round"/>
<path d="M7.22656 104.635H9.55784" stroke="#3D50FF" stroke-width="0.907519" stroke-miterlimit="10" stroke-linecap="round"/>
<path d="M14.2673 104.635H11.936" stroke="#3D50FF" stroke-width="0.907519" stroke-miterlimit="10" stroke-linecap="round"/>
<path d="M111.636 97.491V99.8183" stroke="#3D50FF" stroke-width="0.907519" stroke-miterlimit="10" stroke-linecap="round"/>
<path d="M111.636 104.532V102.201" stroke="#3D50FF" stroke-width="0.907519" stroke-miterlimit="10" stroke-linecap="round"/>
<path d="M108.141 101.114H110.472" stroke="#3D50FF" stroke-width="0.907519" stroke-miterlimit="10" stroke-linecap="round"/>
<path d="M115.182 101.114H112.85" stroke="#3D50FF" stroke-width="0.907519" stroke-miterlimit="10" stroke-linecap="round"/>
</g>
<defs>
<clipPath id="clip0_270_5044">
<rect width="120" height="120" fill="white"/>
</clipPath>
<clipPath id="clip1_270_5044">
<rect width="98.5584" height="61.0719" fill="white" transform="translate(11.4474 28.3215)"/>
</clipPath>
</defs>
</svg>
