<svg width="120" height="121" viewBox="0 0 120 121" fill="none" xmlns="http://www.w3.org/2000/svg">
<path d="M16.9969 105.066C16.9969 105.066 20.4434 115.137 38.4105 116.837C53.7499 118.288 58.9109 114.504 67.4563 106.618C76.0017 98.7334 81.68 87.6262 93.0602 84.7647C104.44 81.9032 115.582 80.8926 116.279 66.894C116.976 52.8954 105.117 21.8504 81.9302 20.1717C54.8128 18.2061 57.3434 10.495 36.7486 8.54668C5.60108 5.60005 4.13299 30.6659 5.7625 41.9709C7.39201 53.2759 17.5033 60.5695 17.7539 70.6135C18.0044 80.6576 10.8414 88.7 16.9974 105.061L16.9969 105.066Z" fill="#F55E3D" fill-opacity="0.1"/>
<path d="M96.6916 12.6094H32.4V93.7393H96.6916V12.6094Z" fill="#FFAE9C"/>
<circle opacity="0.5" cx="45.4106" cy="26.1298" r="7.39864" fill="#FFAE9C"/>
<rect opacity="0.5" x="56.3816" y="28.4297" width="25.5125" height="2.041" fill="#FFAE9C"/>
<g opacity="0.5">
<rect x="38.0131" y="40.1633" width="21.4305" height="2.041" fill="#FFAE9C"/>
<rect x="38.0131" y="44.7548" width="33.1663" height="1.0205" fill="#FFAE9C"/>
<rect x="38.0131" y="47.3082" width="35.2073" height="1.0205" fill="#FFAE9C"/>
<rect x="38.0131" y="49.8594" width="29.5946" height="1.0205" fill="#FFAE9C"/>
</g>
<g opacity="0.5">
<rect x="80.3628" y="46.2844" width="11.7358" height="1.0205" fill="#FFAE9C"/>
<rect x="80.3628" y="48.8346" width="12.246" height="1.0205" fill="#FFAE9C"/>
<rect x="80.3628" y="51.387" width="10.205" height="1.0205" fill="#FFAE9C"/>
</g>
<g opacity="0.5">
<rect x="80.3633" y="62.1035" width="11.7358" height="1.0205" fill="#FFAE9C"/>
<rect x="80.3634" y="64.6536" width="12.246" height="1.0205" fill="#FFAE9C"/>
<rect x="80.3634" y="67.2047" width="10.205" height="1.0205" fill="#FFAE9C"/>
</g>
<g opacity="0.5">
<rect x="38.0129" y="57.5085" width="21.4305" height="2.041" fill="#FFAE9C"/>
<rect x="38.0129" y="62.0997" width="33.1663" height="1.0205" fill="#FFAE9C"/>
<rect x="38.0129" y="64.6533" width="35.2073" height="1.0205" fill="#FFAE9C"/>
<rect x="38.0129" y="67.2045" width="29.5946" height="1.0205" fill="#FFAE9C"/>
</g>
<g opacity="0.5">
<rect x="38.0121" y="74.3508" width="21.4305" height="2.041" fill="#FFAE9C"/>
<rect x="38.0127" y="78.9424" width="33.1663" height="1.0205" fill="#FFAE9C"/>
<rect x="38.0127" y="81.496" width="35.2073" height="1.0205" fill="#FFAE9C"/>
<rect x="38.0127" y="84.0471" width="29.5946" height="1.0205" fill="#FFAE9C"/>
</g>
<rect opacity="0.5" x="56.3816" y="21.7933" width="33.1663" height="4.59226" fill="#FFAE9C"/>
<path d="M15.5741 34.2097V36.5898" stroke="#F55E3D" stroke-width="0.900018" stroke-miterlimit="10" stroke-linecap="round"/>
<path d="M15.5741 41.4102V39.0261" stroke="#F55E3D" stroke-width="0.900018" stroke-miterlimit="10" stroke-linecap="round"/>
<path d="M12 37.9152H14.3841" stroke="#F55E3D" stroke-width="0.900018" stroke-miterlimit="10" stroke-linecap="round"/>
<path d="M19.2002 37.9152H16.8162" stroke="#F55E3D" stroke-width="0.900018" stroke-miterlimit="10" stroke-linecap="round"/>
<path d="M106.774 29.4097V31.7898" stroke="#F55E3D" stroke-width="0.900018" stroke-miterlimit="10" stroke-linecap="round"/>
<path d="M106.774 36.6102V34.2261" stroke="#F55E3D" stroke-width="0.900018" stroke-miterlimit="10" stroke-linecap="round"/>
<path d="M103.2 33.1151H105.584" stroke="#F55E3D" stroke-width="0.900018" stroke-miterlimit="10" stroke-linecap="round"/>
<path d="M110.4 33.1151H108.016" stroke="#F55E3D" stroke-width="0.900018" stroke-miterlimit="10" stroke-linecap="round"/>
<path d="M99.5741 99.009V101.389" stroke="#F55E3D" stroke-width="0.900018" stroke-miterlimit="10" stroke-linecap="round"/>
<path d="M99.5741 106.21V103.825" stroke="#F55E3D" stroke-width="0.900018" stroke-miterlimit="10" stroke-linecap="round"/>
<path d="M96 102.714H98.3841" stroke="#F55E3D" stroke-width="0.900018" stroke-miterlimit="10" stroke-linecap="round"/>
<path d="M103.2 102.714H100.816" stroke="#F55E3D" stroke-width="0.900018" stroke-miterlimit="10" stroke-linecap="round"/>
<path d="M88.2916 21.009H24V102.139H88.2916V21.009Z" fill="#F55E3D"/>
<circle opacity="0.5" cx="37.0106" cy="34.5295" r="7.39864" fill="white"/>
<rect opacity="0.5" x="47.9816" y="36.8293" width="25.5125" height="2.041" fill="white"/>
<g opacity="0.5">
<rect x="29.613" y="48.5634" width="21.4305" height="2.041" fill="white"/>
<rect x="29.613" y="53.1549" width="33.1663" height="1.0205" fill="white"/>
<rect x="29.613" y="55.7085" width="35.2073" height="1.0205" fill="white"/>
<rect x="29.613" y="58.2596" width="29.5946" height="1.0205" fill="white"/>
</g>
<g opacity="0.5">
<rect x="71.9628" y="54.6841" width="11.7358" height="1.0205" fill="white"/>
<rect x="71.9628" y="57.2339" width="12.246" height="1.0205" fill="white"/>
<rect x="71.9628" y="59.7863" width="10.205" height="1.0205" fill="white"/>
</g>
<g opacity="0.5">
<rect x="71.9631" y="70.5028" width="11.7358" height="1.0205" fill="white"/>
<rect x="71.9633" y="73.0529" width="12.246" height="1.0205" fill="white"/>
<rect x="71.9633" y="75.604" width="10.205" height="1.0205" fill="white"/>
</g>
<g opacity="0.5">
<rect x="29.6129" y="65.9087" width="21.4305" height="2.041" fill="white"/>
<rect x="29.6129" y="70.5001" width="33.1663" height="1.0205" fill="white"/>
<rect x="29.6129" y="73.0536" width="35.2073" height="1.0205" fill="white"/>
<rect x="29.6129" y="75.6047" width="29.5946" height="1.0205" fill="white"/>
</g>
<g opacity="0.5">
<rect x="29.6121" y="82.7505" width="21.4305" height="2.041" fill="white"/>
<rect x="29.6127" y="87.3417" width="33.1663" height="1.0205" fill="white"/>
<rect x="29.6127" y="89.8953" width="35.2073" height="1.0205" fill="white"/>
<rect x="29.6127" y="92.4464" width="29.5946" height="1.0205" fill="white"/>
</g>
<rect opacity="0.5" x="47.9816" y="30.193" width="33.1663" height="4.59226" fill="white"/>
</svg>
