<?xml version="1.0" encoding="UTF-8"?>
<svg xmlns="http://www.w3.org/2000/svg" width="816" height="1056" version="1.1" viewBox="0 0 816 1056">
  <defs>
    <clipPath id="clipPath186197">
      <path d="m0 0h612v792h-612z"></path>
    </clipPath>
    <clipPath id="clipPath186207">
      <path d="m0 0h459v594h-459z"></path>
    </clipPath>
    <clipPath id="clipPath186217">
      <path d="m0 0h459v594h-459z" clip-rule="evenodd"></path>
    </clipPath>
    <clipPath id="clipPath186641">
      <path d="m31.5 130.5h9.75v9.75h-9.75z" clip-rule="evenodd"></path>
    </clipPath>
    <clipPath id="clipPath186653">
      <path d="m31.5 151.5h9.75v7.5h-9.75z" clip-rule="evenodd"></path>
    </clipPath>
    <clipPath id="clipPath186665">
      <path d="m31.5 169.5h9v9h-9z" clip-rule="evenodd"></path>
    </clipPath>
    <clipPath id="clipPath186677">
      <path d="m31.5 0h40.5v89.25h-40.5z" clip-rule="evenodd"></path>
    </clipPath>
    <clipPath id="clipPath186689">
      <path d="m0 0h459v594h-459z" clip-rule="evenodd"></path>
    </clipPath>
  </defs>
  <g transform="matrix(1.3333 0 0 -1.3333 0 1056)">
    <path d="m214.2 792v-794" fill="none" stroke="#d0d0d0" stroke-miterlimit="10"></path>
    <g clip-path="url(#clipPath186197)">
      <g transform="scale(1.3333)">
        <g clip-path="url(#clipPath186207)">
          <g transform="matrix(1,0,0,-1,0,594)">
            <g clip-path="url(#clipPath186217)">
              <g transform="scale(.75)">
                <path d="m0 88h612v1h-612z" fill="#d0d0d0"></path>
                <path d="m0 0h612v88h-612z" fill="#fff"></path>
                <g fill="#d0d0d0">
                  <path d="m214 89h1v614h-1z"></path>
                  <path d="m0 270h214v1h-214z"></path>
                  <path d="m0 497h214v1h-214z"></path>
                  <path d="m215 512h397v1h-397z"></path>
                </g>
                <g fill="#000000" font-family="Arial">
                  <g font-weight="900">
                    <text transform="translate(122,58)" font-size="28px" xml:space="preserve">
                      <tspan x="0 26.427744 37.324223 59.103519 82.427742 104.20704 124.42774" y="0">MICHAEL</tspan>
                    </text>
                    <text transform="translate(274.42 58)" font-size="28px" xml:space="preserve">
                      <tspan x="0 28 38.896481 57.572254 76.248032 87.144508 108.92381 135.35155" y="0">WILLIAMS</tspan>
                    </text>
                    <text transform="translate(42,157)" font-size="12px" xml:space="preserve">
                      <tspan x="0 9.3339844 19.33008 29.326176 37.177734 46.294922 55.628906" y="0">CONTACT</tspan>
                    </text>
                  </g>
                  <g font-size="10px">
                    <text transform="translate(62,185)" xml:space="preserve">
                      <tspan x="0 5.5615201 11.12304 16.684561 20.014641 25.57616 31.13768 36.6992 40.029282 45.590801 51.152321 56.71384" y="0">555-555-5555</tspan>
                    </text>
                    <text transform="translate(62,210)" xml:space="preserve">
                      <tspan x="0 5.5615201 10.56152 16.123039 24.453119 30.014641 32.23632 37.79784 47.949242 53.510761 58.510761 64.072281 72.402359 77.963882 80.185562 85.747078 88.525398 93.525398 99.086922" y="0">example@example.com</tspan>
                    </text>
                    <text transform="translate(62,236)" xml:space="preserve">
                      <tspan x="0 9.4384804 11.66016 13.88184 16.103519 18.325199 23.886721 32.216801 37.216801 42.77832" y="0">Williamson</tspan>
                    </text>
                    <text transform="translate(110.33 236)" xml:space="preserve">
                      <tspan x="0" y="0">,</tspan>
                    </text>
                    <text transform="translate(115.86 236)" xml:space="preserve">
                      <tspan x="0 7.2216802" y="0">NY</tspan>
                    </text>
                    <text transform="translate(132.52 236)" xml:space="preserve">
                      <tspan x="0 5.5615201 11.12304 16.684561 21.503906" y="0">28811</tspan>
                    </text>
                  </g>
                  <text transform="translate(42,309)" font-size="12px" font-weight="900" xml:space="preserve">
                    <tspan x="0 8.6660156 17.794922 27.791018 35.794922 44.460938 53.126953 61.792969 66.462891 76.458984 86.337891 95.671875" y="0">PROFESSIONAL</tspan>
                  </text>
                  <text transform="translate(42,327)" font-size="12px" font-weight="900" xml:space="preserve">
                    <tspan x="0 8.6660156 18.662111 29.988289 41.314465 50.648449 59.466797" y="0">SUMMARY</tspan>
                  </text>
                  <g font-size="10px">
                    <text transform="translate(42,348)" xml:space="preserve">
                      <tspan x="0 7.2216802 9.4433603 15.00488 20.566401 22.78808 27.78808 30.566401 33.344719 36.674801 42.23632 44.458 50.01952 55.581039 61.142559 63.920879 67.250961 72.812477 78.374001 80.59568 85.59568 88.374001 93.935516 97.265602 102.82712 108.38864 111.16696 116.72848 122.29 125.62008 130.62009" y="0">Highly trained registered nurse</tspan>
                    </text>
                    <text transform="translate(42,363)" xml:space="preserve">
                      <tspan x="0 7.2216802 9.4433603 12.22168 17.783199 20.56152 25.56152 28.33984 31.66992 37.231441 42.792961 48.354481 51.132801 56.132801 58.354481 60.57616 66.13768 68.35936 73.35936 78.920883 81.142563 83.920883 89.482399 95.043922 97.265602 99.487282 101.70896 104.48728 106.70896 112.27048 117.27048 120.0488 125.61032 131.17184 136.73335 139.51167" y="0">with strong clinical abilities and a</tspan>
                    </text>
                    <text transform="translate(42,378)" xml:space="preserve">
                      <tspan x="0 5 10.56152 15.56152 20.56152 26.123039 31.123039 36.123039 38.90136 44.462879 46.684559 49.462879 54.462879 60.024399 63.354481 68.916 74.477524 77.807602 80.585922 82.807602 88.369118 91.147438 96.708961 102.27048 105.0488 110.61032 113.38864 121.71872 127.28024 132.84177 135.06345 140.06345 145.62495" y="0">successful career in both medical</tspan>
                    </text>
                    <text transform="translate(42,393)" xml:space="preserve">
                      <tspan x="0 5.5615201 11.12304 16.684561 19.462879 25.024401 30.58592 36.147442 38.925758 41.147442 46.147442 48.925758 52.25584 57.25584 60.034161 62.812481 68.374001 73.374001 75.59568 77.81736 80.03904 82.81736 85.03904 90.600563 95.600563 98.378883 101.1572 107.82712 111.1572 116.71872 122.28024 127.28024 130.05856 132.28024 137.28024" y="0">and dentistry facilities. Proactive</tspan>
                    </text>
                    <text transform="translate(42,408)" xml:space="preserve">
                      <tspan x="0 5.5615201 11.12304 16.684561 19.462879 25.024401 28.354481 33.916 39.47752 45.03904 47.260719 52.260719 57.822239 63.383759 66.162079 73.383759 75.605438 78.383759 83.945282 86.723602 92.285118 97.846642 102.84664 107.84664 110.06832 115.62984 121.19136 126.75288 129.5312" y="0">and organized with passionate</tspan>
                    </text>
                    <text transform="translate(42,423)" xml:space="preserve">
                      <tspan x="0 5 10.56152 18.8916 27.22168 29.443359 32.22168 40.551762 46.113281 51.674801 54.453121 57.231441 60.009762 65.571281 68.349602 73.911118 77.241203 82.802719 87.802719 90.024399 95.585922 101.14744 103.92576 106.70408 108.92576 112.25584 117.25584 120.03416 123.36424 126.69432 132.25584 135.03416" y="0">commitment to provide first-rate</tspan>
                    </text>
                    <text transform="translate(42,438)" xml:space="preserve">
                      <tspan x="0 5.5615201 11.12304 13.90136 16.123039 21.684561 27.24608 30.024401 32.802719 37.802719 43.364239 46.694321 52.25584 55.034161 57.812481 63.374001 65.59568 70.59568 76.157204 81.718719 86.718719 92.280243 97.841759 100.62008 102.84176" y="0">patient care. Licensed in</tspan>
                    </text>
                    <text transform="translate(42,453)" xml:space="preserve">
                      <tspan x="0 7.2216802 12.7832 15.00488 17.226561 20.004881 25.566401 28.896481 34.458 36.67968 42.241199 45.01952 52.241199 54.462879 57.241199 62.802719 65.581039 71.142563 76.142563 81.704079 87.265602 90.59568 93.374001 95.59568 100.59568 106.1572 108.93552 111.1572" y="0">California with expertise in</tspan>
                    </text>
                    <text transform="translate(42,468)" xml:space="preserve">
                      <tspan x="0 5.5615201 11.12304 14.45312 19.453119 21.674801 27.23632 32.79784" y="0">nursing.</tspan>
                    </text>
                  </g>
                  <text transform="translate(42,536)" font-size="12px" font-weight="900" xml:space="preserve">
                    <tspan x="0 8.6660156 18.662111 23.332031 31.335936 39.33984" y="0">SKILLS</tspan>
                  </text>
                </g>
                <path d="m46 553.5c0 .41418-.14645.7677-.43934 1.0606-.2929.29291-.64645.43933-1.0607.43939-.41422-6e-5-.76777-.14648-1.0607-.43939-.29289-.29291-.43934-.64643-.43934-1.0606 0-.41425.14645-.76776.43934-1.0607.29289-.29291.64645-.43933 1.0607-.43933.41421 0 .76776.14642 1.0607.43933.29289.29291.43934.64642.43934 1.0607z"></path>
                <text transform="translate(56,557)" fill="#000000" font-family="Arial" font-size="10px" xml:space="preserve">
                  <tspan x="0 8.33008 13.8916 19.453119 21.674801 26.674801 28.896481 34.458 40.01952 42.79784 48.35936 53.920879 59.482399 62.260719 67.822243 73.383759 78.945282 81.723602 83.945282 88.945282 91.723602 95.05368" y="0">Medicine and dentistry</tspan>
                </text>
                <path d="m46 568.5c0 .41425-.14645.76776-.43934 1.0607-.2929.29291-.64645.43933-1.0607.43933-.41422 0-.76777-.14642-1.0607-.43933-.29289-.29291-.43934-.64642-.43934-1.0607s.14645-.76776.43934-1.0607c.29289-.29291.64645-.43933 1.0607-.43933.41421 0 .76776.14642 1.0607.43933.29289.29291.43934.64642.43934 1.0607z"></path>
                <text transform="translate(56,572)" fill="#000000" font-family="Arial" font-size="10px" xml:space="preserve">
                  <tspan x="0 5.5615201 11.12304 16.684561 20.014641 25.57616 27.79784 33.35936 38.920879 41.6992 46.6992 49.47752 52.807598 58.369122 61.147442 66.708961 72.270477 74.492157 80.05368" y="0">Learning strategies</tspan>
                </text>
                <path d="m46 583.5c0 .41418-.14645.7677-.43934 1.0606-.2929.29291-.64645.43933-1.0607.43939-.41422-6e-5-.76777-.14648-1.0607-.43939-.29289-.29291-.43934-.64643-.43934-1.0606 0-.41425.14645-.76782.43934-1.0607.29289-.29285.64645-.43927 1.0607-.43927.41421 0 .76776.14642 1.0607.43927.29289.29291.43934.64648.43934 1.0607z"></path>
                <text transform="translate(56,587)" fill="#000000" font-family="Arial" font-size="10px" xml:space="preserve">
                  <tspan x="0 6.66992 11.66992 16.66992 21.66992 27.23144 32.792961 35.014641 40.57616 46.13768 51.13768 53.916 58.916 64.477524 70.03904 77.260719 79.482399 85.043922 90.605438 96.166962" y="0">Psychology knowledge</tspan>
                </text>
                <path d="m46 598.5c0 .41418-.14645.7677-.43934 1.0606-.2929.29291-.64645.43933-1.0607.43939-.41422-6e-5-.76777-.14648-1.0607-.43939-.29289-.29291-.43934-.64643-.43934-1.0606 0-.41425.14645-.76782.43934-1.0607.29289-.29285.64645-.43927 1.0607-.43927.41421 0 .76776.14642 1.0607.43927.29289.29291.43934.64648.43934 1.0607z"></path>
                <text transform="translate(56,602)" fill="#000000" font-family="Arial" font-size="10px" xml:space="preserve">
                  <tspan x="0 6.66992 12.23144 15.00976 17.23144 22.792959 28.354481 31.132799 33.911121 38.911121 44.472641 47.802719" y="0">Patient care</tspan>
                </text>
                <path d="m46 613.5c0 .41412-.14645.7677-.43934 1.0606-.2929.29291-.64645.43933-1.0607.43939-.41422-6e-5-.76777-.14648-1.0607-.43939-.29289-.29291-.43934-.64649-.43934-1.0606 0-.41425.14645-.76782.43934-1.0607.29289-.29285.64645-.43927 1.0607-.43927.41421 0 .76776.14642 1.0607.43927.29289.29291.43934.64648.43934 1.0607z"></path>
                <text transform="translate(56,617)" fill="#000000" font-family="Arial" font-size="10px" xml:space="preserve">
                  <tspan x="0 6.66992 12.23144 20.56152 22.783199 28.344721 30.566401 35.566399 38.344719 41.674801 47.23632 50.014641 52.23632 57.79784" y="0">Administration</tspan>
                </text>
                <path d="m46 628.5c0 .41418-.14645.7677-.43934 1.0606-.2929.29291-.64645.43939-1.0607.43939-.41422 0-.76777-.14648-1.0607-.43939-.29289-.29291-.43934-.64643-.43934-1.0606 0-.41425.14645-.76776.43934-1.0607.29289-.29291.64645-.43933 1.0607-.43933.41421 0 .76776.14642 1.0607.43933.29289.29291.43934.64642.43934 1.0607z"></path>
                <text transform="translate(56,632)" fill="#000000" font-family="Arial" font-size="10px" xml:space="preserve">
                  <tspan x="0 6.66992 11.66992 14.44824 16.66992 21.66992 27.23144 30.00976 32.231441 34.453121 39.453121 42.231441 47.792961 53.354481 55.57616 61.13768" y="0">Active listening</tspan>
                </text>
                <path d="m46 643.5c0 .41418-.14645.7677-.43934 1.0606-.2929.29291-.64645.43933-1.0607.43939-.41422-6e-5-.76777-.14648-1.0607-.43939-.29289-.29291-.43934-.64643-.43934-1.0606 0-.41425.14645-.76782.43934-1.0607.29289-.29285.64645-.43927 1.0607-.43927.41421 0 .76776.14642 1.0607.43927.29289.29291.43934.64648.43934 1.0607z"></path>
                <text transform="translate(56,647)" fill="#000000" font-family="Arial" font-size="10px" xml:space="preserve">
                  <tspan x="0 6.66992 12.23144 17.792959 20.014641 25.57616 33.906239 39.467758 45.029282 47.807598 50.585918 56.147442 61.708961 67.270477 70.600563 76.162079 78.940399 81.162079 86.723602" y="0">Equipment operation</tspan>
                </text>
                <path d="m46 658.5c0 .41418-.14645.7677-.43934 1.0606-.2929.29291-.64645.43933-1.0607.43939-.41422-6e-5-.76777-.14648-1.0607-.43939-.29289-.29291-.43934-.64643-.43934-1.0606 0-.41425.14645-.76782.43934-1.0607.29289-.29285.64645-.43927 1.0607-.43927.41421 0 .76776.14642 1.0607.43927.29289.29291.43934.64648.43934 1.0607z"></path>
                <g fill="#000000">
                  <g font-family="Arial">
                    <text transform="translate(56,662)" font-size="10px" xml:space="preserve">
                      <tspan x="0 7.2216802 12.7832 17.783199 23.344721 31.674801 37.23632 42.79784 45.57616 47.79784 53.35936 58.920879 61.6992 66.699203 68.920883 71.699203 77.260719 79.482399" y="0">Documenting vitals</tspan>
                    </text>
                    <text transform="translate(235,127)" font-size="12px" font-weight="900" xml:space="preserve">
                      <tspan x="0 11.794922 21.791018 31.125002 41.121098 45.123051 55.119144 59.789066 68.455078 76.710938 86.707031 95.525391" y="0">WORK HISTORY</tspan>
                    </text>
                    <text transform="translate(235,148)" font-size="10px" font-weight="900" xml:space="preserve">
                      <tspan x="0 7.7783198 15 23.33008 27.22168 34.443359 41.665039 48.886719 56.665039 63.886719 71.665039 75 83.330078 91.660156 99.438477 106.66016" y="0">REGISTERED NURSE</tspan>
                    </text>
                    <text transform="translate(361.64 148)" font-size="10px" font-style="italic" xml:space="preserve">
                      <tspan x="0 6.66992 12.23144 17.792959 20.57128 26.132799 31.694321 37.25584" y="0">Sep 2022</tspan>
                    </text>
                  </g>
                  <text transform="translate(407.23 148)" font-family="'Times New Roman'" font-size="10px" xml:space="preserve">
                    <tspan x="0" y="0">‐</tspan>
                  </text>
                  <g font-family="Arial" font-size="10px">
                    <text transform="translate(413.33 148)" font-style="italic" xml:space="preserve">
                      <tspan x="0 7.2216802 12.7832 16.113279 19.443359 25.004881 30.566401" y="0">Current</tspan>
                    </text>
                    <text transform="translate(235,163)" font-style="italic" xml:space="preserve">
                      <tspan x="0 6.66992 9.4482403 12.77832 18.33984 23.90136 29.462879 32.241199 40.571281 46.132801 54.462879 60.024399 63.354481 65.576157 71.13768 73.35936 76.13768 83.35936 88.920883 93.920883 99.482399 101.70408 104.4824 110.04392" y="0">Strong Memorial Hospital</tspan>
                    </text>
                    <text transform="translate(347.27 163)" xml:space="preserve">
                      <tspan x="0 2.7783201" y="0">, </tspan>
                    </text>
                    <text transform="translate(352.81 163)" font-style="italic" xml:space="preserve">
                      <tspan x="0 9.3505859 11.572266 13.793946 16.015625 18.237307 23.798826 32.128906 37.128906 42.690426" y="0">Williamson</tspan>
                    </text>
                    <text transform="translate(401.06 163)" xml:space="preserve">
                      <tspan x="0 2.7783201" y="0">, </tspan>
                    </text>
                    <text transform="translate(406.61 163)" font-style="italic" xml:space="preserve">
                      <tspan x="0 7.2216802" y="0">NY</tspan>
                    </text>
                  </g>
                </g>
                <path d="m239 174.5c0 .41422-.14645.76776-.43935 1.0606-.29289.2929-.64645.43935-1.0606.43935-.41423 0-.76778-.14645-1.0607-.43935-.29289-.29289-.43935-.64643-.43933-1.0606-2e-5-.41423.14644-.76778.43933-1.0607s.64644-.43933 1.0607-.43933c.4142 0 .76776.14644 1.0606.43933.2929.29289.43935.64644.43935 1.0607z"></path>
                <text transform="translate(249,178)" fill="#000000" font-family="Arial" font-size="10px" xml:space="preserve">
                  <tspan x="0 7.2216802 12.7832 21.113279 26.674801 32.23632 37.23632 40.014641 43.344719 48.906239 51.684559 57.246078 62.246078 65.024399 70.585922 76.147438 78.925758 81.147438 86.708961 92.270477 95.048798 97.827118 102.82712 108.38864 111.71872 117.28024 120.05856 122.28024 127.84176 130.62009 135.62009 137.84177 140.06345 145.62495 147.84663 152.84663 158.40816 160.62984 163.40816 168.96968 174.5312 176.75288 179.5312 184.5312 187.30952 192.87103 195.64935 198.42767 203.9892 209.55072 214.55072 220.11224 222.33392 225.11224 230.67377 232.89545 237.89545 240.67377 243.45209 248.45209 251.23039 254.56049 260.12201 265.68353 274.01361 276.23529 278.45697 284.01849 286.24017 291.80167" y="0">Demonstrates patient care in clinical units of hospitals, streamlining</tspan>
                </text>
                <text transform="translate(249,193)" fill="#000000" font-family="Arial" font-size="10px" xml:space="preserve">
                  <tspan x="0 7.2216802 12.7832 16.113279 21.113279 23.8916 29.453119 34.453121 37.231441 42.792961 48.354481 57.246078" y="0">work by 35%.</tspan>
                </text>
                <path d="m239 204.5c0 .4142-.14645.76776-.43935 1.0606-.29289.2929-.64645.43933-1.0606.43935-.41423-2e-5-.76778-.14645-1.0607-.43935-.29289-.29289-.43935-.64645-.43933-1.0606-2e-5-.41423.14644-.76779.43933-1.0607.29289-.29288.64644-.43932 1.0607-.43932.4142 0 .76776.14644 1.0606.43932.2929.29289.43935.64645.43935 1.0607z"></path>
                <text transform="translate(249,208)" fill="#000000" font-family="Arial" font-size="10px" xml:space="preserve">
                  <tspan x="0 6.66992 11.66992 16.66992 22.23144 27.23144 32.231441 35.009762 40.009762 42.231441 44.453121 50.014641 52.23632 57.23632 62.79784 65.019524 67.797836 73.35936 78.920883 84.482399 89.482399 95.043922 97.822243 100.04392 105.60544 111.16696 113.94528 119.5068 125.06832 130.62984 136.19136 141.19136 143.96968 149.5312 155.09271 160.65424 163.43256 168.99408 174.5556 177.33392 179.5556 185.11713 190.67863 193.45695 196.23528 201.7968 207.35832 212.91985 215.69817 220.69817 222.91985 225.14153 230.70303 236.26456 239.04288 241.8212 244.59952 250.16104 255.72256 260.72256 266.28409 268.50577 274.06729 279.62881 282.40714 287.96863 293.53015 299.09167 304.6532" y="0">Assess clinical education needs and patient and client teaching needs</tspan>
                </text>
                <text transform="translate(249,223)" fill="#000000" font-family="Arial" font-size="10px" xml:space="preserve">
                  <tspan x="0 5.5615201 10.56152 12.7832 18.344721 23.90624 26.684561 31.684561 37.246078 40.57616 42.79784 48.35936 53.920879 58.920879 61.6992 70.029282 75.590797 78.369118 83.930641 89.492157 95.05368 100.05368" y="0">using various methods.</tspan>
                </text>
                <path d="m239 234.5c0 .4142-.14645.76775-.43935 1.0606-.29289.29289-.64645.43934-1.0606.43936-.41423-2e-5-.76778-.14647-1.0607-.43936s-.43935-.64644-.43933-1.0606c-2e-5-.41423.14644-.76779.43933-1.0607.29289-.29288.64644-.43932 1.0607-.43932.4142 0 .76776.14644 1.0606.43932.2929.29289.43935.64645.43935 1.0607z"></path>
                <g fill="#000000" font-size="10px">
                  <g font-family="Arial">
                    <text transform="translate(249,238)" xml:space="preserve">
                      <tspan x="0 2.7783201 8.3398399 11.11816 16.67968 20.00976 28.33984 33.33984 36.11816 41.67968 47.241199 52.241199 57.241199 59.462879 64.462883 66.684563 72.246078 77.807602 82.807602 85.585922 91.147438 93.925758 96.704079 102.2656 107.82712 110.60544 112.82712 118.38864 123.95016 126.72848 128.63766 133.63766 136.41599 141.41599 146.97749 152.53902 158.10054 160.32222 163.10054 165.32222 170.88374 176.44527 179.22359 184.7851 190.34662 193.6767 195.89838 201.4599 207.02142 209.79974 215.36127 220.92278 226.4843 231.4843 234.26262 239.82414 245.38567 250.38567 252.60735 258.16885" y="0">Informs physicians of patient's condition during anesthesia.</tspan>
                    </text>
                    <text transform="translate(235,263)" font-weight="900" xml:space="preserve">
                      <tspan x="0 7.7783198 15 23.33008 27.22168 34.443359 41.665039 48.886719 56.665039 63.886719 71.665039 75 83.330078 91.660156 99.438477 106.66016" y="0">REGISTERED NURSE</tspan>
                    </text>
                    <text transform="translate(361.64 263)" font-style="italic" xml:space="preserve">
                      <tspan x="0 6.66992 12.23144 17.792959 20.57128 26.132799 31.694321 37.25584" y="0">Sep 2018</tspan>
                    </text>
                  </g>
                  <text transform="translate(407.23 263)" font-family="'Times New Roman'" xml:space="preserve">
                    <tspan x="0" y="0">‐</tspan>
                  </text>
                  <g font-family="Arial">
                    <text transform="translate(413.33 263)" font-style="italic" xml:space="preserve">
                      <tspan x="0 5 10.56152 16.123039 18.90136 24.462879 30.024401 35.585918" y="0">Jan 2021</tspan>
                    </text>
                    <text transform="translate(235,278)" font-style="italic" xml:space="preserve">
                      <tspan x="0 9.3505859 11.572266 13.793946 16.015625 18.237307 23.798826 32.128906 37.128906 39.907227 48.237305 53.798824 62.128906 67.69043 71.020508 73.242188 78.803703 81.025383 83.803703 91.025383 96.586906 101.58691 107.14842 109.37011 112.14842 117.70995" y="0">Williams Memorial Hospital</tspan>
                    </text>
                    <text transform="translate(354.92 278)" xml:space="preserve">
                      <tspan x="0 2.7783201" y="0">, </tspan>
                    </text>
                    <text transform="translate(360.47 278)" font-style="italic" xml:space="preserve">
                      <tspan x="0 9.3505859 11.572266 13.793946 16.015625 18.237307 23.798826 32.128906 37.128906 42.690426" y="0">Williamson</tspan>
                    </text>
                    <text transform="translate(408.72 278)" xml:space="preserve">
                      <tspan x="0 2.7783201" y="0">, </tspan>
                    </text>
                    <text transform="translate(414.27 278)" font-style="italic" xml:space="preserve">
                      <tspan x="0 7.2216802" y="0">NY</tspan>
                    </text>
                  </g>
                </g>
                <path d="m239 289.5c0 .41422-.14645.76776-.43935 1.0606-.29289.29288-.64645.43933-1.0606.43936-.41423-3e-5-.76778-.14648-1.0607-.43936s-.43935-.64642-.43933-1.0606c-2e-5-.41422.14644-.76779.43933-1.0607.29289-.29288.64644-.4393 1.0607-.4393.4142 0 .76776.14642 1.0606.4393.2929.29291.43935.64648.43935 1.0607z"></path>
                <text transform="translate(249,293)" fill="#000000" font-family="Arial" font-size="10px" xml:space="preserve">
                  <tspan x="0 8.33008 13.8916 19.453119 21.674801 24.453119 26.674801 32.23632 37.79784 40.57616 46.13768 51.6992 54.47752 56.6992 62.260719 67.822243 70.600563 73.378883 76.157204 79.487282 85.048798 90.610321 93.388641 101.71872 107.28024 112.84176 115.62008 118.3984 123.95992 126.1816 131.74312 137.30464 142.30464 145.08296 150.64449 155.64449 158.42281 160.64449 166.20599 171.76752 173.9892 178.9892 184.55072 187.32904 192.89056 198.45209 201.23039 206.79192 211.79192 214.57024 220.13176 225.69328 228.4716 230.69328 236.25481 241.81631 244.59464 249.59464 251.50381 254.28214 257.61221 263.17374 268.17374 273.73526 279.29678 284.85831 289.85831 295.41983 300.41983 303.19815 308.75967 314.32117" y="0">Modified patient treatment plans as indicated by patients' responses and</tspan>
                </text>
                <text transform="translate(249,308)" fill="#000000" font-family="Arial" font-size="10px" xml:space="preserve">
                  <tspan x="0 5 10.56152 16.123039 21.684561 23.90624 26.684561 28.90624 34.467758 40.029282 45.029282" y="0">conditions.</tspan>
                </text>
                <path d="m239 319.5c0 .41422-.14645.76776-.43935 1.0606-.29289.29288-.64645.43933-1.0606.43936-.41423-3e-5-.76778-.14648-1.0607-.43936s-.43935-.64642-.43933-1.0606c-2e-5-.41422.14644-.76779.43933-1.0607s.64644-.43933 1.0607-.43933c.4142 0 .76776.14645 1.0606.43933.2929.29288.43935.64645.43935 1.0607z"></path>
                <text transform="translate(249,323)" fill="#000000" font-family="Arial" font-size="10px" xml:space="preserve">
                  <tspan x="0 6.66992 12.23144 20.56152 22.783199 28.344721 30.566401 35.566399 38.344719 43.906239 47.23632 52.79784 58.35936 61.13768 63.35936 68.920883 73.920883 79.482399 81.704079 84.482399 87.260719 89.482399 95.043922 100.60544 106.16696 108.38864 113.95016 116.72848 118.95016 124.51168 130.0732 132.85152 135.62984 137.85152 143.41304 146.19136 149.52144 155.08296 160.08296 165.64449 171.20599 176.76752 182.32904 187.32904 190.10736 195.66888 198.99896 201.77728 207.33881 210.11713 215.67863 221.24016 224.57024 227.34856 232.91008 238.4716 244.03313 249.03313 251.81145 257.37296 262.93448 265.7128 267.93448 272.93448 277.93448 280.7128 287.93448 290.15616 292.93448 298.496 301.27432" y="0">Administered local, inhalation, intravenous or other anesthetics with a</tspan>
                </text>
                <text transform="translate(249,338)" fill="#000000" font-family="Arial" font-size="10px" xml:space="preserve">
                  <tspan x="0 5.5615201 11.12304 16.684561 25.57616 28.354481 33.354481 38.916 43.916 48.916 54.47752 59.47752 64.477524 67.255836 70.585922 76.147438 78.925758 84.487282" y="0">100% success rate.</tspan>
                </text>
                <path d="m239 349.5c0 .41418-.14645.76773-.43935 1.0606-.29289.29288-.64645.43933-1.0606.43936-.41423-3e-5-.76778-.14648-1.0607-.43936-.29289-.29291-.43935-.64646-.43933-1.0606-2e-5-.41425.14644-.76782.43933-1.0607s.64644-.4393 1.0607-.4393c.4142 0 .76776.14642 1.0606.4393.2929.29288.43935.64645.43935 1.0607z"></path>
                <g fill="#000000" font-size="10px">
                  <g font-family="Arial">
                    <text transform="translate(249,353)" xml:space="preserve">
                      <tspan x="0 7.2216802 9.4433603 12.77344 18.334961 23.334961 26.113279 31.674801 37.23632 40.014641 45.57616 48.906239 51.684559 56.684559 62.246078 67.807602 73.369118 76.699203 81.699203 83.920883 88.920883 94.482399 100.04392 102.82224 105.04392 110.60544 115.60544 120.60544 123.93552 128.93552 133.93552 136.1572 138.37888 140.60056 146.16208 151.7236 154.50192 160.06345 165.62495 168.95505 173.95505 176.17673 181.73824 187.29976 190.07808 195.6396 198.96968 201.748 207.30952 212.87103 218.43256 220.65424 223.43256 228.99408 233.99408 239.5556 242.88568 248.4472 251.22552 256.78705 262.34857 265.67865 270.67865 276.24017 281.80167 287.36319 292.92471 295.14639 297.92471 300.70303 306.26456 311.82608" y="0">Directed or supervised less-skilled nursing or healthcare personnel, and</tspan>
                    </text>
                    <text transform="translate(249,368)" xml:space="preserve">
                      <tspan x="0 5.5615201 11.12304 16.123039 18.90136 23.90136 29.462879 35.024399 40.585918 43.916 48.916 51.13768 56.13768 61.6992 67.260719 70.03904 75.600563 78.378883 85.600563 91.162079 96.723602 98.945282 104.5068 107.28512 112.84664 118.40816 120.62984 123.40816 126.18648 131.748 134.52632 137.30464 140.08296 142.30464 150.63472 156.19624 161.19624" y="0">has supervised a whole unit at times.</tspan>
                    </text>
                    <text transform="translate(235,393)" font-weight="900" xml:space="preserve">
                      <tspan x="0 8.33008 16.66016 24.43848 31.66016 38.88184 42.216801 49.995121 57.216801 64.438477 68.330078 75.551758 82.094727 89.873047 98.203125" y="0">NURSE ASSISTANT</tspan>
                    </text>
                    <text transform="translate(353.19 393)" font-style="italic" xml:space="preserve">
                      <tspan x="0 6.66992 12.23144 17.792959 20.57128 26.132799 31.694321 37.25584" y="0">Sep 2017</tspan>
                    </text>
                  </g>
                  <text transform="translate(398.78 393)" font-family="'Times New Roman'" xml:space="preserve">
                    <tspan x="0" y="0">‐</tspan>
                  </text>
                  <g font-family="Arial">
                    <text transform="translate(404.88 393)" font-style="italic" xml:space="preserve">
                      <tspan x="0 5 10.56152 16.123039 18.90136 24.462879 30.024401 35.585918" y="0">Jan 2018</tspan>
                    </text>
                    <text transform="translate(235,408)" font-style="italic" xml:space="preserve">
                      <tspan x="0 6.66992 12.23144 17.23144 20.56152 26.123039 31.684561 34.462879 41.684559 47.246078 52.807598 56.13768 58.916 61.694321 68.916 74.477524 79.477524 85.03904 87.260719 90.03904 95.600563" y="0">Sacred Heart Hospital</tspan>
                    </text>
                    <text transform="translate(332.81 408)" xml:space="preserve">
                      <tspan x="0 2.7783201" y="0">, </tspan>
                    </text>
                    <text transform="translate(338.36 408)" font-style="italic" xml:space="preserve">
                      <tspan x="0 7.2216802 12.7832 20.004881 22.783199 28.901367 34.462887 37.792969" y="0">New York</tspan>
                    </text>
                    <text transform="translate(381.14 408)" xml:space="preserve">
                      <tspan x="0 2.7783201" y="0">, </tspan>
                    </text>
                    <text transform="translate(386.69 408)" font-style="italic" xml:space="preserve">
                      <tspan x="0 7.2216802" y="0">NY</tspan>
                    </text>
                  </g>
                </g>
                <path d="m239 419.5c0 .41422-.14645.76776-.43935 1.0606-.29289.29288-.64645.43933-1.0606.43936-.41423-3e-5-.76778-.14648-1.0607-.43936s-.43935-.64642-.43933-1.0606c-2e-5-.41425.14644-.76782.43933-1.0607s.64644-.4393 1.0607-.4393c.4142 0 .76776.14642 1.0606.4393.2929.29288.43935.64645.43935 1.0607z"></path>
                <text transform="translate(249,423)" fill="#000000" font-family="Arial" font-size="10px" xml:space="preserve">
                  <tspan x="0 7.2216802 12.7832 18.344721 23.344721 28.90624 31.12792 33.906239 39.467758 45.029282 47.807598 53.369122 58.930641 64.492157 67.270477 72.270477 77.832001 83.393517 86.723602 92.285118 94.506798 100.06832 105.62984 108.40816 113.96968 119.5312 122.30952 129.5312 131.75288 134.5312 140.09271 142.87103 148.43256 153.99408 159.5556 161.77728 164.5556 170.11713 175.11713 180.67863 184.00871 189.57024 192.34856 195.12688 200.6884 206.24992 214.58 217.35832 225.6884 231.24992 239.58 245.14153 250.70303 254.03313 259.03311 261.81143 264.58975 270.15128 272.9296 278.49112 283.49112 288.49112 294.05264 299.05264 304.05264" y="0">Consulted and coordinated with healthcare team members to assess,</tspan>
                </text>
                <text transform="translate(249,438)" fill="#000000" font-family="Arial" font-size="10px" xml:space="preserve">
                  <tspan x="0 5.5615201 7.7831998 13.34472 18.90624 21.684561 24.462879 26.684561 35.014641 40.57616 42.79784 48.35936 56.689442 62.250961 67.812477 70.590797 73.369118 78.930641 82.260719 85.03904 90.600563 95.600563 101.16208 103.38376 108.94528 114.5068 117.28512 122.84664 125.62496 131.18648 136.748 139.52632 141.748 147.30952 152.87103 155.64935 158.42767 163.42767 168.9892 172.31927 177.8808 180.65912 186.22064 188.44232 194.00385 199.56535 204.56535" y="0">plan, implement or evaluate patient care plans.</tspan>
                </text>
                <path d="m239 449.5c0 .41418-.14645.76773-.43935 1.0606-.29289.29288-.64645.43933-1.0606.43936-.41423-3e-5-.76778-.14648-1.0607-.43936-.29289-.29291-.43935-.64646-.43933-1.0606-2e-5-.41425.14644-.76782.43933-1.0607s.64644-.4393 1.0607-.4393c.4142 0 .76776.14642 1.0606.4393.2929.29288.43935.64645.43935 1.0607z"></path>
                <text transform="translate(249,453)" fill="#000000" font-family="Arial" font-size="10px" xml:space="preserve">
                  <tspan x="0 8.33008 13.8916 19.453119 21.674801 24.453119 30.014641 33.344719 38.906239 44.467758 47.246078 52.807598 55.029282 57.250961 60.029282 65.590797 70.590797 76.152321 81.713837 86.713837 89.492157 94.492157 97.270477 102.832 105.61032 108.38864 113.95016 119.51168 122.29 124.51168 130.0732 135.63472 138.41304 141.19136 146.19136 151.75288 155.08296 160.64449 163.42281 165.64449 171.20599 176.20599 178.42767 183.9892 189.55072 191.7724 197.33392 202.89545 205.67377 211.23528 213.45695 219.01848 221.7968 224.57512 230.13664 235.69817 241.25967 244.03799 249.59952 255.16104 260.16104 265.16104 267.38272 272.38272 277.94424 280.16592 282.94424 288.50577 293.50577 296.28409 298.50577 303.50577 305.72745 308.50577 312.76367" y="0">Monitored all aspects of patient care including diet and physical activity.</tspan>
                </text>
                <path d="m239 464.5c0 .41418-.14645.76773-.43935 1.0606-.29289.29288-.64645.43936-1.0606.43939-.41423-3e-5-.76778-.14651-1.0607-.43939s-.43935-.64643-.43933-1.0606c-2e-5-.41422.14644-.76779.43933-1.0607.29289-.29288.64644-.4393 1.0607-.4393.4142 0 .76776.14642 1.0606.4393.2929.29291.43935.64648.43935 1.0607z"></path>
                <g fill="#000000" font-family="Arial">
                  <text transform="translate(249,468)" font-size="10px" xml:space="preserve">
                    <tspan x="0 7.7783198 13.33984 18.33984 23.90136 27.23144 32.231441 37.792961 43.354481 46.132801 51.694321 57.25584 60.585918 65.585922 71.147438 76.147438 78.925758 84.487282 90.048798 95.610321 98.388641 103.38864 105.61032 110.61032 112.832 115.61032 121.17184 126.73336 129.51167 135.0732 140.0732 145.63472 148.9648 151.74312 157.30464 162.86617 165.64449 171.20599 176.76752 179.54584 181.76752 187.32904 192.89056 195.66888 200.66888 203.4472 206.22552 211.78703 214.56535 220.12688 225.6884 230.6884 236.24992 239.58 245.14153 247.91985 253.48135 256.81143 262.37296 267.93448 273.496 276.82608 279.6044 285.16592 290.72745 294.05753 299.05753 301.27921 306.84073" y="0">Observed nurses and visited over 50 patients to ensure proper nursing</tspan>
                  </text>
                  <text transform="translate(249,483)" font-size="10px" xml:space="preserve">
                    <tspan x="0 5 10.56152 13.8916 19.453119" y="0">care.</tspan>
                  </text>
                  <text transform="translate(235,551)" font-size="12px" font-weight="900" xml:space="preserve">
                    <tspan x="0 8.6660156 18 27.996096 37.330078 45.837891 54.503906 59.173828 69.169922" y="0">EDUCATION</tspan>
                  </text>
                  <g font-size="10px">
                    <text transform="translate(235,572)" font-weight="900" xml:space="preserve">
                      <tspan x="0 9.4384804 16.66016" y="0">MSN</tspan>
                    </text>
                    <text transform="translate(262.76 572)" xml:space="preserve">
                      <tspan x="0 3.33008" y="0">- </tspan>
                    </text>
                    <text transform="translate(268.86 572)" font-weight="900" xml:space="preserve">
                      <tspan x="0 8.33008 16.66016 24.43848 31.66016 38.88184 42.216801 49.43848 57.216801 64.814453 72.592773 79.814453 83.706055 90.927734 94.819336 103.14941 111.47949 118.70117" y="0">NURSE PRACTITIONER</tspan>
                    </text>
                    <text transform="translate(408.09 572)" font-style="italic" xml:space="preserve">
                      <tspan x="0 7.2216802 12.7832 17.783199 20.56152 26.123039 31.684561 37.246078" y="0">Dec 2016</tspan>
                    </text>
                    <text transform="translate(235,587)" font-style="italic" xml:space="preserve">
                      <tspan x="0 6.66992 12.23144 17.792959 20.57128 26.67968 30.00976 35.571281 41.132801 46.132801 48.354481 53.354481 58.354481 63.916 66.694321 73.364243 76.142563 81.704079 84.482399 90.043922 92.822243 100.04392 105.60544 107.82712 112.82712 118.38864 121.71872 126.71872 128.9404 131.71872" y="0">San Francisco State University</tspan>
                    </text>
                    <text transform="translate(371.72 587)" xml:space="preserve">
                      <tspan x="0 2.7783201" y="0">, </tspan>
                    </text>
                    <text transform="translate(377.27 587)" font-style="italic" xml:space="preserve">
                      <tspan x="0 6.66992 12.23144 17.792959 20.57128 26.67968 30.00976 35.571281 41.132801 46.132801 48.354481 53.354481 58.354481" y="0">San Francisco</tspan>
                    </text>
                    <text transform="translate(441.17 587)" xml:space="preserve">
                      <tspan x="0 2.7783201" y="0">, </tspan>
                    </text>
                    <text transform="translate(446.72 587)" font-style="italic" xml:space="preserve">
                      <tspan x="0 7.2216802" y="0">CA</tspan>
                    </text>
                    <text transform="translate(235,612)" font-weight="900" xml:space="preserve">
                      <tspan x="0 7.6074219 15.205078 22.983398 31.313478 38.53516 45.03418 53.364262 61.142582 64.477539 72.807617 79.477539 82.8125 90.03418 97.8125 101.7041 108.92578 117.25586 125.03418" y="0">BACHELOR OF SCIENCE</tspan>
                    </text>
                    <text transform="translate(370.03 612)" xml:space="preserve">
                      <tspan x="0 3.33008" y="0">- </tspan>
                    </text>
                    <text transform="translate(376.12 612)" font-weight="900" xml:space="preserve">
                      <tspan x="0 8.33008 16.66016 24.43848 31.66016 35.551762 43.88184" y="0">NURSING</tspan>
                    </text>
                    <text transform="translate(441.09 612)" font-style="italic" xml:space="preserve">
                      <tspan x="0 6.66992 12.23144 17.792959 20.57128 26.132799 31.694321 37.25584" y="0">Sep 2013</tspan>
                    </text>
                    <text transform="translate(235,627)" font-style="italic" xml:space="preserve">
                      <tspan x="0 6.66992 12.23144 17.792959 20.57128 26.67968 30.00976 35.571281 41.132801 46.132801 48.354481 53.354481 58.354481 63.916 66.694321 73.364243 76.142563 81.704079 84.482399 90.043922 92.822243 100.04392 105.60544 107.82712 112.82712 118.38864 121.71872 126.71872 128.9404 131.71872" y="0">San Francisco State University</tspan>
                    </text>
                    <text transform="translate(371.72 627)" xml:space="preserve">
                      <tspan x="0 2.7783201" y="0">, </tspan>
                    </text>
                    <text transform="translate(377.27 627)" font-style="italic" xml:space="preserve">
                      <tspan x="0 6.66992 12.23144 17.792959 20.57128 26.67968 30.00976 35.571281 41.132801 46.132801 48.354481 53.354481 58.354481" y="0">San Francisco</tspan>
                    </text>
                    <text transform="translate(441.17 627)" xml:space="preserve">
                      <tspan x="0 2.7783201" y="0">, </tspan>
                    </text>
                    <text transform="translate(446.72 627)" font-style="italic" xml:space="preserve">
                      <tspan x="0 7.2216802" y="0">CA</tspan>
                    </text>
                  </g>
                </g>
              </g>
            </g>
            <g clip-path="url(#clipPath186641)">
              <g transform="matrix(.019043 0 0 .019043 31.5 130.5)">
                <path d="m493.4 24.6-104-24c-11.3-2.6-22.9 3.3-27.5 13.9l-48 112c-4.2 9.8-1.4 21.3 6.9 28l60.6 49.6c-36 76.7-98.9 140.5-177.2 177.2l-49.6-60.6c-6.8-8.3-18.2-11.1-28-6.9l-112 48c-10.7 4.7-16.6 16.3-14 27.6l24 104c2.5 10.8 12.1 18.6 23.4 18.6 256.1 0 464-207.5 464-464 0-11.2-7.7-20.9-18.6-23.4z"></path>
              </g>
            </g>
            <g clip-path="url(#clipPath186653)">
              <g transform="matrix(.014648 0 0 .014648 32.625 151.5)">
                <path d="m502.3 190.8c3.9-3.1 9.7-.19999 9.7 4.7v204.5c0 26.5-21.5 48-48 48h-416c-26.5 0-48-21.5-48-48v-204.4c0-5 5.7-7.8 9.7-4.7 22.4 17.4 52.1 39.5 154.1 113.6 21.1 15.4 56.7 47.8 92.2 47.6 35.7.29998 72-32.8 92.3-47.6 102-74.1 131.6-96.3 154-113.7zm-246.3 129.2c23.2.39999 56.6-29.2 73.4-41.4 132.7-96.3 142.8-104.7 173.4-128.7 5.8-4.5 9.2-11.5 9.2-18.9v-19c0-26.5-21.5-48-48-48h-416c-26.5-1.5e-5-48 21.5-48 48v19c0 7.4 3.4 14.3 9.2 18.9 30.6 23.9 40.7 32.4 173.4 128.7 16.8 12.2 50.2 41.8 73.4 41.4z"></path>
              </g>
            </g>
            <g clip-path="url(#clipPath186665)">
              <g transform="matrix(.375 0 0 .375 31.5 169.5)">
                <path d="m12 0c-4.198 0-8 3.403-8 7.602 0 4.198 3.469 9.21 8 16.398 4.531-7.188 8-12.2 8-16.398 0-4.199-3.801-7.602-8-7.602zm0 11c-1.657 0-3-1.343-3-3s1.343-3 3-3 3 1.343 3 3c0 1.657-1.343 3-3 3z"></path>
              </g>
            </g>
            <g clip-path="url(#clipPath186677)">
              <g transform="matrix(.75 0 0 .75 31.5 0)">
                <path d="m.151 0h53.849v119l-26.064-7.825c-.57357-.17209-1.1472-.17243-1.721-.00099l-26.215 7.826z"></path>
              </g>
            </g>
            <g clip-path="url(#clipPath186689)">
              <g transform="scale(.75)" fill="#ffffff" font-family="Arial" font-size="21px" font-weight="900">
                <text transform="translate(59.094 56)" xml:space="preserve">
                  <tspan x="0" y="0">M</tspan>
                </text>
                <text transform="translate(58.5,77)" xml:space="preserve">
                  <tspan x="0" y="0">W</tspan>
                </text>
              </g>
            </g>
          </g>
        </g>
      </g>
    </g>
  </g>
</svg>
